<?xml version="1.0" standalone="no"?>
<!DOCTYPE svg PUBLIC "-//W3C//DTD SVG 1.1//EN" "http://www.w3.org/Graphics/SVG/1.1/DTD/svg11.dtd" >
<svg xmlns="http://www.w3.org/2000/svg" xmlns:xlink="http://www.w3.org/1999/xlink" version="1.1">
<metadata></metadata>
<defs>
<font id="soin_sans_neuebold" horiz-adv-x="1153" >
<font-face units-per-em="2048" ascent="1536" descent="-512" />
<missing-glyph horiz-adv-x="446" />
<glyph horiz-adv-x="0" />
<glyph horiz-adv-x="682" />
<glyph horiz-adv-x="0" />
<glyph horiz-adv-x="0" />
<glyph unicode="&#xd;" horiz-adv-x="1024" />
<glyph unicode=" "  horiz-adv-x="446" />
<glyph unicode="&#x09;" horiz-adv-x="446" />
<glyph unicode="&#xa0;" horiz-adv-x="446" />
<glyph unicode="!" horiz-adv-x="608" d="M133 158q0 72 48.5 121t121.5 49q75 0 123.5 -49t48.5 -121t-48.5 -121t-123.5 -49q-73 0 -121.5 49t-48.5 121zM156 1262v172h295v-172q0 -390 -52 -801h-190q-53 392 -53 801z" />
<glyph unicode="&#x22;" horiz-adv-x="1001" d="M141 1454h275l-29 -639h-217zM586 1454h274l-29 -639h-217z" />
<glyph unicode="#" horiz-adv-x="1468" d="M92 342v209h223l62 332h-205v209h244l63 342h248l-63 -342h282l64 342h245l-63 -342h186v-209h-225l-61 -332h206v-209h-245l-64 -342h-246l64 342h-283l-63 -342h-248l63 342h-184zM563 551h283l61 332h-282z" />
<glyph unicode="$" horiz-adv-x="1353" d="M100 403h277q25 -176 313 -176q131 0 204 47.5t73 131.5q0 70 -58 113.5t-186 68.5l-162 33q-436 82 -436 417q0 176 115 285t333 129v186h209v-190q195 -24 303.5 -128t126.5 -267h-276q-14 74 -83 113.5t-187 39.5q-125 0 -190.5 -42.5t-65.5 -125.5q0 -74 63.5 -114 t202.5 -68l162 -33q215 -41 315 -140.5t100 -262.5q0 -195 -124 -307t-347 -131v-187h-209v189q-215 23 -336.5 132t-136.5 287z" />
<glyph unicode="%" horiz-adv-x="2043" d="M72 1057q0 166 112.5 277.5t280.5 111.5q170 0 281.5 -111.5t111.5 -277.5q0 -168 -111.5 -279.5t-281.5 -111.5q-169 0 -281 112t-112 279zM289 1057q0 -84 49 -137.5t127 -53.5t128 54t50 137q0 82 -50 136t-128 54q-77 0 -126.5 -54t-49.5 -136zM469 0l858 1434h248 l-858 -1434h-248zM1184 377q0 167 112 279t281 112q170 0 282.5 -111.5t112.5 -279.5q0 -166 -112.5 -277.5t-282.5 -111.5q-168 0 -280.5 111.5t-112.5 277.5zM1401 377q0 -82 49.5 -136.5t126.5 -54.5q78 0 128 54.5t50 136.5q0 83 -50 136.5t-128 53.5t-127 -53.5 t-49 -136.5z" />
<glyph unicode="&#x26;" horiz-adv-x="1460" d="M98 375q0 46 9 87.5t21.5 73t38 65t45 54.5t57.5 51.5t60 46.5t68 48q-40 42 -64 70.5t-50 69t-38 84t-12 93.5q0 160 106 248t284 88q170 0 276.5 -85t106.5 -232q0 -64 -18 -117t-56 -98.5t-80 -80.5t-107 -79l254 -279q81 90 232 281l180 -154q-151 -190 -254 -301 l285 -309h-309l-140 152q-215 -177 -438 -177q-129 0 -231 44.5t-164 136.5t-62 219zM379 383q0 -77 56.5 -122.5t142.5 -45.5q130 0 258 107l-281 307q-49 -35 -75.5 -57t-53 -52.5t-37 -63t-10.5 -73.5zM489 1118q0 -70 101 -186q45 29 59.5 39t43.5 32.5t38.5 36.5t19 36 t9.5 46q-1 55 -38.5 89t-96.5 34q-64 0 -100 -34.5t-36 -92.5z" />
<glyph unicode="'" horiz-adv-x="557" d="M141 1454h275l-29 -639h-217z" />
<glyph unicode="(" horiz-adv-x="894" d="M115 573q0 386 194.5 652.5t517.5 326.5v-249q-199 -52 -313.5 -239.5t-114.5 -490.5t114.5 -490.5t313.5 -238.5v-252q-323 62 -517.5 328.5t-194.5 652.5z" />
<glyph unicode=")" horiz-adv-x="894" d="M70 -156q198 51 313 238.5t115 490.5q0 302 -115 489.5t-313 240.5v249q212 -40 373 -173.5t249 -342t88 -463.5q0 -386 -194 -652.5t-516 -328.5v252z" />
<glyph unicode="*" horiz-adv-x="944" d="M72 1094l67 200l236 -96l-10 256h215l-11 -256l236 96l67 -200l-251 -72l165 -199l-174 -123l-141 218l-139 -218l-176 123l168 199z" />
<glyph unicode="+" horiz-adv-x="1261" d="M182 406v208h340v340h219v-340h340v-208h-340v-340h-219v340h-340z" />
<glyph unicode="," horiz-adv-x="542" d="M68 -276l79 591h293l-166 -591h-206z" />
<glyph unicode="-" horiz-adv-x="821" d="M82 340v229h657v-229h-657z" />
<glyph unicode="." horiz-adv-x="542" d="M100 158q0 72 49 121t123 49q73 0 121.5 -49t48.5 -121t-48.5 -121t-121.5 -49q-74 0 -123 49t-49 121z" />
<glyph unicode="/" horiz-adv-x="1110" d="M-23 -205l889 1843h267l-887 -1843h-269z" />
<glyph unicode="0" horiz-adv-x="1419" d="M109 717q0 343 162.5 542t437.5 199t438.5 -199t163.5 -542t-163.5 -542.5t-438.5 -199.5t-437.5 199.5t-162.5 542.5zM393 717q0 -235 83.5 -363.5t232.5 -128.5t232 128.5t83 363.5t-83 363t-232 128t-232.5 -128t-83.5 -363z" />
<glyph unicode="1" horiz-adv-x="1032" d="M76 1290l432 146h244v-1436h-279v1169l-319 -104z" />
<glyph unicode="2" horiz-adv-x="1273" d="M92 971q4 79 23.5 148.5t61 132.5t102 108t152.5 71.5t206 26.5q121 0 220 -34t164 -93.5t100.5 -140t35.5 -172.5q0 -57 -10 -107t-34.5 -96.5t-48 -81.5t-68.5 -80t-76 -73t-89 -78l-301 -256h648v-246h-1076v197l525 442q58 52 86 78.5t66.5 68t55 71.5t29.5 69.5 t13 81.5q0 94 -64.5 149t-181.5 55q-131 0 -192.5 -61.5t-69.5 -179.5h-277z" />
<glyph unicode="3" horiz-adv-x="1302" d="M80 444h270q20 -223 301 -223q131 0 205 56t74 157q0 187 -242 187h-162v225h144q217 0 217 186q0 87 -69.5 133.5t-178.5 46.5q-129 0 -195.5 -57.5t-72.5 -159.5h-271q6 78 28 146t65.5 127t105.5 100.5t150.5 65.5t197.5 24q81 0 157.5 -17t142 -50.5t115 -81 t77.5 -112t28 -138.5q0 -113 -55 -194.5t-137 -114.5q103 -23 169 -107.5t66 -222.5t-76 -240.5t-201.5 -153.5t-281.5 -51q-140 0 -248 36t-175.5 100.5t-104 148t-43.5 184.5z" />
<glyph unicode="4" horiz-adv-x="1382" d="M72 328v204l770 904h262v-867h225v-241h-225v-328h-279v328h-753zM393 569h432v508z" />
<glyph unicode="5" horiz-adv-x="1265" d="M76 436h270q10 -97 81 -156t204 -59q120 0 193 67t73 173q0 108 -69 176t-207 68q-76 0 -149 -20t-114 -50l-227 61l31 738h915v-246h-661l-15 -320q40 26 116.5 43t156.5 17q224 0 363 -127.5t139 -333.5q0 -148 -73.5 -261.5t-196 -172t-271.5 -58.5 q-137 0 -243.5 36.5t-172.5 101t-101.5 145.5t-41.5 178z" />
<glyph unicode="6" horiz-adv-x="1325" d="M109 688q0 122 19.5 231t65 209t113 172t170.5 115t232 43q104 0 194 -35t149.5 -91.5t96 -123t45.5 -133.5h-264q-14 63 -77.5 104.5t-152.5 41.5q-278 0 -307 -392q119 125 346 125q213 0 355.5 -135.5t142.5 -335.5q0 -225 -151.5 -366.5t-383.5 -141.5 q-97 0 -183.5 25.5t-162 81t-130 137.5t-86 202t-31.5 267zM403 477q0 -112 82.5 -188t202.5 -76q124 0 201.5 72t77.5 190q0 112 -78.5 184t-200.5 72t-203.5 -72t-81.5 -182z" />
<glyph unicode="7" horiz-adv-x="1222" d="M88 1188v246h1042v-197l-614 -1237h-303l592 1188h-717z" />
<glyph unicode="8" horiz-adv-x="1341" d="M92 393q0 132 71 221t189 121q-100 34 -158.5 118t-58.5 196q0 177 145.5 293t389.5 116q245 0 390.5 -115.5t145.5 -293.5q0 -112 -58.5 -196t-158.5 -118q118 -32 189 -121t71 -221q0 -187 -159.5 -302.5t-419.5 -115.5q-258 0 -418 115.5t-160 302.5zM371 414 q0 -93 79.5 -147t219.5 -54q141 0 221 54t80 147q0 88 -81.5 142t-219.5 54t-218.5 -53.5t-80.5 -142.5zM412 1026q0 -84 69 -137t189 -53q122 0 191 53t69 137q0 92 -73.5 145.5t-186.5 53.5t-185.5 -53.5t-72.5 -145.5z" />
<glyph unicode="9" horiz-adv-x="1327" d="M88 950q0 225 152 366.5t385 141.5q122 0 226.5 -41.5t188 -125t131.5 -223.5t48 -323q0 -121 -19.5 -230.5t-65 -209.5t-113.5 -172t-171 -115t-232 -43q-104 0 -194 35t-149.5 91.5t-96 123t-45.5 133.5h264q14 -63 77 -104t151 -41q276 0 309 391q-116 -125 -346 -125 q-213 0 -356.5 135.5t-143.5 335.5zM358 958q0 -112 79 -184t202 -72q121 0 203 72.5t82 181.5q0 112 -83 188.5t-202 76.5q-125 0 -203 -72.5t-78 -190.5z" />
<glyph unicode=":" horiz-adv-x="575" d="M117 158q0 72 48.5 121t123.5 49q73 0 121.5 -49t48.5 -121t-48.5 -121t-121.5 -49q-75 0 -123.5 49t-48.5 121zM117 762q0 72 48.5 121t123.5 49q73 0 121.5 -49t48.5 -121t-48.5 -121t-121.5 -49q-75 0 -123.5 49t-48.5 121z" />
<glyph unicode=";" horiz-adv-x="575" d="M70 -276l80 591h292l-166 -591h-206zM117 762q0 72 48.5 121t123.5 49q73 0 121.5 -49t48.5 -121t-48.5 -121t-121.5 -49q-75 0 -123.5 49t-48.5 121z" />
<glyph unicode="&#x3c;" horiz-adv-x="1261" d="M205 397v217l837 402v-258l-546 -252l546 -252v-258z" />
<glyph unicode="=" horiz-adv-x="1261" d="M182 201v207h899v-207h-899zM182 612v209h899v-209h-899z" />
<glyph unicode="&#x3e;" horiz-adv-x="1261" d="M221 -4v258l545 252l-545 252v258l838 -402v-217z" />
<glyph unicode="?" horiz-adv-x="1241" d="M70 971q3 79 23 148.5t62.5 132.5t104.5 108t154.5 71.5t206.5 26.5q121 0 220 -34t164 -92.5t100.5 -136.5t35.5 -167q0 -69 -23.5 -129t-60.5 -102.5t-88.5 -78.5t-102 -58t-106.5 -39l-12 -162h-213l-19 278q68 16 126 38.5t109 55t80 78t29 99.5q0 94 -64.5 149 t-181.5 55q-254 0 -270 -241h-274zM467 158q0 72 49.5 121t122.5 49t122.5 -49t49.5 -121t-49.5 -121t-122.5 -49t-122.5 49t-49.5 121z" />
<glyph unicode="@" horiz-adv-x="1968" d="M109 485q0 179 67 336.5t183.5 271t281 179t352.5 65.5q192 0 355 -60.5t275 -166.5t174.5 -254t62.5 -319q0 -207 -108 -336t-271 -129q-85 0 -150 42t-100 113q-48 -68 -118.5 -107.5t-156.5 -39.5q-164 0 -273.5 117.5t-109.5 296.5q0 176 110 293.5t273 117.5 q134 0 232 -98v82h201v-469q0 -162 96 -162q69 0 110 72.5t41 206.5q0 278 -172.5 440t-470.5 162q-143 0 -266 -48.5t-210 -134t-136 -207.5t-49 -264q0 -184 81.5 -330t228.5 -228.5t333 -82.5q234 0 407 66v-195q-163 -69 -407 -69q-185 0 -346.5 65.5t-275 178t-179 267 t-65.5 328.5zM801 492q0 -97 53 -155t139 -58q82 0 137.5 58.5t55.5 154.5t-55.5 154.5t-137.5 58.5q-86 0 -139 -58t-53 -155z" />
<glyph unicode="A" horiz-adv-x="1554" d="M27 0l616 1436h270l615 -1436h-293l-131 322h-655l-132 -322h-290zM553 580h444l-221 544z" />
<glyph unicode="B" horiz-adv-x="1439" d="M147 0v1434h644q249 0 383.5 -104.5t134.5 -282.5q0 -118 -58.5 -201.5t-150.5 -112.5q110 -20 181 -112t71 -218q0 -190 -137.5 -296.5t-393.5 -106.5h-674zM432 248h369q132 0 195 41t63 133q0 91 -64 132.5t-200 41.5h-363v-348zM432 846h336q123 0 186.5 41t63.5 135 q0 86 -60 125t-182 39h-344v-340z" />
<glyph unicode="C" horiz-adv-x="1677" d="M111 717q0 154 58 291t158.5 236t240.5 156.5t298 57.5q275 0 474.5 -152t236.5 -393h-293q-40 127 -145.5 203t-268.5 76q-203 0 -335 -133.5t-132 -341.5t132 -341.5t335 -133.5q163 0 268.5 75.5t145.5 202.5h293q-37 -241 -236.5 -393t-474.5 -152q-158 0 -298 58 t-240.5 157t-158.5 236t-58 291z" />
<glyph unicode="D" horiz-adv-x="1544" d="M147 0v1434h541q160 0 299.5 -55.5t237 -151.5t153.5 -228.5t56 -281.5t-56 -281.5t-153.5 -228.5t-237 -151.5t-299.5 -55.5h-541zM432 258h246q208 0 336.5 129.5t128.5 329.5t-128.5 329.5t-336.5 129.5h-246v-918z" />
<glyph unicode="E" horiz-adv-x="1320" d="M147 0v1434h1055v-254h-770v-332h719v-254h-719v-340h780v-254h-1065z" />
<glyph unicode="F" horiz-adv-x="1280" d="M147 0v1434h1049v-258h-764v-381h703v-258h-703v-537h-285z" />
<glyph unicode="G" horiz-adv-x="1687" d="M111 717q0 154 58 291t158 236t239.5 156.5t295.5 57.5q169 0 314.5 -62.5t243 -176.5t130.5 -261h-299q-45 109 -141.5 173.5t-241.5 64.5q-202 0 -333.5 -135t-131.5 -344t129.5 -344t329.5 -135q175 0 293 92.5t135 238.5h-432v240h711q10 -56 10 -123 q0 -136 -38.5 -252.5t-106 -200t-159 -142.5t-197 -87.5t-220.5 -28.5q-156 0 -295 58t-238 157t-156.5 236t-57.5 291z" />
<glyph unicode="H" horiz-adv-x="1550" d="M147 0v1434h285v-582h686v582h285v-1434h-285v590h-686v-590h-285z" />
<glyph unicode="I" horiz-adv-x="583" d="M150 0v1434h284v-1434h-284z" />
<glyph unicode="J" horiz-adv-x="1239" d="M55 436h277q24 -194 235 -194q248 0 248 301v891h285v-916q0 -261 -144 -402t-383 -141q-122 0 -218.5 36t-159 99.5t-97.5 146t-43 179.5z" />
<glyph unicode="K" horiz-adv-x="1456" d="M147 0v1434h285v-682l639 682h348l-598 -635l629 -799h-344l-471 602l-203 -215v-387h-285z" />
<glyph unicode="L" horiz-adv-x="1226" d="M147 0v1434h285v-1176h735v-258h-1020z" />
<glyph unicode="M" horiz-adv-x="1882" d="M147 0v1436h279l518 -887l516 887h273v-1436h-283v958l-403 -702h-211l-408 709v-965h-281z" />
<glyph unicode="N" horiz-adv-x="1579" d="M147 0v1436h267l737 -987v985h279v-1436h-267l-735 987v-985h-281z" />
<glyph unicode="O" horiz-adv-x="1726" d="M111 717q0 205 99.5 375t272.5 268t381 98q155 0 294.5 -57.5t239.5 -156.5t159 -236.5t59 -290.5t-59 -291t-159 -236.5t-239.5 -156.5t-294.5 -58q-156 0 -295.5 58t-240 156.5t-159 236.5t-58.5 291zM403 717q0 -205 133.5 -340t327.5 -135q126 0 231 60.5t166.5 170 t61.5 244.5t-61.5 244.5t-166.5 170t-231 60.5q-194 0 -327.5 -135t-133.5 -340z" />
<glyph unicode="P" horiz-adv-x="1415" d="M147 0v1434h635q259 0 401 -131.5t142 -350.5q0 -220 -142 -351t-401 -132h-350v-469h-285zM432 723h322q137 0 208.5 58t71.5 171q0 110 -72 169t-208 59h-322v-457z" />
<glyph unicode="Q" horiz-adv-x="1734" d="M111 729q0 150 59 285t159 232.5t240 154.5t295 57q154 0 294 -57t240 -153.5t159 -229t59 -277.5q0 -295 -213 -495h235v-246h-774q-155 0 -295 57t-240 154.5t-159 232.5t-59 285zM403 729q0 -197 134 -330t327 -133q126 0 231 60t166.5 167t61.5 236 q0 198 -133.5 330.5t-325.5 132.5q-194 0 -327.5 -132.5t-133.5 -330.5z" />
<glyph unicode="R" horiz-adv-x="1439" d="M147 0v1434h646q262 0 404 -130.5t142 -345.5q0 -171 -98 -292.5t-280 -163.5l387 -502h-320l-371 481h-225v-481h-285zM432 733h334q139 0 212 58t73 167q0 107 -73.5 165.5t-211.5 58.5h-334v-449z" />
<glyph unicode="S" horiz-adv-x="1304" d="M80 403h276q11 -85 90.5 -130.5t217.5 -45.5q125 0 197.5 46.5t72.5 129.5q0 72 -55 116.5t-183 68.5l-159 33q-431 83 -431 417q0 193 139.5 305.5t391.5 112.5q242 0 382 -108.5t159 -294.5h-275q-13 73 -83 113t-181 40q-117 0 -182.5 -43t-65.5 -125q0 -76 60.5 -116 t197.5 -66l162 -33q214 -42 312 -141t98 -262q0 -215 -151 -329t-408 -114t-411 113t-171 313z" />
<glyph unicode="T" horiz-adv-x="1255" d="M43 1176v258h1169v-258h-442v-1176h-285v1176h-442z" />
<glyph unicode="U" horiz-adv-x="1527" d="M141 586v848h287v-816q0 -194 88.5 -287t249.5 -93t249.5 93t88.5 287v816h282v-848q0 -150 -48 -268t-133 -192t-197 -112.5t-244 -38.5t-244.5 38.5t-197.5 112.5t-133 192t-48 268z" />
<glyph unicode="V" horiz-adv-x="1517" d="M27 1434h313l422 -1065l426 1065h303l-592 -1436h-281z" />
<glyph unicode="W" horiz-adv-x="2283" d="M43 1434h301l330 -1028l336 1028h272l332 -1035l340 1035h287l-484 -1436h-291l-325 1032l-328 -1032h-287z" />
<glyph unicode="X" horiz-adv-x="1482" d="M33 0l530 723l-518 711h342l358 -502l359 502h334l-518 -707l530 -727h-340l-373 518l-372 -518h-332z" />
<glyph unicode="Y" horiz-adv-x="1454" d="M16 1434h324l387 -635l391 635h322l-572 -906v-528h-282v526z" />
<glyph unicode="Z" horiz-adv-x="1380" d="M102 0v201l775 979h-768v254h1157v-201l-772 -979h780v-254h-1172z" />
<glyph unicode="[" horiz-adv-x="823" d="M160 -391v1927h596v-242h-318v-1444h318v-241h-596z" />
<glyph unicode="\" horiz-adv-x="1110" d="M-23 1638h269l887 -1843h-267z" />
<glyph unicode="]" horiz-adv-x="823" d="M68 -150h319v1444h-319v242h598v-1927h-598v241z" />
<glyph unicode="^" horiz-adv-x="1247" d="M80 696l409 738h269l409 -738h-301l-243 461l-242 -461h-301z" />
<glyph unicode="_" horiz-adv-x="886" d="M0 -100h887v-176h-887v176z" />
<glyph unicode="`" horiz-adv-x="1024" d="M203 1298l176 172l268 -331l-108 -109z" />
<glyph unicode="a" d="M70 457q0 204 124 342.5t312 138.5q174 0 282 -127v102h246v-913h-246v102q-109 -125 -280 -125q-189 0 -313.5 138.5t-124.5 341.5zM332 457q0 -114 63 -185t158 -71q99 0 164 71t65 185t-65 185t-164 71q-95 0 -158 -71t-63 -185z" />
<glyph unicode="b" d="M119 0v1434h254v-613q104 117 272 117q189 0 313.5 -138.5t124.5 -342.5q0 -203 -125 -341.5t-315 -138.5q-176 0 -281 127v-104h-243zM371 457q0 -115 64.5 -185.5t164.5 -70.5q95 0 158 70.5t63 185.5t-63 185.5t-158 70.5q-100 0 -164.5 -70.5t-64.5 -185.5z" />
<glyph unicode="c" horiz-adv-x="1081" d="M70 457q0 202 138.5 341.5t344.5 139.5q105 0 192 -32.5t142.5 -87t88 -119t40.5 -134.5h-254q-40 142 -205 142q-98 0 -161.5 -69t-63.5 -181t63.5 -181t161.5 -69q164 0 205 141h254q-8 -69 -40.5 -133.5t-88 -118.5t-142.5 -86.5t-192 -32.5q-206 0 -344.5 139 t-138.5 341z" />
<glyph unicode="d" d="M70 457q0 204 124 342.5t312 138.5q166 0 274 -117v613h254v-1434h-246v102q-109 -125 -280 -125q-189 0 -313.5 138.5t-124.5 341.5zM332 457q0 -115 63 -185.5t158 -70.5q100 0 164.5 70.5t64.5 185.5t-64.5 185.5t-164.5 70.5q-95 0 -158 -70.5t-63 -185.5z" />
<glyph unicode="e" horiz-adv-x="1075" d="M70 457q0 131 61.5 241.5t170 175t239.5 64.5q197 0 333 -136.5t136 -330.5q0 -59 -6 -96h-674q20 -88 80.5 -138.5t146.5 -50.5q73 0 122 28t66 79h244q-29 -138 -145 -227t-301 -89q-132 0 -240.5 63.5t-170.5 173.5t-62 243zM330 543h426q-15 85 -72 134.5t-133 49.5 q-85 0 -142.5 -49.5t-78.5 -134.5z" />
<glyph unicode="f" horiz-adv-x="753" d="M43 690v223h160v123q0 416 360 416q101 0 178 -22v-218q-52 9 -118 9q-87 0 -126.5 -52t-39.5 -161v-95h256v-223h-256v-690h-254v690h-160z" />
<glyph unicode="g" d="M70 469q0 128 56 235.5t156.5 170.5t223.5 63q171 0 282 -127v102h246v-901q0 -202 -128 -325t-345 -123q-106 0 -193 29t-142 78.5t-86.5 109t-37.5 125.5h250q16 -125 205 -125q122 0 178 60t56 194v94q-108 -127 -285 -127q-123 0 -223.5 63t-156.5 170t-56 234z M328 469q0 -105 64.5 -175.5t158.5 -70.5q98 0 164.5 70.5t66.5 175.5t-66.5 175.5t-164.5 70.5q-94 0 -158.5 -70.5t-64.5 -175.5z" />
<glyph unicode="h" horiz-adv-x="1122" d="M119 0v1434h254v-615q45 54 117.5 86.5t162.5 32.5q164 0 261.5 -104.5t97.5 -272.5v-561h-254v496q0 98 -48.5 154.5t-136.5 56.5q-91 0 -145.5 -61t-54.5 -161v-485h-254z" />
<glyph unicode="i" horiz-adv-x="493" d="M92 1210q0 66 43.5 110t110.5 44q68 0 110.5 -43.5t42.5 -110.5q0 -68 -42.5 -111.5t-110.5 -43.5q-67 0 -110.5 43.5t-43.5 111.5zM119 0v913h254v-913h-254z" />
<glyph unicode="j" horiz-adv-x="497" d="M-78 -215q38 -6 78 -6q66 0 95.5 35t29.5 114v985h254v-1013q0 -355 -311 -355q-63 0 -146 17v223zM98 1210q0 66 43.5 110t110.5 44t110.5 -44t43.5 -110q0 -68 -43.5 -111.5t-110.5 -43.5t-110.5 43.5t-43.5 111.5z" />
<glyph unicode="k" horiz-adv-x="1054" d="M119 0v1434h254v-859l350 338h324l-410 -389l414 -524h-301l-285 362l-92 -88v-274h-254z" />
<glyph unicode="l" horiz-adv-x="493" d="M119 0v1434h254v-1434h-254z" />
<glyph unicode="m" horiz-adv-x="1736" d="M119 0v913h243v-108q43 60 118.5 96.5t168.5 36.5q96 0 174.5 -42t124.5 -116q51 76 139 117t189 41q159 0 255.5 -105t96.5 -272v-561h-254v496q0 97 -47.5 154t-130.5 57q-87 0 -142 -61.5t-55 -160.5v-485h-254v496q0 97 -47.5 154t-128.5 57q-87 0 -141.5 -61.5 t-54.5 -160.5v-485h-254z" />
<glyph unicode="n" horiz-adv-x="1122" d="M119 0v913h243v-108q43 60 119 96.5t172 36.5q164 0 261.5 -104.5t97.5 -272.5v-561h-254v496q0 98 -48.5 154.5t-136.5 56.5q-91 0 -145.5 -61t-54.5 -161v-485h-254z" />
<glyph unicode="o" horiz-adv-x="1114" d="M70 457q0 201 141.5 341t345.5 140q133 0 245 -64t177 -174.5t65 -242.5t-65 -242.5t-177 -174t-245 -63.5q-204 0 -345.5 139.5t-141.5 340.5zM332 457q0 -112 64 -182t161 -70t161 70t64 182t-64 182t-161 70t-161 -70t-64 -182z" />
<glyph unicode="p" d="M119 -442v1355h243v-104q106 129 283 129q189 0 313.5 -138.5t124.5 -342.5q0 -203 -125 -341.5t-315 -138.5q-167 0 -270 115v-534h-254zM371 457q0 -115 64.5 -185.5t164.5 -70.5q95 0 158 70.5t63 185.5t-63 185.5t-158 70.5q-100 0 -164.5 -70.5t-64.5 -185.5z" />
<glyph unicode="q" d="M70 457q0 204 124 342.5t312 138.5q174 0 282 -127v102h246v-1355h-254v534q-109 -115 -272 -115q-189 0 -313.5 138.5t-124.5 341.5zM332 457q0 -115 63 -185.5t158 -70.5q100 0 164.5 70.5t64.5 185.5t-64.5 185.5t-164.5 70.5q-95 0 -158 -70.5t-63 -185.5z" />
<glyph unicode="r" horiz-adv-x="757" d="M119 0v913h243v-141q40 69 113.5 109.5t171.5 40.5q39 0 70 -7v-237q-36 4 -90 4q-119 0 -186.5 -77t-67.5 -204v-401h-254z" />
<glyph unicode="s" horiz-adv-x="862" d="M45 272h234q4 -46 44.5 -71t106.5 -25q60 0 97.5 20.5t37.5 63.5q0 42 -27 61.5t-112 34.5l-80 17q-141 25 -212 96.5t-71 185.5q0 129 99 205t258 76q185 0 275 -79.5t102 -207.5h-232q-5 40 -39 64t-90 24q-54 0 -88.5 -21.5t-34.5 -58.5q0 -46 34.5 -65t115.5 -33 l80 -12q274 -45 274 -283q0 -135 -102.5 -211t-282.5 -76q-177 0 -276.5 82t-110.5 213z" />
<glyph unicode="t" horiz-adv-x="833" d="M43 690v223h174v277h246v-277h297v-223h-297v-330q0 -84 37.5 -116.5t122.5 -32.5q76 0 143 18v-219q-86 -28 -199 -28q-174 0 -266 76.5t-92 260.5v371h-166z" />
<glyph unicode="u" horiz-adv-x="1118" d="M111 352v561h254v-493q0 -100 46.5 -156.5t133.5 -56.5q92 0 146 60.5t54 160.5v485h254v-913h-245v106q-43 -59 -118.5 -94t-170.5 -35q-163 0 -258.5 104t-95.5 271z" />
<glyph unicode="v" horiz-adv-x="1060" d="M23 913h278l231 -612l238 612h268l-385 -915h-245z" />
<glyph unicode="w" horiz-adv-x="1648" d="M33 913h276l201 -581l219 581h232l196 -579l213 579h246l-346 -915h-240l-205 592l-213 -592h-235z" />
<glyph unicode="x" horiz-adv-x="1060" d="M31 0l348 463l-338 450h295l196 -278l199 278h291l-340 -450l348 -463h-295l-207 289l-206 -289h-291z" />
<glyph unicode="y" horiz-adv-x="1052" d="M25 913h282l228 -499l221 499h274l-624 -1355h-275l270 577z" />
<glyph unicode="z" horiz-adv-x="983" d="M80 0v174l461 516h-441v223h801v-174l-461 -514h463v-225h-823z" />
<glyph unicode="{" horiz-adv-x="919" d="M84 461v241q113 0 165.5 63.5t43.5 180.5l-10 129q-6 117 14 200.5t72.5 143t143 88.5t222.5 29h115v-242h-96q-108 0 -152 -50t-41 -161l8 -131q18 -313 -184 -370q202 -57 184 -371l-8 -131q-3 -111 41 -161t152 -50h96v-242h-115q-132 0 -222.5 29t-143 88.5 t-72.5 143t-14 200.5l10 129q9 117 -43.5 180.5t-165.5 63.5z" />
<glyph unicode="|" horiz-adv-x="677" d="M205 -336v1770h270v-1770h-270z" />
<glyph unicode="}" horiz-adv-x="919" d="M70 -131h94q110 0 153.5 50t40.5 161l-8 131q-18 314 185 371q-203 57 -185 370l8 131q3 111 -40.5 161t-153.5 50h-94v242h114q132 0 223 -29t143.5 -88.5t72.5 -143t14 -200.5l-10 -129q-9 -117 43.5 -180.5t165.5 -63.5v-241q-113 0 -165.5 -63.5t-43.5 -180.5 l10 -129q6 -117 -14 -200.5t-72.5 -143t-143.5 -88.5t-223 -29h-114v242z" />
<glyph unicode="~" horiz-adv-x="1024" d="M102 358q15 120 70 195.5t154 75.5q76 0 184 -49q7 -3 33 -15t37.5 -16t32 -9t38.5 -5q86 0 107 96l164 -25q-15 -119 -70 -194.5t-154 -75.5q-76 0 -184 49q-7 3 -33 15t-37.5 16t-32 9t-38.5 5q-86 0 -107 -96z" />
<glyph unicode="&#xa1;" horiz-adv-x="608" d="M133 758q0 71 48.5 120.5t121.5 49.5q74 0 123 -49.5t49 -120.5q0 -72 -48.5 -121t-123.5 -49q-73 0 -121.5 49t-48.5 121zM156 -346q0 409 53 801h190q52 -411 52 -801v-174h-295v174z" />
<glyph unicode="&#xa2;" horiz-adv-x="1353" d="M199 457q0 177 109 308t282 163v188h211v-188q83 -14 150.5 -51t111 -87t69.5 -107.5t33 -117.5h-254q-40 142 -215 142q-104 0 -169.5 -68.5t-65.5 -181.5t65.5 -181.5t169.5 -68.5q174 0 215 141h254q-15 -128 -108.5 -230t-255.5 -130v-193h-211v193 q-174 32 -282.5 162t-108.5 307z" />
<glyph unicode="&#xa3;" horiz-adv-x="1353" d="M82 0v246h156v329h-156v236h156v92q0 157 59 281t180 199t287 75q102 0 185 -25.5t139.5 -69t96 -103.5t58.5 -126t23 -139h-269q-6 98 -62 157.5t-165 59.5q-258 0 -258 -325v-76h426v-236h-426v-329h760v-246h-1190z" />
<glyph unicode="&#xa4;" horiz-adv-x="1331" d="M195 348l118 119q-77 110 -77 250q0 138 77 248l-118 120l100 101l119 -121q118 80 252 80q135 0 249 -80l121 121l101 -101l-121 -120q80 -110 80 -248q0 -140 -80 -250l121 -119l-101 -100l-121 119q-111 -78 -249 -78q-137 0 -252 78l-119 -119zM373 717 q0 -133 84 -221t209 -88t208.5 88t83.5 221t-83.5 221t-208.5 88t-209 -88t-84 -221z" />
<glyph unicode="&#xa5;" horiz-adv-x="1353" d="M20 1434h314l344 -670l344 670h309l-358 -643h221v-218h-342l-33 -61v-53h375v-217h-375v-242h-284v242h-375v217h375v49l-37 65h-338v218h217z" />
<glyph unicode="&#xa6;" horiz-adv-x="677" d="M205 -336v715h270v-715h-270zM205 719v715h270v-715h-270z" />
<glyph unicode="&#xa7;" horiz-adv-x="1353" d="M152 545q0 95 51 168t145 116q-147 89 -147 269q0 167 123.5 263.5t345.5 96.5q228 0 346.5 -95t134.5 -257h-262q-22 125 -213 125q-95 0 -146 -34t-51 -97q0 -60 50.5 -91.5t154.5 -50.5l147 -32q180 -31 274.5 -122t94.5 -231q0 -199 -182 -286q139 -92 139 -269 q0 -173 -132 -272.5t-363 -99.5t-360.5 97.5t-141.5 264.5h266q15 -137 236 -137q104 0 160.5 35.5t56.5 103.5q0 55 -38.5 85.5t-125.5 49.5l-144 35q-419 85 -419 365zM430 563q0 -77 55 -115.5t174 -58.5l52 -10q101 8 157 51.5t56 116.5q0 129 -185 168l-94 20 q-97 -8 -156 -54.5t-59 -117.5z" />
<glyph unicode="&#xa8;" horiz-adv-x="1024" d="M141 1202q0 66 43.5 110t110.5 44t110.5 -44t43.5 -110q0 -67 -43 -110t-111 -43t-111 43t-43 110zM575 1202q0 66 43.5 110t110.5 44t110.5 -44t43.5 -110q0 -67 -43 -110t-111 -43t-111 43t-43 110z" />
<glyph unicode="&#xa9;" horiz-adv-x="1695" d="M96 717q0 152 59.5 289.5t160 236t240 157t292.5 58.5t292.5 -58.5t241 -157t161 -236t59.5 -289.5t-60 -289.5t-161 -236.5t-240.5 -157.5t-292.5 -58.5t-292.5 58.5t-240 157.5t-160 236.5t-59.5 289.5zM301 717q0 -152 72 -278t197.5 -198.5t277.5 -72.5t277.5 72.5 t197.5 198.5t72 278t-72 278t-197.5 198.5t-277.5 72.5t-277.5 -72.5t-197.5 -198.5t-72 -278zM471 717q0 164 110.5 274.5t274.5 110.5q160 0 256.5 -89t108.5 -208h-207q-11 48 -50 78t-104 30q-80 0 -130 -53.5t-50 -142.5q0 -87 50 -141t130 -54q66 0 105.5 30t50.5 79 h207q-5 -56 -31 -108t-70 -95t-113 -68.5t-153 -25.5q-164 0 -274.5 110t-110.5 273z" />
<glyph unicode="&#xaa;" horiz-adv-x="974" d="M55 1042q0 173 108.5 291.5t266.5 118.5q147 0 238 -115v97h215v-783h-215v94q-91 -112 -238 -112q-158 0 -266.5 118t-108.5 291zM289 1042q0 -92 52.5 -150t135.5 -58q81 0 135 58.5t54 149.5q0 92 -54 149.5t-135 57.5q-84 0 -136 -57t-52 -150z" />
<glyph unicode="&#xab;" horiz-adv-x="1085" d="M68 465l219 389h264l-219 -389l219 -387h-264zM526 465l219 389h265l-219 -389l219 -387h-265z" />
<glyph unicode="&#xac;" horiz-adv-x="1150" d="M72 629v227h960v-573h-258v346h-702z" />
<glyph unicode="&#xad;" horiz-adv-x="817" d="M82 340v229h657v-229h-657z" />
<glyph unicode="&#xae;" horiz-adv-x="1026" d="M59 1014q0 187 132 316.5t323 129.5t322 -129.5t131 -316.5q0 -185 -131 -315t-322 -130t-323 130t-132 315zM184 1014q0 -141 95 -236.5t235 -95.5t235 95.5t95 236.5t-95 236.5t-235 95.5t-235 -95.5t-95 -236.5zM344 809v416h201q80 0 125 -39t45 -103 q0 -45 -26 -79.5t-73 -51.5l101 -143h-127l-92 133h-33v-133h-121zM465 1036h74q57 0 57 45q0 47 -57 47h-74v-92z" />
<glyph unicode="&#xaf;" horiz-adv-x="1024" d="M170 1065v199h684v-199h-684z" />
<glyph unicode="&#xb0;" horiz-adv-x="802" d="M59 1118q0 141 100 240.5t242 99.5t242 -99.5t100 -240.5q0 -140 -100 -239t-242 -99t-242 99t-100 239zM238 1118q0 -74 46.5 -122t116.5 -48q71 0 118.5 48.5t47.5 121.5q0 74 -47.5 122t-118.5 48t-117 -47.5t-46 -122.5z" />
<glyph unicode="&#xb1;" horiz-adv-x="1261" d="M182 0v186h899v-186h-899zM182 553v209h340v278h219v-278h340v-209h-340v-279h-219v279h-340z" />
<glyph unicode="&#xb2;" horiz-adv-x="821" d="M76 1532q6 138 87.5 220.5t250.5 82.5q144 0 227.5 -75t83.5 -185q0 -83 -41.5 -144t-122.5 -116l-110 -82h294v-184h-655v145l307 215q62 42 90.5 76.5t28.5 75.5q0 40 -31 64t-82 24q-118 0 -124 -117h-203z" />
<glyph unicode="&#xb3;" horiz-adv-x="821" d="M68 1321h198q5 -54 37.5 -81.5t102.5 -27.5q122 0 122 84q0 76 -98 76h-68v144h68q82 0 82 63q0 76 -113 76q-118 0 -125 -105h-198q6 133 91.5 209t242.5 76q134 0 223.5 -60.5t89.5 -168.5q0 -60 -26.5 -100.5t-65.5 -55.5q49 -15 80.5 -58.5t31.5 -115.5 q0 -108 -90.5 -176t-230.5 -68q-335 0 -354 289z" />
<glyph unicode="&#xb4;" horiz-adv-x="1024" d="M377 1139l268 331l176 -172l-336 -268z" />
<glyph unicode="&#xb5;" horiz-adv-x="1124" d="M119 -440v1353h254v-497q0 -99 47.5 -154t132.5 -55q92 0 146.5 60.5t54.5 160.5v485h254v-913h-246v109q-41 -61 -103.5 -96.5t-126.5 -35.5q-102 0 -159 54v-471h-254z" />
<glyph unicode="&#xb6;" horiz-adv-x="1234" d="M76 903q0 230 150 380.5t368 150.5h580v-224h-158q-71 0 -98 -28t-27 -99v-1173q0 -174 -80.5 -270.5t-243.5 -96.5q-91 0 -188 19v229q50 -8 102 -8q76 0 109 37t33 125v426h-29q-218 0 -368 151t-150 381z" />
<glyph unicode="&#xb7;" horiz-adv-x="542" d="M100 457q0 73 49 121.5t123 48.5q73 0 121.5 -49t48.5 -121q0 -71 -48.5 -120.5t-121.5 -49.5q-74 0 -123 49.5t-49 120.5z" />
<glyph unicode="&#xb8;" horiz-adv-x="1024" d="M330 -330l123 334h213l-95 -334h-241z" />
<glyph unicode="&#xb9;" horiz-adv-x="821" d="M139 1726l277 93h174v-770h-209v555l-188 -58z" />
<glyph unicode="&#xba;" horiz-adv-x="950" d="M55 1042q0 173 122.5 291.5t297.5 118.5q177 0 298.5 -118.5t121.5 -291.5t-121.5 -291t-298.5 -118q-175 0 -297.5 118t-122.5 291zM289 1042q0 -92 53.5 -150t132.5 -58q81 0 134 57.5t53 150.5q0 92 -53 149.5t-134 57.5q-79 0 -132.5 -57.5t-53.5 -149.5z" />
<glyph unicode="&#xbb;" horiz-adv-x="1085" d="M76 78l219 387l-219 389h264l219 -389l-219 -387h-264zM535 78l219 387l-219 389h264l219 -389l-219 -387h-264z" />
<glyph unicode="&#xbc;" horiz-adv-x="1931" d="M139 1341l277 93h174v-770h-209v555l-188 -58zM465 0l856 1434h250l-858 -1434h-248zM1163 143v154l434 473h181v-446h118v-181h-118v-143h-207v143h-408zM1384 324h189v200z" />
<glyph unicode="&#xbd;" horiz-adv-x="1931" d="M139 1341l277 93h174v-770h-209v555l-188 -58zM393 0l856 1434h250l-858 -1434h-248zM1186 483q6 138 87.5 220.5t250.5 82.5q144 0 227.5 -75t83.5 -185q0 -83 -41.5 -144t-122.5 -116l-110 -82h294v-184h-655v145l307 215q62 42 90.5 76.5t28.5 75.5q0 40 -31 64 t-82 24q-118 0 -124 -117h-203z" />
<glyph unicode="&#xbe;" horiz-adv-x="1931" d="M68 936h198q5 -54 37.5 -81.5t102.5 -27.5q122 0 122 84q0 76 -98 76h-68v143h68q41 0 61.5 17.5t20.5 46.5q0 76 -113 76q-118 0 -125 -105h-198q6 133 91.5 209t242.5 76q134 0 223.5 -60.5t89.5 -168.5q0 -60 -26.5 -100.5t-65.5 -55.5q49 -15 80.5 -58.5t31.5 -115.5 q0 -108 -90.5 -176t-230.5 -68q-335 0 -354 289zM483 0l856 1434h250l-858 -1434h-248zM1163 143v154l434 473h181v-446h118v-181h-118v-143h-207v143h-408zM1384 324h189v200z" />
<glyph unicode="&#xbf;" horiz-adv-x="1232" d="M100 -113q0 68 23.5 127.5t60.5 102.5t88.5 78.5t102 58.5t106.5 39l15 162h211l18 -277q-93 -21 -166 -54t-125.5 -89.5t-52.5 -126.5q0 -94 65 -150.5t181 -56.5q254 0 270 242h277q-4 -79 -24 -148.5t-62.5 -132.5t-104.5 -108.5t-154.5 -72t-207.5 -26.5 q-240 0 -380.5 123.5t-140.5 308.5zM432 758q0 71 48.5 120.5t121.5 49.5q74 0 123 -49.5t49 -120.5q0 -72 -49 -121t-123 -49q-73 0 -121.5 49t-48.5 121z" />
<glyph unicode="&#xc0;" horiz-adv-x="1554" d="M27 0l616 1436h270l615 -1436h-293l-131 322h-655l-132 -322h-290zM457 1784l176 174l252 -318l-109 -108zM553 580h444l-221 544z" />
<glyph unicode="&#xc1;" horiz-adv-x="1554" d="M27 0l616 1436h270l615 -1436h-293l-131 322h-655l-132 -322h-290zM553 580h444l-221 544zM668 1640l252 318l176 -174l-320 -252z" />
<glyph unicode="&#xc2;" horiz-adv-x="1554" d="M27 0l616 1436h270l615 -1436h-293l-131 322h-655l-132 -322h-290zM395 1540l250 322h262l250 -322h-235l-146 150l-145 -150h-236zM553 580h444l-221 544z" />
<glyph unicode="&#xc3;" horiz-adv-x="1554" d="M27 0l616 1436h270l615 -1436h-293l-131 322h-655l-132 -322h-290zM408 1565q21 104 76 171.5t149 67.5q54 0 141.5 -39t122.5 -39q66 0 90 74l158 -28q-21 -105 -75.5 -172.5t-149.5 -67.5q-54 0 -141.5 39t-123.5 39q-66 0 -88 -74zM553 580h444l-221 544z" />
<glyph unicode="&#xc4;" horiz-adv-x="1554" d="M27 0l616 1436h270l615 -1436h-293l-131 322h-655l-132 -322h-290zM395 1677q0 67 42.5 110.5t109.5 43.5t110 -44t43 -110q0 -67 -43 -110t-110 -43t-109.5 42.5t-42.5 110.5zM553 580h444l-221 544zM852 1677q0 66 43.5 110t110.5 44t109 -43.5t42 -110.5 q0 -68 -42 -110.5t-109 -42.5q-68 0 -111 43t-43 110z" />
<glyph unicode="&#xc5;" horiz-adv-x="1554" d="M27 0l616 1436h270l615 -1436h-293l-131 322h-655l-132 -322h-290zM532 1769q0 99 71 168.5t173 69.5q103 0 173.5 -69.5t70.5 -168.5q0 -101 -70 -169t-174 -68q-103 0 -173.5 68t-70.5 169zM553 580h444l-221 544zM670 1769q0 -47 30 -77.5t76 -30.5t77.5 30.5 t31.5 77.5q0 46 -31.5 76.5t-77.5 30.5t-76 -30.5t-30 -76.5z" />
<glyph unicode="&#xc6;" horiz-adv-x="2301" d="M14 0l996 1434h1173v-254h-770v-332h719v-254h-719v-340h780v-254h-1063v324h-579l-221 -324h-316zM721 571h409v598z" />
<glyph unicode="&#xc7;" horiz-adv-x="1677" d="M111 717q0 154 58 291t158.5 236t240.5 156.5t298 57.5q275 0 474.5 -152t236.5 -393h-293q-40 127 -145.5 203t-268.5 76q-203 0 -335 -133.5t-132 -341.5t132 -341.5t335 -133.5q163 0 268.5 75.5t145.5 202.5h293q-32 -212 -193.5 -356.5t-394.5 -177.5l-94 -328h-250 l117 324q-139 17 -259.5 81t-206.5 160t-135.5 224.5t-49.5 269.5z" />
<glyph unicode="&#xc8;" horiz-adv-x="1320" d="M147 0v1434h1055v-254h-770v-332h719v-254h-719v-340h780v-254h-1065zM383 1784l176 174l252 -318l-109 -108z" />
<glyph unicode="&#xc9;" horiz-adv-x="1320" d="M147 0v1434h1055v-254h-770v-332h719v-254h-719v-340h780v-254h-1065zM594 1640l252 318l176 -174l-320 -252z" />
<glyph unicode="&#xca;" horiz-adv-x="1320" d="M147 0v1434h1055v-254h-770v-332h719v-254h-719v-340h780v-254h-1065zM322 1540l249 322h263l249 -322h-235l-146 150l-145 -150h-235z" />
<glyph unicode="&#xcb;" horiz-adv-x="1320" d="M147 0v1434h1055v-254h-770v-332h719v-254h-719v-340h780v-254h-1065zM322 1677q0 67 42 110.5t109 43.5t110.5 -44t43.5 -110q0 -67 -43 -110t-111 -43q-67 0 -109 42.5t-42 110.5zM778 1677q0 66 43.5 110t110.5 44t109 -43.5t42 -110.5q0 -68 -42 -110.5t-109 -42.5 q-68 0 -111 43t-43 110z" />
<glyph unicode="&#xcc;" horiz-adv-x="583" d="M-27 1784l177 174l251 -318l-108 -108zM150 0v1434h284v-1434h-284z" />
<glyph unicode="&#xcd;" horiz-adv-x="583" d="M150 0v1434h284v-1434h-284zM182 1640l252 318l176 -174l-319 -252z" />
<glyph unicode="&#xce;" horiz-adv-x="583" d="M-90 1540l250 322h262l250 -322h-236l-145 150l-146 -150h-235zM150 0v1434h284v-1434h-284z" />
<glyph unicode="&#xcf;" horiz-adv-x="583" d="M-90 1677q0 67 42 110.5t109 43.5t110.5 -44t43.5 -110q0 -67 -43 -110t-111 -43q-67 0 -109 42.5t-42 110.5zM150 0v1434h284v-1434h-284zM367 1677q0 66 43 110t110 44t109.5 -43.5t42.5 -110.5q0 -68 -42.5 -110.5t-109.5 -42.5q-68 0 -110.5 43t-42.5 110z" />
<glyph unicode="&#xd0;" horiz-adv-x="1548" d="M16 616v205h136v613h540q160 0 299.5 -55.5t237 -151.5t153.5 -228.5t56 -281.5t-56 -281.5t-153.5 -228.5t-237 -151.5t-299.5 -55.5h-540v616h-136zM436 258h246q208 0 336.5 129.5t128.5 329.5t-128.5 329.5t-336.5 129.5h-246v-355h350v-205h-350v-358z" />
<glyph unicode="&#xd1;" horiz-adv-x="1579" d="M147 0v1436h267l737 -987v985h279v-1436h-267l-735 987v-985h-281zM420 1565q21 104 76 171.5t149 67.5q54 0 141.5 -39t122.5 -39q66 0 90 74l158 -28q-21 -105 -75.5 -172.5t-149.5 -67.5q-54 0 -141 39t-123 39q-66 0 -88 -74z" />
<glyph unicode="&#xd2;" horiz-adv-x="1726" d="M111 717q0 205 99.5 375t272.5 268t381 98q155 0 294.5 -57.5t239.5 -156.5t159 -236.5t59 -290.5t-59 -291t-159 -236.5t-239.5 -156.5t-294.5 -58q-156 0 -295.5 58t-240 156.5t-159 236.5t-58.5 291zM403 717q0 -205 133.5 -340t327.5 -135q126 0 231 60.5t166.5 170 t61.5 244.5t-61.5 244.5t-166.5 170t-231 60.5q-194 0 -327.5 -135t-133.5 -340zM545 1784l176 174l252 -318l-109 -108z" />
<glyph unicode="&#xd3;" horiz-adv-x="1726" d="M111 717q0 205 99.5 375t272.5 268t381 98q155 0 294.5 -57.5t239.5 -156.5t159 -236.5t59 -290.5t-59 -291t-159 -236.5t-239.5 -156.5t-294.5 -58q-156 0 -295.5 58t-240 156.5t-159 236.5t-58.5 291zM403 717q0 -205 133.5 -340t327.5 -135q126 0 231 60.5t166.5 170 t61.5 244.5t-61.5 244.5t-166.5 170t-231 60.5q-194 0 -327.5 -135t-133.5 -340zM754 1640l252 318l176 -174l-320 -252z" />
<glyph unicode="&#xd4;" horiz-adv-x="1726" d="M111 717q0 205 99.5 375t272.5 268t381 98q155 0 294.5 -57.5t239.5 -156.5t159 -236.5t59 -290.5t-59 -291t-159 -236.5t-239.5 -156.5t-294.5 -58q-156 0 -295.5 58t-240 156.5t-159 236.5t-58.5 291zM403 717q0 -205 133.5 -340t327.5 -135q126 0 231 60.5t166.5 170 t61.5 244.5t-61.5 244.5t-166.5 170t-231 60.5q-194 0 -327.5 -135t-133.5 -340zM483 1540l250 322h262l250 -322h-235l-146 150l-145 -150h-236z" />
<glyph unicode="&#xd5;" horiz-adv-x="1726" d="M111 717q0 205 99.5 375t272.5 268t381 98q155 0 294.5 -57.5t239.5 -156.5t159 -236.5t59 -290.5t-59 -291t-159 -236.5t-239.5 -156.5t-294.5 -58q-156 0 -295.5 58t-240 156.5t-159 236.5t-58.5 291zM403 717q0 -205 133.5 -340t327.5 -135q126 0 231 60.5t166.5 170 t61.5 244.5t-61.5 244.5t-166.5 170t-231 60.5q-194 0 -327.5 -135t-133.5 -340zM496 1565q21 104 76 171.5t149 67.5q54 0 141.5 -39t122.5 -39q66 0 90 74l158 -28q-21 -105 -75.5 -172.5t-149.5 -67.5q-54 0 -141.5 39t-123.5 39q-66 0 -88 -74z" />
<glyph unicode="&#xd6;" horiz-adv-x="1726" d="M111 717q0 205 99.5 375t272.5 268t381 98q155 0 294.5 -57.5t239.5 -156.5t159 -236.5t59 -290.5t-59 -291t-159 -236.5t-239.5 -156.5t-294.5 -58q-156 0 -295.5 58t-240 156.5t-159 236.5t-58.5 291zM403 717q0 -205 133.5 -340t327.5 -135q126 0 231 60.5t166.5 170 t61.5 244.5t-61.5 244.5t-166.5 170t-231 60.5q-194 0 -327.5 -135t-133.5 -340zM483 1677q0 67 42.5 110.5t109.5 43.5t110 -44t43 -110q0 -67 -43 -110t-110 -43t-109.5 42.5t-42.5 110.5zM940 1677q0 66 43.5 110t110.5 44t109 -43.5t42 -110.5q0 -68 -42 -110.5 t-109 -42.5q-68 0 -111 43t-43 110z" />
<glyph unicode="&#xd7;" horiz-adv-x="1261" d="M223 254l256 256l-256 256l152 149l256 -256l256 256l151 -149l-258 -256l258 -256l-151 -150l-256 254l-256 -254z" />
<glyph unicode="&#xd8;" horiz-adv-x="1734" d="M115 717q0 205 99.5 375t272.5 268t381 98q243 0 439 -137l129 135l151 -141l-129 -133q162 -202 162 -465q0 -153 -59 -291t-159 -236.5t-239.5 -156.5t-294.5 -58q-245 0 -440 136l-129 -134l-149 142l126 133q-161 197 -161 465zM408 717q0 -147 71 -264l639 665 q-113 74 -250 74q-194 0 -327 -135t-133 -340zM614 315q115 -73 254 -73q126 0 231 60.5t166.5 170t61.5 244.5q0 147 -74 264z" />
<glyph unicode="&#xd9;" horiz-adv-x="1527" d="M141 586v848h287v-816q0 -194 88.5 -287t249.5 -93t249.5 93t88.5 287v816h282v-848q0 -150 -48 -268t-133 -192t-197 -112.5t-244 -38.5t-244.5 38.5t-197.5 112.5t-133 192t-48 268zM444 1784l177 174l251 -318l-108 -108z" />
<glyph unicode="&#xda;" horiz-adv-x="1527" d="M141 586v848h287v-816q0 -194 88.5 -287t249.5 -93t249.5 93t88.5 287v816h282v-848q0 -150 -48 -268t-133 -192t-197 -112.5t-244 -38.5t-244.5 38.5t-197.5 112.5t-133 192t-48 268zM655 1640l252 318l176 -174l-319 -252z" />
<glyph unicode="&#xdb;" horiz-adv-x="1527" d="M141 586v848h287v-816q0 -194 88.5 -287t249.5 -93t249.5 93t88.5 287v816h282v-848q0 -150 -48 -268t-133 -192t-197 -112.5t-244 -38.5t-244.5 38.5t-197.5 112.5t-133 192t-48 268zM383 1540l250 322h262l250 -322h-236l-145 150l-146 -150h-235z" />
<glyph unicode="&#xdc;" horiz-adv-x="1527" d="M141 586v848h287v-816q0 -194 88.5 -287t249.5 -93t249.5 93t88.5 287v816h282v-848q0 -150 -48 -268t-133 -192t-197 -112.5t-244 -38.5t-244.5 38.5t-197.5 112.5t-133 192t-48 268zM383 1677q0 67 42.5 110.5t109.5 43.5t110 -44t43 -110q0 -67 -43 -110t-110 -43 t-109.5 42.5t-42.5 110.5zM840 1677q0 66 43 110t110 44t109.5 -43.5t42.5 -110.5q0 -68 -42.5 -110.5t-109.5 -42.5t-110 43t-43 110z" />
<glyph unicode="&#xdd;" horiz-adv-x="1454" d="M16 1434h324l387 -635l391 635h322l-572 -906v-528h-282v526zM618 1640l252 318l177 -174l-320 -252z" />
<glyph unicode="&#xde;" horiz-adv-x="1394" d="M147 0v1434h285v-222h330q259 0 400 -123.5t141 -332.5t-141.5 -334t-399.5 -125h-330v-297h-285zM432 551h303q277 0 277 205q0 202 -277 202h-303v-407z" />
<glyph unicode="&#xdf;" horiz-adv-x="1347" d="M119 0v901q0 121 36.5 222t107 176t180 117t247.5 42q240 0 385.5 -118.5t145.5 -288.5q0 -130 -59 -214.5t-150 -107.5q109 -15 187.5 -101.5t78.5 -232.5q0 -210 -125 -314t-360 -104q-159 0 -265 29v211q96 -22 224 -22q141 0 204.5 46.5t63.5 159.5q0 211 -287 211 h-127v211h101q135 0 197.5 52t62.5 163q0 91 -72 147t-201 56q-321 0 -321 -360v-881h-254z" />
<glyph unicode="&#xe0;" d="M70 457q0 204 124 342.5t312 138.5q174 0 282 -127v102h246v-913h-246v102q-109 -125 -280 -125q-189 0 -313.5 138.5t-124.5 341.5zM217 1298l176 172l269 -331l-109 -109zM332 457q0 -114 63 -185t158 -71q99 0 164 71t65 185t-65 185t-164 71q-95 0 -158 -71t-63 -185 z" />
<glyph unicode="&#xe1;" d="M70 457q0 204 124 342.5t312 138.5q174 0 282 -127v102h246v-913h-246v102q-109 -125 -280 -125q-189 0 -313.5 138.5t-124.5 341.5zM332 457q0 -114 63 -185t158 -71q99 0 164 71t65 185t-65 185t-164 71q-95 0 -158 -71t-63 -185zM444 1139l269 331l176 -172l-336 -268 z" />
<glyph unicode="&#xe2;" d="M70 457q0 204 124 342.5t312 138.5q174 0 282 -127v102h246v-913h-246v102q-109 -125 -280 -125q-189 0 -313.5 138.5t-124.5 341.5zM174 1049l248 325h262l248 -325h-236l-143 155l-143 -155h-236zM332 457q0 -114 63 -185t158 -71q99 0 164 71t65 185t-65 185t-164 71 q-95 0 -158 -71t-63 -185z" />
<glyph unicode="&#xe3;" d="M70 457q0 204 124 342.5t312 138.5q174 0 282 -127v102h246v-913h-246v102q-109 -125 -280 -125q-189 0 -313.5 138.5t-124.5 341.5zM193 1077q10 50 26.5 91t42.5 76.5t64.5 56t87.5 20.5q54 0 138 -39t120 -39q33 0 52.5 18t31.5 56l157 -29q-50 -244 -221 -244 q-54 0 -137.5 39t-120.5 39q-60 0 -82 -73zM332 457q0 -114 63 -185t158 -71q99 0 164 71t65 185t-65 185t-164 71q-95 0 -158 -71t-63 -185z" />
<glyph unicode="&#xe4;" d="M70 457q0 204 124 342.5t312 138.5q174 0 282 -127v102h246v-913h-246v102q-109 -125 -280 -125q-189 0 -313.5 138.5t-124.5 341.5zM182 1202q0 66 43.5 110t110.5 44t110 -44t43 -110q0 -68 -42.5 -110.5t-110.5 -42.5t-111 43t-43 110zM332 457q0 -114 63 -185 t158 -71q99 0 164 71t65 185t-65 185t-164 71q-95 0 -158 -71t-63 -185zM616 1202q0 66 43.5 110t110.5 44t110.5 -44t43.5 -110q0 -67 -43 -110t-111 -43t-111 43t-43 110z" />
<glyph unicode="&#xe5;" d="M70 457q0 204 124 342.5t312 138.5q174 0 282 -127v102h246v-913h-246v102q-109 -125 -280 -125q-189 0 -313.5 138.5t-124.5 341.5zM309 1270q0 99 71 168t173 69q104 0 174 -69t70 -168q0 -101 -70 -169.5t-174 -68.5q-103 0 -173.5 68.5t-70.5 169.5zM332 457 q0 -114 63 -185t158 -71q99 0 164 71t65 185t-65 185t-164 71q-95 0 -158 -71t-63 -185zM446 1270q0 -47 30.5 -78t76.5 -31t77.5 31t31.5 78q0 45 -31.5 75.5t-77.5 30.5t-76.5 -30t-30.5 -76z" />
<glyph unicode="&#xe6;" horiz-adv-x="1665" d="M68 260q0 130 94.5 201t263.5 71h258q3 30 12 56q-19 135 -174 135q-139 0 -162 -94h-245q8 130 116.5 219.5t298.5 89.5q204 0 308 -125q135 125 305 125q190 0 322 -137.5t132 -335.5q0 -69 -6 -107h-651q23 -78 80.5 -123t134.5 -45q67 0 115 28t63 77h246 q-29 -137 -144.5 -227.5t-293.5 -90.5q-99 0 -187.5 40t-152.5 110q-117 -145 -369 -145q-72 0 -135 16t-115.5 48t-83 87t-30.5 127zM317 268q0 -90 148 -90q99 0 160 36t71 108q-8 24 -10 36h-217q-152 0 -152 -90zM936 532h412q-14 88 -71.5 139.5t-127.5 51.5 q-81 0 -137.5 -52t-75.5 -139z" />
<glyph unicode="&#xe7;" horiz-adv-x="1081" d="M70 457q0 202 138.5 341.5t344.5 139.5q105 0 192 -32.5t142.5 -87t88 -119t40.5 -134.5h-254q-40 142 -205 142q-98 0 -161.5 -69t-63.5 -181t63.5 -181t161.5 -69q164 0 205 141h254q-15 -126 -105 -227.5t-243 -130.5l-90 -324h-242l117 322q-169 32 -276 162.5 t-107 306.5z" />
<glyph unicode="&#xe8;" horiz-adv-x="1075" d="M70 457q0 131 61.5 241.5t170 175t239.5 64.5q197 0 333 -136.5t136 -330.5q0 -59 -6 -96h-674q20 -88 80.5 -138.5t146.5 -50.5q73 0 122 28t66 79h244q-29 -138 -145 -227t-301 -89q-132 0 -240.5 63.5t-170.5 173.5t-62 243zM205 1298l176 172l268 -331l-108 -109z M330 543h426q-15 85 -72 134.5t-133 49.5q-85 0 -142.5 -49.5t-78.5 -134.5z" />
<glyph unicode="&#xe9;" horiz-adv-x="1075" d="M70 457q0 131 61.5 241.5t170 175t239.5 64.5q197 0 333 -136.5t136 -330.5q0 -59 -6 -96h-674q20 -88 80.5 -138.5t146.5 -50.5q73 0 122 28t66 79h244q-29 -138 -145 -227t-301 -89q-132 0 -240.5 63.5t-170.5 173.5t-62 243zM330 543h426q-15 85 -72 134.5t-133 49.5 q-85 0 -142.5 -49.5t-78.5 -134.5zM430 1139l268 331l176 -172l-335 -268z" />
<glyph unicode="&#xea;" horiz-adv-x="1075" d="M70 457q0 131 61.5 241.5t170 175t239.5 64.5q197 0 333 -136.5t136 -330.5q0 -59 -6 -96h-674q20 -88 80.5 -138.5t146.5 -50.5q73 0 122 28t66 79h244q-29 -138 -145 -227t-301 -89q-132 0 -240.5 63.5t-170.5 173.5t-62 243zM162 1049l248 325h262l248 -325h-236 l-143 155l-144 -155h-235zM330 543h426q-15 85 -72 134.5t-133 49.5q-85 0 -142.5 -49.5t-78.5 -134.5z" />
<glyph unicode="&#xeb;" horiz-adv-x="1075" d="M70 457q0 131 61.5 241.5t170 175t239.5 64.5q197 0 333 -136.5t136 -330.5q0 -59 -6 -96h-674q20 -88 80.5 -138.5t146.5 -50.5q73 0 122 28t66 79h244q-29 -138 -145 -227t-301 -89q-132 0 -240.5 63.5t-170.5 173.5t-62 243zM170 1202q0 66 43.5 110t110.5 44t110 -44 t43 -110q0 -68 -42.5 -110.5t-110.5 -42.5t-111 43t-43 110zM330 543h426q-15 85 -72 134.5t-133 49.5q-85 0 -142.5 -49.5t-78.5 -134.5zM604 1202q0 66 43.5 110t110.5 44t110 -44t43 -110q0 -68 -42.5 -110.5t-110.5 -42.5t-111 43t-43 110z" />
<glyph unicode="&#xec;" horiz-adv-x="493" d="M-88 1298l176 172l268 -331l-108 -109zM119 0v913h254v-913h-254z" />
<glyph unicode="&#xed;" horiz-adv-x="493" d="M119 0v913h254v-913h-254zM137 1139l269 331l176 -172l-336 -268z" />
<glyph unicode="&#xee;" horiz-adv-x="493" d="M-104 1053l223 323h254l223 -323h-227l-123 155l-123 -155h-227zM119 0v913h254v-913h-254z" />
<glyph unicode="&#xef;" horiz-adv-x="493" d="M-115 1202q0 66 43.5 110t110.5 44t110.5 -44t43.5 -110q0 -67 -43 -110t-111 -43t-111 43t-43 110zM119 0v913h254v-913h-254zM299 1202q0 66 43.5 110t110.5 44t110 -44t43 -110q0 -68 -43 -110.5t-110 -42.5q-68 0 -111 43t-43 110z" />
<glyph unicode="&#xf0;" horiz-adv-x="1112" d="M70 440q0 199 138 327t343 128q68 0 158 -33q-73 112 -160 199l-230 -131l-92 145l183 105q-72 56 -181 110l131 162q133 -70 242 -162l268 156l95 -143l-232 -134q141 -149 224 -324.5t83 -359.5q0 -233 -137 -370.5t-352 -137.5q-200 0 -340.5 134.5t-140.5 328.5z M330 436q0 -103 64 -167t157 -64t156 64t63 167q0 104 -63 168t-156 64t-157 -64.5t-64 -167.5z" />
<glyph unicode="&#xf1;" horiz-adv-x="1122" d="M119 0v913h243v-108q43 60 119 96.5t172 36.5q164 0 261.5 -104.5t97.5 -272.5v-561h-254v496q0 98 -48.5 154.5t-136.5 56.5q-91 0 -145.5 -61t-54.5 -161v-485h-254zM215 1077q10 50 26.5 91t42.5 76.5t64.5 56t87.5 20.5q54 0 138 -39t120 -39q33 0 52.5 18t31.5 56 l158 -29q-50 -244 -221 -244q-54 0 -137.5 39t-120.5 39q-60 0 -82 -73z" />
<glyph unicode="&#xf2;" horiz-adv-x="1114" d="M70 457q0 201 141.5 341t345.5 140q133 0 245 -64t177 -174.5t65 -242.5t-65 -242.5t-177 -174t-245 -63.5q-204 0 -345.5 139.5t-141.5 340.5zM221 1298l176 172l269 -331l-109 -109zM332 457q0 -112 64 -182t161 -70t161 70t64 182t-64 182t-161 70t-161 -70t-64 -182z " />
<glyph unicode="&#xf3;" horiz-adv-x="1114" d="M70 457q0 201 141.5 341t345.5 140q133 0 245 -64t177 -174.5t65 -242.5t-65 -242.5t-177 -174t-245 -63.5q-204 0 -345.5 139.5t-141.5 340.5zM332 457q0 -112 64 -182t161 -70t161 70t64 182t-64 182t-161 70t-161 -70t-64 -182zM449 1139l268 331l176 -172l-336 -268z " />
<glyph unicode="&#xf4;" horiz-adv-x="1114" d="M70 457q0 201 141.5 341t345.5 140q133 0 245 -64t177 -174.5t65 -242.5t-65 -242.5t-177 -174t-245 -63.5q-204 0 -345.5 139.5t-141.5 340.5zM178 1049l248 325h262l248 -325h-236l-143 155l-143 -155h-236zM332 457q0 -112 64 -182t161 -70t161 70t64 182t-64 182 t-161 70t-161 -70t-64 -182z" />
<glyph unicode="&#xf5;" horiz-adv-x="1114" d="M70 457q0 201 141.5 341t345.5 140q133 0 245 -64t177 -174.5t65 -242.5t-65 -242.5t-177 -174t-245 -63.5q-204 0 -345.5 139.5t-141.5 340.5zM197 1077q10 50 26.5 91t42.5 76.5t64.5 56t87.5 20.5q54 0 138 -39t120 -39q33 0 52.5 18t31.5 56l158 -29 q-50 -244 -222 -244q-54 0 -137.5 39t-120.5 39q-60 0 -82 -73zM332 457q0 -112 64 -182t161 -70t161 70t64 182t-64 182t-161 70t-161 -70t-64 -182z" />
<glyph unicode="&#xf6;" horiz-adv-x="1114" d="M70 457q0 201 141.5 341t345.5 140q133 0 245 -64t177 -174.5t65 -242.5t-65 -242.5t-177 -174t-245 -63.5q-204 0 -345.5 139.5t-141.5 340.5zM186 1202q0 66 43.5 110t110.5 44t110.5 -44t43.5 -110q0 -67 -43 -110t-111 -43t-111 43t-43 110zM332 457q0 -112 64 -182 t161 -70t161 70t64 182t-64 182t-161 70t-161 -70t-64 -182zM621 1202q0 66 43 110t110 44t110.5 -44t43.5 -110q0 -67 -43 -110t-111 -43t-110.5 42.5t-42.5 110.5z" />
<glyph unicode="&#xf7;" horiz-adv-x="1261" d="M182 406v208h899v-208h-899zM463 137q0 71 49 119.5t121 48.5q73 0 121.5 -48.5t48.5 -119.5q0 -72 -48.5 -121t-121.5 -49q-72 0 -121 49t-49 121zM463 885q0 71 49 119.5t121 48.5q73 0 121.5 -48.5t48.5 -119.5q0 -72 -48.5 -121t-121.5 -49q-72 0 -121 49t-49 121z " />
<glyph unicode="&#xf8;" horiz-adv-x="1118" d="M72 457q0 201 141.5 341t345.5 140q147 0 272 -82l64 66l113 -103l-64 -67q103 -134 103 -295q0 -132 -65.5 -242.5t-177.5 -174t-245 -63.5q-149 0 -270 78l-66 -67l-112 104l63 66q-102 127 -102 299zM334 457q0 -66 22 -121l320 340q-50 35 -117 35q-97 0 -161 -70 t-64 -184zM444 236q51 -31 115 -31q97 0 161 70t64 182q0 64 -22 116z" />
<glyph unicode="&#xf9;" horiz-adv-x="1118" d="M111 352v561h254v-493q0 -100 46.5 -156.5t133.5 -56.5q92 0 146 60.5t54 160.5v485h254v-913h-245v106q-43 -59 -118.5 -94t-170.5 -35q-163 0 -258.5 104t-95.5 271zM219 1298l176 172l269 -331l-109 -109z" />
<glyph unicode="&#xfa;" horiz-adv-x="1118" d="M111 352v561h254v-493q0 -100 46.5 -156.5t133.5 -56.5q92 0 146 60.5t54 160.5v485h254v-913h-245v106q-43 -59 -118.5 -94t-170.5 -35q-163 0 -258.5 104t-95.5 271zM446 1139l269 331l176 -172l-336 -268z" />
<glyph unicode="&#xfb;" horiz-adv-x="1118" d="M111 352v561h254v-493q0 -100 46.5 -156.5t133.5 -56.5q92 0 146 60.5t54 160.5v485h254v-913h-245v106q-43 -59 -118.5 -94t-170.5 -35q-163 0 -258.5 104t-95.5 271zM176 1049l248 325h262l248 -325h-236l-143 155l-143 -155h-236z" />
<glyph unicode="&#xfc;" horiz-adv-x="1118" d="M111 352v561h254v-493q0 -100 46.5 -156.5t133.5 -56.5q92 0 146 60.5t54 160.5v485h254v-913h-245v106q-43 -59 -118.5 -94t-170.5 -35q-163 0 -258.5 104t-95.5 271zM184 1202q0 66 43.5 110t110.5 44t110.5 -44t43.5 -110q0 -67 -43 -110t-111 -43t-111 43t-43 110z M618 1202q0 66 43.5 110t110.5 44t110.5 -44t43.5 -110q0 -67 -43 -110t-111 -43t-111 43t-43 110z" />
<glyph unicode="&#xfd;" horiz-adv-x="1052" d="M25 913h282l228 -499l221 499h274l-624 -1355h-275l270 577zM426 1139l268 331l176 -172l-335 -268z" />
<glyph unicode="&#xfe;" horiz-adv-x="1155" d="M119 -442v1876h254v-613q104 117 272 117q189 0 313.5 -138.5t124.5 -342.5q0 -203 -125 -341.5t-315 -138.5q-167 0 -270 115v-534h-254zM371 457q0 -115 64.5 -185.5t164.5 -70.5q95 0 158 70.5t63 185.5t-63 185.5t-158 70.5q-100 0 -164.5 -70.5t-64.5 -185.5z" />
<glyph unicode="&#xff;" horiz-adv-x="1052" d="M25 913h282l228 -499l221 499h274l-624 -1355h-275l270 577zM166 1202q0 66 43 110t110 44t110.5 -44t43.5 -110q0 -67 -43 -110t-111 -43q-67 0 -110 42.5t-43 110.5zM600 1202q0 66 43.5 110t110.5 44t110 -44t43 -110q0 -68 -42.5 -110.5t-110.5 -42.5t-111 43 t-43 110z" />
<glyph unicode="&#x100;" horiz-adv-x="1554" d="M27 0l616 1436h270l615 -1436h-293l-131 322h-655l-132 -322h-290zM426 1540v201h700v-201h-700zM553 580h444l-221 544z" />
<glyph unicode="&#x101;" d="M70 457q0 204 124 342.5t312 138.5q174 0 282 -127v102h246v-913h-246v102q-109 -125 -280 -125q-189 0 -313.5 138.5t-124.5 341.5zM211 1065v199h684v-199h-684zM332 457q0 -114 63 -185t158 -71q99 0 164 71t65 185t-65 185t-164 71q-95 0 -158 -71t-63 -185z" />
<glyph unicode="&#x102;" horiz-adv-x="1554" d="M27 0l616 1436h270l615 -1436h-293l-131 322h-655l-132 -322h-290zM408 1849h213q6 -57 47 -90t108 -33t108.5 33t47.5 90h213q-7 -59 -30.5 -112t-65.5 -101t-112.5 -76t-160.5 -28q-73 0 -133 19t-100.5 50t-69.5 73t-44 85t-21 90zM553 580h444l-221 544z" />
<glyph unicode="&#x103;" d="M70 457q0 204 124 342.5t312 138.5q174 0 282 -127v102h246v-913h-246v102q-109 -125 -280 -125q-189 0 -313.5 138.5t-124.5 341.5zM188 1364h213q6 -58 46 -92.5t106 -34.5t106 34.5t46 92.5h213q-6 -59 -28.5 -113t-64 -102.5t-112 -77.5t-160.5 -29t-160.5 29 t-112 77.5t-64 102.5t-28.5 113zM332 457q0 -114 63 -185t158 -71q99 0 164 71t65 185t-65 185t-164 71q-95 0 -158 -71t-63 -185z" />
<glyph unicode="&#x104;" horiz-adv-x="1554" d="M27 0l616 1436h270l615 -1436h-6q-85 -37 -128.5 -74.5t-43.5 -85.5q0 -31 25 -48t63 -17q63 0 116 24l54 -135q-39 -29 -105.5 -49.5t-132.5 -20.5q-106 0 -173 47t-67 134q0 131 164 225h-59l-131 322h-655l-132 -322h-290zM553 580h444l-221 544z" />
<glyph unicode="&#x105;" d="M70 457q0 204 124 342.5t312 138.5q174 0 282 -127v102h246v-913h-20q-166 -72 -166 -158q0 -28 23.5 -43.5t58.5 -15.5q55 0 108 24l54 -135q-34 -27 -100 -48t-130 -21q-101 0 -167 45.5t-66 128.5q0 135 159 229v96q-109 -125 -280 -125q-189 0 -313.5 138.5 t-124.5 341.5zM332 457q0 -114 63 -185t158 -71q99 0 164 71t65 185t-65 185t-164 71q-95 0 -158 -71t-63 -185z" />
<glyph unicode="&#x106;" horiz-adv-x="1677" d="M111 717q0 154 58 291t158.5 236t240.5 156.5t298 57.5q275 0 474.5 -152t236.5 -393h-293q-40 127 -145.5 203t-268.5 76q-203 0 -335 -133.5t-132 -341.5t132 -341.5t335 -133.5q163 0 268.5 75.5t145.5 202.5h293q-37 -241 -236.5 -393t-474.5 -152q-158 0 -298 58 t-240.5 157t-158.5 236t-58 291zM756 1640l252 318l176 -174l-320 -252z" />
<glyph unicode="&#x107;" horiz-adv-x="1081" d="M70 457q0 202 138.5 341.5t344.5 139.5q105 0 192 -32.5t142.5 -87t88 -119t40.5 -134.5h-254q-40 142 -205 142q-98 0 -161.5 -69t-63.5 -181t63.5 -181t161.5 -69q164 0 205 141h254q-8 -69 -40.5 -133.5t-88 -118.5t-142.5 -86.5t-192 -32.5q-206 0 -344.5 139 t-138.5 341zM444 1139l269 331l176 -172l-336 -268z" />
<glyph unicode="&#x108;" horiz-adv-x="1677" d="M111 717q0 154 58 291t158.5 236t240.5 156.5t298 57.5q275 0 474.5 -152t236.5 -393h-293q-40 127 -145.5 203t-268.5 76q-203 0 -335 -133.5t-132 -341.5t132 -341.5t335 -133.5q163 0 268.5 75.5t145.5 202.5h293q-37 -241 -236.5 -393t-474.5 -152q-158 0 -298 58 t-240.5 157t-158.5 236t-58 291zM485 1540l250 322h262l250 -322h-235l-146 150l-145 -150h-236z" />
<glyph unicode="&#x109;" horiz-adv-x="1081" d="M70 457q0 202 138.5 341.5t344.5 139.5q105 0 192 -32.5t142.5 -87t88 -119t40.5 -134.5h-254q-40 142 -205 142q-98 0 -161.5 -69t-63.5 -181t63.5 -181t161.5 -69q164 0 205 141h254q-8 -69 -40.5 -133.5t-88 -118.5t-142.5 -86.5t-192 -32.5q-206 0 -344.5 139 t-138.5 341zM174 1049l248 325h262l248 -325h-236l-143 155l-143 -155h-236z" />
<glyph unicode="&#x10a;" horiz-adv-x="1677" d="M111 717q0 154 58 291t158.5 236t240.5 156.5t298 57.5q275 0 474.5 -152t236.5 -393h-293q-40 127 -145.5 203t-268.5 76q-203 0 -335 -133.5t-132 -341.5t132 -341.5t335 -133.5q163 0 268.5 75.5t145.5 202.5h293q-37 -241 -236.5 -393t-474.5 -152q-158 0 -298 58 t-240.5 157t-158.5 236t-58 291zM707 1692q0 68 45 113.5t114 45.5t114.5 -45.5t45.5 -113.5q0 -69 -45.5 -114.5t-114.5 -45.5t-114 45.5t-45 114.5z" />
<glyph unicode="&#x10b;" horiz-adv-x="1081" d="M70 457q0 202 138.5 341.5t344.5 139.5q105 0 192 -32.5t142.5 -87t88 -119t40.5 -134.5h-254q-40 142 -205 142q-98 0 -161.5 -69t-63.5 -181t63.5 -181t161.5 -69q164 0 205 141h254q-8 -69 -40.5 -133.5t-88 -118.5t-142.5 -86.5t-192 -32.5q-206 0 -344.5 139 t-138.5 341zM399 1202q0 66 43.5 110t110.5 44t110.5 -44t43.5 -110q0 -67 -43 -110t-111 -43t-111 43t-43 110z" />
<glyph unicode="&#x10c;" horiz-adv-x="1677" d="M111 717q0 154 58 291t158.5 236t240.5 156.5t298 57.5q275 0 474.5 -152t236.5 -393h-293q-40 127 -145.5 203t-268.5 76q-203 0 -335 -133.5t-132 -341.5t132 -341.5t335 -133.5q163 0 268.5 75.5t145.5 202.5h293q-37 -241 -236.5 -393t-474.5 -152q-158 0 -298 58 t-240.5 157t-158.5 236t-58 291zM485 1862h236l145 -150l146 150h235l-250 -322h-262z" />
<glyph unicode="&#x10d;" horiz-adv-x="1081" d="M70 457q0 202 138.5 341.5t344.5 139.5q105 0 192 -32.5t142.5 -87t88 -119t40.5 -134.5h-254q-40 142 -205 142q-98 0 -161.5 -69t-63.5 -181t63.5 -181t161.5 -69q164 0 205 141h254q-8 -69 -40.5 -133.5t-88 -118.5t-142.5 -86.5t-192 -32.5q-206 0 -344.5 139 t-138.5 341zM174 1374h236l143 -157l143 157h236l-248 -325h-262z" />
<glyph unicode="&#x10e;" horiz-adv-x="1544" d="M147 0v1434h541q160 0 299.5 -55.5t237 -151.5t153.5 -228.5t56 -281.5t-56 -281.5t-153.5 -228.5t-237 -151.5t-299.5 -55.5h-541zM387 1862h236l145 -150l145 150h236l-250 -322h-262zM432 258h246q208 0 336.5 129.5t128.5 329.5t-128.5 329.5t-336.5 129.5h-246v-918 z" />
<glyph unicode="&#x10f;" horiz-adv-x="1316" d="M70 457q0 204 124 342.5t312 138.5q166 0 274 -117v613h254v-1434h-246v102q-109 -125 -280 -125q-189 0 -313.5 138.5t-124.5 341.5zM332 457q0 -115 63 -185.5t158 -70.5q100 0 164.5 70.5t64.5 185.5t-64.5 185.5t-164.5 70.5q-95 0 -158 -70.5t-63 -185.5zM1112 967 l8 467h271l-76 -467h-203z" />
<glyph unicode="&#x110;" horiz-adv-x="1548" d="M16 616v205h136v613h540q160 0 299.5 -55.5t237 -151.5t153.5 -228.5t56 -281.5t-56 -281.5t-153.5 -228.5t-237 -151.5t-299.5 -55.5h-540v616h-136zM436 258h246q208 0 336.5 129.5t128.5 329.5t-128.5 329.5t-336.5 129.5h-246v-355h350v-205h-350v-358z" />
<glyph unicode="&#x111;" d="M70 457q0 204 124 342.5t312 138.5q166 0 274 -117v234h-383v200h383v179h254v-179h121v-200h-121v-1055h-246v102q-109 -125 -280 -125q-189 0 -313.5 138.5t-124.5 341.5zM332 457q0 -115 63 -185.5t158 -70.5q100 0 164.5 70.5t64.5 185.5t-64.5 185.5t-164.5 70.5 q-95 0 -158 -70.5t-63 -185.5z" />
<glyph unicode="&#x112;" horiz-adv-x="1320" d="M147 0v1434h1055v-254h-770v-332h719v-254h-719v-340h780v-254h-1065zM352 1540v201h701v-201h-701z" />
<glyph unicode="&#x113;" horiz-adv-x="1075" d="M70 457q0 131 61.5 241.5t170 175t239.5 64.5q197 0 333 -136.5t136 -330.5q0 -59 -6 -96h-674q20 -88 80.5 -138.5t146.5 -50.5q73 0 122 28t66 79h244q-29 -138 -145 -227t-301 -89q-132 0 -240.5 63.5t-170.5 173.5t-62 243zM199 1065v199h684v-199h-684zM330 543h426 q-15 85 -72 134.5t-133 49.5q-85 0 -142.5 -49.5t-78.5 -134.5z" />
<glyph unicode="&#x114;" horiz-adv-x="1320" d="M147 0v1434h1055v-254h-770v-332h719v-254h-719v-340h780v-254h-1065zM334 1849h213q6 -57 47 -90t108 -33t108.5 33t47.5 90h213q-7 -59 -30.5 -112t-65.5 -101t-112.5 -76t-160.5 -28q-73 0 -133 19t-100.5 50t-69.5 73t-44 85t-21 90z" />
<glyph unicode="&#x115;" horiz-adv-x="1075" d="M70 457q0 131 61.5 241.5t170 175t239.5 64.5q197 0 333 -136.5t136 -330.5q0 -59 -6 -96h-674q20 -88 80.5 -138.5t146.5 -50.5q73 0 122 28t66 79h244q-29 -138 -145 -227t-301 -89q-132 0 -240.5 63.5t-170.5 173.5t-62 243zM176 1364h213q6 -58 46 -92.5t106 -34.5 t105.5 34.5t45.5 92.5h213q-6 -59 -28.5 -113t-63.5 -102.5t-111.5 -77.5t-160.5 -29t-160.5 29t-112 77.5t-64 102.5t-28.5 113zM330 543h426q-15 85 -72 134.5t-133 49.5q-85 0 -142.5 -49.5t-78.5 -134.5z" />
<glyph unicode="&#x116;" horiz-adv-x="1320" d="M147 0v1434h1055v-254h-770v-332h719v-254h-719v-340h780v-254h-1065zM543 1692q0 68 45 113.5t114 45.5t114.5 -45.5t45.5 -113.5q0 -69 -45.5 -114.5t-114.5 -45.5t-114 45.5t-45 114.5z" />
<glyph unicode="&#x117;" horiz-adv-x="1075" d="M70 457q0 131 61.5 241.5t170 175t239.5 64.5q197 0 333 -136.5t136 -330.5q0 -59 -6 -96h-674q20 -88 80.5 -138.5t146.5 -50.5q73 0 122 28t66 79h244q-29 -138 -145 -227t-301 -89q-132 0 -240.5 63.5t-170.5 173.5t-62 243zM330 543h426q-15 85 -72 134.5t-133 49.5 q-85 0 -142.5 -49.5t-78.5 -134.5zM387 1202q0 66 43.5 110t110.5 44t110 -44t43 -110q0 -68 -43 -110.5t-110 -42.5q-68 0 -111 43t-43 110z" />
<glyph unicode="&#x118;" horiz-adv-x="1320" d="M147 0v1434h1055v-254h-770v-332h719v-254h-719v-340h780v-254h-63q-85 -37 -128.5 -74.5t-43.5 -85.5q0 -31 25 -48t63 -17q64 0 117 24l53 -135q-39 -29 -105.5 -49.5t-132.5 -20.5q-106 0 -172.5 47t-66.5 134q0 131 164 225h-775z" />
<glyph unicode="&#x119;" horiz-adv-x="1075" d="M70 457q0 131 61.5 241.5t170 175t239.5 64.5q197 0 333 -136.5t136 -330.5q0 -59 -6 -96h-674q20 -88 80.5 -138.5t146.5 -50.5q73 0 122 28t66 79h244q-19 -89 -75 -159.5t-146 -110.5q-69 -39 -101 -76.5t-32 -83.5q0 -39 29.5 -59.5t72.5 -20.5q62 0 119 31l64 -129 q-41 -35 -109.5 -58.5t-136.5 -23.5q-110 0 -180 54.5t-70 143.5q0 102 90 179q-191 9 -317.5 145t-126.5 332zM330 543h426q-15 85 -72 134.5t-133 49.5q-85 0 -142.5 -49.5t-78.5 -134.5z" />
<glyph unicode="&#x11a;" horiz-adv-x="1320" d="M147 0v1434h1055v-254h-770v-332h719v-254h-719v-340h780v-254h-1065zM322 1858h235l145 -150l146 150h235l-249 -322h-263z" />
<glyph unicode="&#x11b;" horiz-adv-x="1075" d="M70 457q0 131 61.5 241.5t170 175t239.5 64.5q197 0 333 -136.5t136 -330.5q0 -59 -6 -96h-674q20 -88 80.5 -138.5t146.5 -50.5q73 0 122 28t66 79h244q-29 -138 -145 -227t-301 -89q-132 0 -240.5 63.5t-170.5 173.5t-62 243zM162 1374h235l144 -157l143 157h236 l-248 -325h-262zM330 543h426q-15 85 -72 134.5t-133 49.5q-85 0 -142.5 -49.5t-78.5 -134.5z" />
<glyph unicode="&#x11c;" horiz-adv-x="1687" d="M111 717q0 154 58 291t158 236t239.5 156.5t295.5 57.5q169 0 314.5 -62.5t243 -176.5t130.5 -261h-299q-45 109 -141.5 173.5t-241.5 64.5q-202 0 -333.5 -135t-131.5 -344t129.5 -344t329.5 -135q175 0 293 92.5t135 238.5h-432v240h711q10 -56 10 -123 q0 -136 -38.5 -252.5t-106 -200t-159 -142.5t-197 -87.5t-220.5 -28.5q-156 0 -295 58t-238 157t-156.5 236t-57.5 291zM479 1544l250 322h262l250 -322h-235l-146 150l-145 -150h-236z" />
<glyph unicode="&#x11d;" d="M70 469q0 128 56 235.5t156.5 170.5t223.5 63q171 0 282 -127v102h246v-901q0 -202 -128 -325t-345 -123q-106 0 -193 29t-142 78.5t-86.5 109t-37.5 125.5h250q16 -125 205 -125q122 0 178 60t56 194v94q-108 -127 -285 -127q-123 0 -223.5 63t-156.5 170t-56 234z M174 1049l248 325h262l248 -325h-236l-143 155l-143 -155h-236zM328 469q0 -105 64.5 -175.5t158.5 -70.5q98 0 164.5 70.5t66.5 175.5t-66.5 175.5t-164.5 70.5q-94 0 -158.5 -70.5t-64.5 -175.5z" />
<glyph unicode="&#x11e;" horiz-adv-x="1687" d="M111 717q0 154 58 291t158 236t239.5 156.5t295.5 57.5q169 0 314.5 -62.5t243 -176.5t130.5 -261h-299q-45 109 -141.5 173.5t-241.5 64.5q-202 0 -333.5 -135t-131.5 -344t129.5 -344t329.5 -135q175 0 293 92.5t135 238.5h-432v240h711q10 -56 10 -123 q0 -136 -38.5 -252.5t-106 -200t-159 -142.5t-197 -87.5t-220.5 -28.5q-156 0 -295 58t-238 157t-156.5 236t-57.5 291zM492 1853h213q6 -57 47 -89.5t108 -32.5t108.5 32.5t47.5 89.5h213q-7 -59 -30.5 -112t-65.5 -101t-112.5 -76t-160.5 -28q-73 0 -133 19t-100.5 50 t-69.5 73t-44 85t-21 90z" />
<glyph unicode="&#x11f;" d="M70 469q0 128 56 235.5t156.5 170.5t223.5 63q171 0 282 -127v102h246v-901q0 -202 -128 -325t-345 -123q-106 0 -193 29t-142 78.5t-86.5 109t-37.5 125.5h250q16 -125 205 -125q122 0 178 60t56 194v94q-108 -127 -285 -127q-123 0 -223.5 63t-156.5 170t-56 234z M188 1364h213q6 -58 46 -92.5t106 -34.5t106 34.5t46 92.5h213q-6 -59 -28.5 -113t-64 -102.5t-112 -77.5t-160.5 -29t-160.5 29t-112 77.5t-64 102.5t-28.5 113zM328 469q0 -105 64.5 -175.5t158.5 -70.5q98 0 164.5 70.5t66.5 175.5t-66.5 175.5t-164.5 70.5 q-94 0 -158.5 -70.5t-64.5 -175.5z" />
<glyph unicode="&#x120;" horiz-adv-x="1687" d="M111 717q0 154 58 291t158 236t239.5 156.5t295.5 57.5q169 0 314.5 -62.5t243 -176.5t130.5 -261h-299q-45 109 -141.5 173.5t-241.5 64.5q-202 0 -333.5 -135t-131.5 -344t129.5 -344t329.5 -135q175 0 293 92.5t135 238.5h-432v240h711q10 -56 10 -123 q0 -136 -38.5 -252.5t-106 -200t-159 -142.5t-197 -87.5t-220.5 -28.5q-156 0 -295 58t-238 157t-156.5 236t-57.5 291zM700 1696q0 68 45.5 113.5t114.5 45.5t114.5 -45.5t45.5 -113.5q0 -69 -45.5 -114.5t-114.5 -45.5t-114.5 45.5t-45.5 114.5z" />
<glyph unicode="&#x121;" d="M70 469q0 128 56 235.5t156.5 170.5t223.5 63q171 0 282 -127v102h246v-901q0 -202 -128 -325t-345 -123q-106 0 -193 29t-142 78.5t-86.5 109t-37.5 125.5h250q16 -125 205 -125q122 0 178 60t56 194v94q-108 -127 -285 -127q-123 0 -223.5 63t-156.5 170t-56 234z M328 469q0 -105 64.5 -175.5t158.5 -70.5q98 0 164.5 70.5t66.5 175.5t-66.5 175.5t-164.5 70.5q-94 0 -158.5 -70.5t-64.5 -175.5zM399 1202q0 66 43.5 110t110.5 44t110.5 -44t43.5 -110q0 -67 -43 -110t-111 -43t-111 43t-43 110z" />
<glyph unicode="&#x122;" horiz-adv-x="1687" d="M111 717q0 154 58 291t158 236t239.5 156.5t295.5 57.5q169 0 314.5 -62.5t243 -176.5t130.5 -261h-299q-45 109 -141.5 173.5t-241.5 64.5q-202 0 -333.5 -135t-131.5 -344t129.5 -344t329.5 -135q175 0 293 92.5t135 238.5h-432v240h711q10 -56 10 -123 q0 -136 -38.5 -252.5t-106 -200t-159 -142.5t-197 -87.5t-220.5 -28.5q-156 0 -295 58t-238 157t-156.5 236t-57.5 291zM690 -481l45 395h271l-101 -395h-215z" />
<glyph unicode="&#x123;" d="M70 469q0 128 56 235.5t156.5 170.5t223.5 63q171 0 282 -127v102h246v-901q0 -202 -128 -325t-345 -123q-106 0 -193 29t-142 78.5t-86.5 109t-37.5 125.5h250q16 -125 205 -125q122 0 178 60t56 194v94q-108 -127 -285 -127q-123 0 -223.5 63t-156.5 170t-56 234z M328 469q0 -105 64.5 -175.5t158.5 -70.5q98 0 164.5 70.5t66.5 175.5t-66.5 175.5t-164.5 70.5q-94 0 -158.5 -70.5t-64.5 -175.5zM420 1053l96 385h209l-45 -385h-260z" />
<glyph unicode="&#x124;" horiz-adv-x="1550" d="M147 0v1434h285v-582h686v582h285v-1434h-285v590h-686v-590h-285zM393 1540l250 322h262l250 -322h-235l-146 150l-145 -150h-236z" />
<glyph unicode="&#x125;" horiz-adv-x="1122" d="M119 0v1434h254v-615q45 54 117.5 86.5t162.5 32.5q164 0 261.5 -104.5t97.5 -272.5v-561h-254v496q0 98 -48.5 154.5t-136.5 56.5q-91 0 -145.5 -61t-54.5 -161v-485h-254zM190 1540l250 322h262l250 -322h-235l-146 150l-145 -150h-236z" />
<glyph unicode="&#x126;" horiz-adv-x="1558" d="M16 1040v203h136v191h284v-191h686v191h285v-191h137v-203h-137v-1040h-285v590h-686v-590h-284v1040h-136zM436 852h686v188h-686v-188z" />
<glyph unicode="&#x127;" horiz-adv-x="1122" d="M-2 1055v200h121v179h254v-179h383v-200h-383v-236q45 54 117.5 86.5t162.5 32.5q164 0 261.5 -104.5t97.5 -272.5v-561h-254v496q0 98 -48.5 154.5t-136.5 56.5q-91 0 -145.5 -61t-54.5 -161v-485h-254v1055h-121z" />
<glyph unicode="&#x128;" horiz-adv-x="583" d="M-78 1565q21 104 76 171.5t149 67.5q54 0 142 -39t123 -39q66 0 90 74l157 -28q-21 -105 -75.5 -172.5t-149.5 -67.5q-54 0 -141 39t-123 39q-66 0 -88 -74zM150 0v1434h284v-1434h-284z" />
<glyph unicode="&#x129;" horiz-adv-x="493" d="M-102 1077q22 106 74.5 175t142.5 69q50 0 129.5 -39t111.5 -39q56 0 80 74l158 -29q-50 -244 -217 -244q-50 0 -129.5 39t-112.5 39q-56 0 -78 -73zM119 0v913h254v-913h-254z" />
<glyph unicode="&#x12a;" horiz-adv-x="583" d="M-59 1540v201h700v-201h-700zM150 0v1434h284v-1434h-284z" />
<glyph unicode="&#x12b;" horiz-adv-x="493" d="M-70 1075v201h631v-201h-631zM119 0v913h254v-913h-254z" />
<glyph unicode="&#x12c;" horiz-adv-x="583" d="M-78 1849h213q6 -57 47.5 -90t108.5 -33t108 33t47 90h213q-6 -47 -21 -90t-44 -85t-69.5 -73t-100.5 -50t-133 -19q-90 0 -160.5 28t-112.5 76t-65.5 101t-30.5 112zM150 0v1434h284v-1434h-284z" />
<glyph unicode="&#x12d;" horiz-adv-x="493" d="M-96 1364h213q4 -56 40.5 -91.5t88.5 -35.5t88.5 35.5t40.5 91.5h213q-3 -46 -17 -90t-42 -86.5t-66.5 -74.5t-94.5 -51.5t-122 -19.5t-122 19.5t-94.5 51.5t-66.5 74.5t-42 86.5t-17 90zM119 0v913h254v-913h-254z" />
<glyph unicode="&#x12e;" horiz-adv-x="583" d="M2 -225q0 132 154 225h-6v1434h284v-1434h-57q-81 -35 -119.5 -72.5t-38.5 -87.5q0 -65 88 -65q60 0 113 24l53 -135q-40 -30 -102.5 -50t-132.5 -20q-108 0 -172 46.5t-64 134.5z" />
<glyph unicode="&#x12f;" horiz-adv-x="493" d="M23 -215q0 119 149 215h-53v913h254v-913q-137 -63 -137 -145q0 -35 25 -53.5t63 -18.5q60 0 106 24l53 -124q-38 -31 -101 -55.5t-128 -24.5q-102 0 -166.5 48t-64.5 134zM92 1210q0 66 43.5 110t110.5 44q68 0 110.5 -43.5t42.5 -110.5q0 -68 -42.5 -111.5 t-110.5 -43.5q-67 0 -110.5 43.5t-43.5 111.5z" />
<glyph unicode="&#x130;" horiz-adv-x="583" d="M131 1692q0 68 45.5 113.5t114.5 45.5t114.5 -45.5t45.5 -113.5q0 -69 -45.5 -114.5t-114.5 -45.5t-114.5 45.5t-45.5 114.5zM150 0v1434h284v-1434h-284z" />
<glyph unicode="&#x131;" horiz-adv-x="493" d="M119 0v913h254v-913h-254z" />
<glyph unicode="&#x132;" horiz-adv-x="1820" d="M150 0v1434h284v-1434h-284zM639 436h276q24 -194 236 -194q248 0 248 301v891h284v-916q0 -262 -143.5 -402.5t-382.5 -140.5q-122 0 -218.5 36t-159 99.5t-97.5 146t-43 179.5z" />
<glyph unicode="&#x133;" horiz-adv-x="991" d="M92 1210q0 66 43.5 110t110.5 44q68 0 110.5 -43.5t42.5 -110.5q0 -68 -42.5 -111.5t-110.5 -43.5q-67 0 -110.5 43.5t-43.5 111.5zM119 0v913h254v-913h-254zM416 -215q38 -6 78 -6q66 0 95 35t29 114v985h254v-1013q0 -355 -311 -355q-62 0 -145 17v223zM592 1210 q0 66 43 110t110 44t110.5 -44t43.5 -110q0 -68 -43.5 -111.5t-110.5 -43.5t-110 43.5t-43 111.5z" />
<glyph unicode="&#x134;" horiz-adv-x="1239" d="M55 436h277q24 -194 235 -194q248 0 248 301v891h285v-916q0 -261 -144 -402t-383 -141q-122 0 -218.5 36t-159 99.5t-97.5 146t-43 179.5zM573 1540l250 322h262l250 -322h-235l-146 150l-145 -150h-236z" />
<glyph unicode="&#x135;" horiz-adv-x="497" d="M-129 1049l248 325h262l248 -325h-236l-143 155l-144 -155h-235zM-78 -215q38 -6 78 -6q66 0 95.5 35t29.5 114v985h254v-1013q0 -355 -311 -355q-63 0 -146 17v223z" />
<glyph unicode="&#x136;" horiz-adv-x="1456" d="M147 0v1434h285v-682l639 682h348l-598 -635l629 -799h-344l-471 602l-203 -215v-387h-285zM612 -481l45 395h271l-101 -395h-215z" />
<glyph unicode="&#x137;" horiz-adv-x="1054" d="M119 0v1434h254v-859l350 338h324l-410 -389l414 -524h-301l-285 362l-92 -88v-274h-254zM406 -471l45 385h260l-97 -385h-208z" />
<glyph unicode="&#x138;" horiz-adv-x="1054" d="M119 0v913h254v-338l350 338h324l-410 -389l414 -524h-301l-285 362l-92 -88v-274h-254z" />
<glyph unicode="&#x139;" horiz-adv-x="1226" d="M147 0v1434h285v-1176h735v-258h-1020zM182 1640l252 318l176 -174l-319 -252z" />
<glyph unicode="&#x13a;" horiz-adv-x="493" d="M119 0v1434h254v-1434h-254zM137 1640l252 318l176 -174l-319 -252z" />
<glyph unicode="&#x13b;" horiz-adv-x="1226" d="M147 0v1434h285v-1176h735v-258h-1020zM532 -481l46 395h270l-100 -395h-216z" />
<glyph unicode="&#x13c;" horiz-adv-x="493" d="M74 -471l45 385h260l-96 -385h-209zM119 0v1434h254v-1434h-254z" />
<glyph unicode="&#x13d;" horiz-adv-x="1226" d="M147 0v1434h285v-1176h735v-258h-1020zM616 956l11 478h270l-78 -478h-203z" />
<glyph unicode="&#x13e;" horiz-adv-x="657" d="M119 0v1434h254v-1434h-254zM453 967l8 467h270l-76 -467h-202z" />
<glyph unicode="&#x13f;" horiz-adv-x="1226" d="M147 0v1434h285v-1176h735v-258h-1020zM664 737q0 73 49 121.5t123 48.5q73 0 121.5 -49t48.5 -121q0 -71 -48.5 -120.5t-121.5 -49.5q-74 0 -123 49.5t-49 120.5z" />
<glyph unicode="&#x140;" horiz-adv-x="757" d="M119 0v1434h254v-1434h-254zM467 543q0 68 46.5 115t117.5 47q69 0 115.5 -47t46.5 -115t-47 -116t-115 -48q-71 0 -117.5 47.5t-46.5 116.5z" />
<glyph unicode="&#x141;" horiz-adv-x="1232" d="M-8 608l162 92v734h284v-570l338 195l103 -176l-441 -254v-371h736v-258h-1020v465l-58 -33z" />
<glyph unicode="&#x142;" horiz-adv-x="544" d="M-33 649l178 103v682h254v-535l74 43l105 -178l-179 -102v-662h-254v514l-73 -41z" />
<glyph unicode="&#x143;" horiz-adv-x="1579" d="M147 0v1436h267l737 -987v985h279v-1436h-267l-735 987v-985h-281zM680 1640l252 318l176 -174l-320 -252z" />
<glyph unicode="&#x144;" horiz-adv-x="1122" d="M119 0v913h243v-108q43 60 119 96.5t172 36.5q164 0 261.5 -104.5t97.5 -272.5v-561h-254v496q0 98 -48.5 154.5t-136.5 56.5q-91 0 -145.5 -61t-54.5 -161v-485h-254zM467 1139l268 331l176 -172l-336 -268z" />
<glyph unicode="&#x145;" horiz-adv-x="1579" d="M147 0v1436h267l737 -987v985h279v-1436h-267l-735 987v-985h-281zM612 -481l45 395h271l-101 -395h-215z" />
<glyph unicode="&#x146;" horiz-adv-x="1122" d="M119 0v913h243v-108q43 60 119 96.5t172 36.5q164 0 261.5 -104.5t97.5 -272.5v-561h-254v496q0 98 -48.5 154.5t-136.5 56.5q-91 0 -145.5 -61t-54.5 -161v-485h-254zM395 -471l45 385h260l-96 -385h-209z" />
<glyph unicode="&#x147;" horiz-adv-x="1579" d="M147 0v1436h267l737 -987v985h279v-1436h-267l-735 987v-985h-281zM408 1858h235l145 -150l146 150h235l-249 -322h-263z" />
<glyph unicode="&#x148;" horiz-adv-x="1122" d="M119 0v913h243v-108q43 60 119 96.5t172 36.5q164 0 261.5 -104.5t97.5 -272.5v-561h-254v496q0 98 -48.5 154.5t-136.5 56.5q-91 0 -145.5 -61t-54.5 -161v-485h-254zM197 1374h235l143 -157l144 157h235l-247 -325h-263z" />
<glyph unicode="&#x149;" horiz-adv-x="1437" d="M23 823l88 631h295l-175 -631h-208zM436 0v913h244v-108q43 60 119 96.5t172 36.5q164 0 261 -104.5t97 -272.5v-561h-254v496q0 98 -48 154.5t-136 56.5q-91 0 -146 -61t-55 -161v-485h-254z" />
<glyph unicode="&#x14a;" horiz-adv-x="1579" d="M147 0v1436h267l737 -987v985h279v-1512q0 -377 -349 -377q-136 0 -225 25v219q70 -12 141 -12q97 0 138 38.5t41 133.5v37l-748 999v-985h-281z" />
<glyph unicode="&#x14b;" horiz-adv-x="1122" d="M119 0v913h243v-106q44 59 119.5 95t171.5 36q164 0 261.5 -104.5t97.5 -272.5v-661q0 -355 -312 -355q-58 0 -145 17v223q37 -6 78 -6q66 0 95.5 35t29.5 114v568q0 98 -48.5 154.5t-136.5 56.5q-91 0 -145.5 -61t-54.5 -161v-485h-254z" />
<glyph unicode="&#x14c;" horiz-adv-x="1726" d="M111 717q0 205 99.5 375t272.5 268t381 98q155 0 294.5 -57.5t239.5 -156.5t159 -236.5t59 -290.5t-59 -291t-159 -236.5t-239.5 -156.5t-294.5 -58q-156 0 -295.5 58t-240 156.5t-159 236.5t-58.5 291zM403 717q0 -205 133.5 -340t327.5 -135q126 0 231 60.5t166.5 170 t61.5 244.5t-61.5 244.5t-166.5 170t-231 60.5q-194 0 -327.5 -135t-133.5 -340zM514 1540v201h700v-201h-700z" />
<glyph unicode="&#x14d;" horiz-adv-x="1114" d="M70 457q0 201 141.5 341t345.5 140q133 0 245 -64t177 -174.5t65 -242.5t-65 -242.5t-177 -174t-245 -63.5q-204 0 -345.5 139.5t-141.5 340.5zM215 1065v199h684v-199h-684zM332 457q0 -112 64 -182t161 -70t161 70t64 182t-64 182t-161 70t-161 -70t-64 -182z" />
<glyph unicode="&#x14e;" horiz-adv-x="1726" d="M111 717q0 205 99.5 375t272.5 268t381 98q155 0 294.5 -57.5t239.5 -156.5t159 -236.5t59 -290.5t-59 -291t-159 -236.5t-239.5 -156.5t-294.5 -58q-156 0 -295.5 58t-240 156.5t-159 236.5t-58.5 291zM403 717q0 -205 133.5 -340t327.5 -135q126 0 231 60.5t166.5 170 t61.5 244.5t-61.5 244.5t-166.5 170t-231 60.5q-194 0 -327.5 -135t-133.5 -340zM496 1849h213q6 -57 47 -90t108 -33t108.5 33t47.5 90h213q-7 -59 -30.5 -112t-65.5 -101t-112.5 -76t-160.5 -28q-73 0 -133 19t-100.5 50t-69.5 73t-44 85t-21 90z" />
<glyph unicode="&#x14f;" horiz-adv-x="1114" d="M70 457q0 201 141.5 341t345.5 140q133 0 245 -64t177 -174.5t65 -242.5t-65 -242.5t-177 -174t-245 -63.5q-204 0 -345.5 139.5t-141.5 340.5zM193 1364h213q6 -58 45.5 -92.5t105.5 -34.5t106 34.5t46 92.5h213q-6 -59 -28.5 -113t-64 -102.5t-112 -77.5t-160.5 -29 t-160.5 29t-111.5 77.5t-63.5 102.5t-28.5 113zM332 457q0 -112 64 -182t161 -70t161 70t64 182t-64 182t-161 70t-161 -70t-64 -182z" />
<glyph unicode="&#x150;" horiz-adv-x="1726" d="M111 717q0 205 99.5 375t272.5 268t381 98q155 0 294.5 -57.5t239.5 -156.5t159 -236.5t59 -290.5t-59 -291t-159 -236.5t-239.5 -156.5t-294.5 -58q-156 0 -295.5 58t-240 156.5t-159 236.5t-58.5 291zM403 717q0 -205 133.5 -340t327.5 -135q126 0 231 60.5t166.5 170 t61.5 244.5t-61.5 244.5t-166.5 170t-231 60.5q-194 0 -327.5 -135t-133.5 -340zM563 1608l162 350l207 -119l-230 -311zM971 1608l159 350l209 -119l-229 -311z" />
<glyph unicode="&#x151;" horiz-adv-x="1114" d="M70 457q0 201 141.5 341t345.5 140q133 0 245 -64t177 -174.5t65 -242.5t-65 -242.5t-177 -174t-245 -63.5q-204 0 -345.5 139.5t-141.5 340.5zM264 1116l162 359l207 -119l-230 -320zM332 457q0 -112 64 -182t161 -70t161 70t64 182t-64 182t-161 70t-161 -70t-64 -182z M655 1116l164 359l207 -119l-231 -320z" />
<glyph unicode="&#x152;" horiz-adv-x="2310" d="M113 717q0 200 94.5 363.5t265 258.5t383.5 95h1335v-254h-770v-332h719v-254h-719v-340h781v-254h-1346q-213 0 -383.5 95t-265 258.5t-94.5 363.5zM401 717q0 -201 128.5 -330t338.5 -129h271v918h-271q-210 0 -338.5 -129t-128.5 -330z" />
<glyph unicode="&#x153;" horiz-adv-x="1769" d="M70 457q0 201 141.5 341t345.5 140q105 0 195.5 -42t156.5 -116q63 74 152 116t194 42q187 0 317 -136.5t130 -330.5q0 -60 -6 -98h-656q22 -86 79.5 -134.5t137.5 -48.5q68 0 117 28t64 77h243q-28 -138 -140.5 -228t-295.5 -90q-100 0 -187.5 41t-150.5 113 q-65 -72 -155 -113t-195 -41q-204 0 -345.5 139.5t-141.5 340.5zM332 457q0 -112 64 -182t161 -70t161 70t64 182t-64 182t-161 70t-161 -70t-64 -182zM1042 545h408q-18 82 -73.5 130t-123.5 48q-78 0 -134.5 -48t-76.5 -130z" />
<glyph unicode="&#x154;" horiz-adv-x="1439" d="M147 0v1434h646q262 0 404 -130.5t142 -345.5q0 -171 -98 -292.5t-280 -163.5l387 -502h-320l-371 481h-225v-481h-285zM432 733h334q139 0 212 58t73 167q0 107 -73.5 165.5t-211.5 58.5h-334v-449zM610 1640l252 318l176 -174l-319 -252z" />
<glyph unicode="&#x155;" horiz-adv-x="757" d="M119 0v913h243v-141q40 69 113.5 109.5t171.5 40.5q39 0 70 -7v-237q-36 4 -90 4q-119 0 -186.5 -77t-67.5 -204v-401h-254zM334 1139l268 331l176 -172l-336 -268z" />
<glyph unicode="&#x156;" horiz-adv-x="1439" d="M147 0v1434h646q262 0 404 -130.5t142 -345.5q0 -171 -98 -292.5t-280 -163.5l387 -502h-320l-371 481h-225v-481h-285zM432 733h334q139 0 212 58t73 167q0 107 -73.5 165.5t-211.5 58.5h-334v-449zM547 -481l45 395h270l-100 -395h-215z" />
<glyph unicode="&#x157;" horiz-adv-x="757" d="M74 -473l45 385h260l-96 -385h-209zM119 0v913h243v-141q40 69 113.5 109.5t171.5 40.5q39 0 70 -7v-237q-36 4 -90 4q-119 0 -186.5 -77t-67.5 -204v-401h-254z" />
<glyph unicode="&#x158;" horiz-adv-x="1439" d="M147 0v1434h646q262 0 404 -130.5t142 -345.5q0 -171 -98 -292.5t-280 -163.5l387 -502h-320l-371 481h-225v-481h-285zM338 1862h235l146 -150l145 150h236l-250 -322h-262zM432 733h334q139 0 212 58t73 167q0 107 -73.5 165.5t-211.5 58.5h-334v-449z" />
<glyph unicode="&#x159;" horiz-adv-x="755" d="M63 1374h236l143 -157l144 157h235l-248 -325h-262zM119 0v913h243v-141q40 69 113.5 109.5t171.5 40.5q39 0 70 -7v-237q-36 4 -90 4q-119 0 -186.5 -77t-67.5 -204v-401h-254z" />
<glyph unicode="&#x15a;" horiz-adv-x="1308" d="M80 403h276q11 -85 90.5 -130.5t217.5 -45.5q125 0 197.5 46.5t72.5 129.5q0 72 -55 116.5t-183 68.5l-159 33q-431 83 -431 417q0 193 139.5 305.5t391.5 112.5q242 0 382 -108.5t159 -294.5h-275q-13 73 -83 113t-181 40q-117 0 -182.5 -43t-65.5 -125q0 -76 60.5 -116 t197.5 -66l162 -33q214 -42 312 -141t98 -262q0 -215 -151 -329t-408 -114t-411 113t-171 313zM520 1645l252 317l176 -174l-319 -252z" />
<glyph unicode="&#x15b;" horiz-adv-x="866" d="M47 272h234q4 -46 44.5 -71t106.5 -25q60 0 97.5 20.5t37.5 63.5q0 42 -27 61.5t-112 34.5l-80 17q-282 49 -282 282q0 129 98.5 205t257.5 76q185 0 275 -79.5t102 -207.5h-232q-5 40 -39 64t-90 24q-54 0 -88.5 -21.5t-34.5 -58.5q0 -46 34.5 -65t115.5 -33l80 -12 q274 -45 274 -283q0 -135 -102.5 -211t-282.5 -76q-177 0 -276.5 82t-110.5 213zM313 1139l269 331l176 -172l-336 -268z" />
<glyph unicode="&#x15c;" horiz-adv-x="1308" d="M80 403h276q11 -85 90.5 -130.5t217.5 -45.5q125 0 197.5 46.5t72.5 129.5q0 72 -55 116.5t-183 68.5l-159 33q-431 83 -431 417q0 193 139.5 305.5t391.5 112.5q242 0 382 -108.5t159 -294.5h-275q-13 73 -83 113t-181 40q-117 0 -182.5 -43t-65.5 -125q0 -76 60.5 -116 t197.5 -66l162 -33q214 -42 312 -141t98 -262q0 -215 -151 -329t-408 -114t-411 113t-171 313zM262 1540l250 322h262l250 -322h-236l-145 150l-145 -150h-236z" />
<glyph unicode="&#x15d;" horiz-adv-x="866" d="M45 1049l248 325h262l248 -325h-236l-143 155l-143 -155h-236zM47 272h234q4 -46 44.5 -71t106.5 -25q60 0 97.5 20.5t37.5 63.5q0 42 -27 61.5t-112 34.5l-80 17q-282 49 -282 282q0 129 98.5 205t257.5 76q185 0 275 -79.5t102 -207.5h-232q-5 40 -39 64t-90 24 q-54 0 -88.5 -21.5t-34.5 -58.5q0 -46 34.5 -65t115.5 -33l80 -12q274 -45 274 -283q0 -135 -102.5 -211t-282.5 -76q-177 0 -276.5 82t-110.5 213z" />
<glyph unicode="&#x15e;" horiz-adv-x="1308" d="M80 403h276q11 -85 90.5 -130.5t217.5 -45.5q125 0 197.5 46.5t72.5 129.5q0 72 -55 116.5t-183 68.5l-159 33q-431 83 -431 417q0 193 139.5 305.5t391.5 112.5q242 0 382 -108.5t159 -294.5h-275q-13 73 -83 113t-181 40q-117 0 -182.5 -43t-65.5 -125q0 -76 60.5 -116 t197.5 -66l162 -33q214 -42 312 -141t98 -262q0 -189 -119.5 -300.5t-327.5 -135.5l-94 -326h-250l119 326q-210 23 -333 132.5t-136 286.5z" />
<glyph unicode="&#x15f;" horiz-adv-x="866" d="M47 272h234q4 -46 44.5 -71t106.5 -25q60 0 97.5 20.5t37.5 63.5q0 42 -27 61.5t-112 34.5l-80 17q-282 49 -282 282q0 129 98.5 205t257.5 76q185 0 275 -79.5t102 -207.5h-232q-5 40 -39 64t-90 24q-54 0 -88.5 -21.5t-34.5 -58.5q0 -46 34.5 -65t115.5 -33l80 -12 q274 -45 274 -283q0 -111 -70.5 -182.5t-197.5 -93.5l-90 -322h-242l117 320q-132 21 -206 98t-83 188z" />
<glyph unicode="&#x160;" horiz-adv-x="1308" d="M80 403h276q11 -85 90.5 -130.5t217.5 -45.5q125 0 197.5 46.5t72.5 129.5q0 72 -55 116.5t-183 68.5l-159 33q-431 83 -431 417q0 193 139.5 305.5t391.5 112.5q242 0 382 -108.5t159 -294.5h-275q-13 73 -83 113t-181 40q-117 0 -182.5 -43t-65.5 -125q0 -76 60.5 -116 t197.5 -66l162 -33q214 -42 312 -141t98 -262q0 -215 -151 -329t-408 -114t-411 113t-171 313zM262 1862h236l145 -150l145 150h236l-250 -322h-262z" />
<glyph unicode="&#x161;" horiz-adv-x="866" d="M45 1374h236l143 -157l143 157h236l-248 -325h-262zM47 272h234q4 -46 44.5 -71t106.5 -25q60 0 97.5 20.5t37.5 63.5q0 42 -27 61.5t-112 34.5l-80 17q-282 49 -282 282q0 129 98.5 205t257.5 76q185 0 275 -79.5t102 -207.5h-232q-5 40 -39 64t-90 24 q-54 0 -88.5 -21.5t-34.5 -58.5q0 -46 34.5 -65t115.5 -33l80 -12q274 -45 274 -283q0 -135 -102.5 -211t-282.5 -76q-177 0 -276.5 82t-110.5 213z" />
<glyph unicode="&#x162;" horiz-adv-x="1255" d="M43 1176v258h1169v-258h-442v-1176h-285v1176h-442zM453 -481l45 395h270l-100 -395h-215z" />
<glyph unicode="&#x163;" horiz-adv-x="833" d="M43 690v223h174v277h246v-277h297v-223h-297v-330q0 -84 37.5 -116.5t122.5 -32.5q76 0 143 18v-219q-86 -28 -199 -28q-174 0 -266 76.5t-92 260.5v371h-166zM373 -471l45 385h260l-96 -385h-209z" />
<glyph unicode="&#x164;" horiz-adv-x="1255" d="M43 1176v258h1169v-258h-442v-1176h-285v1176h-442zM248 1862h235l146 -150l145 150h236l-250 -322h-262z" />
<glyph unicode="&#x165;" horiz-adv-x="833" d="M43 690v223h174v277h246v-277h297v-223h-297v-330q0 -84 37.5 -116.5t122.5 -32.5q76 0 143 18v-219q-86 -28 -199 -28q-174 0 -266 76.5t-92 260.5v371h-166zM573 1020l9 467h270l-76 -467h-203z" />
<glyph unicode="&#x166;" horiz-adv-x="1255" d="M43 1176v258h1169v-258h-442v-408h244v-205h-244v-563h-285v563h-241v205h241v408h-442z" />
<glyph unicode="&#x167;" horiz-adv-x="833" d="M43 690v223h174v277h246v-277h297v-223h-297v-129h268v-184h-268v-17q0 -84 37.5 -116.5t122.5 -32.5q76 0 143 18v-219q-86 -28 -199 -28q-174 0 -266 76.5t-92 260.5v58h-156v184h156v129h-166z" />
<glyph unicode="&#x168;" horiz-adv-x="1527" d="M141 586v848h287v-816q0 -194 88.5 -287t249.5 -93t249.5 93t88.5 287v816h282v-848q0 -150 -48 -268t-133 -192t-197 -112.5t-244 -38.5t-244.5 38.5t-197.5 112.5t-133 192t-48 268zM395 1565q21 104 76.5 171.5t149.5 67.5q54 0 141.5 -39t122.5 -39q66 0 90 74 l158 -28q-21 -105 -76 -172.5t-150 -67.5q-54 0 -141 39t-123 39q-66 0 -88 -74z" />
<glyph unicode="&#x169;" horiz-adv-x="1118" d="M111 352v561h254v-493q0 -100 46.5 -156.5t133.5 -56.5q92 0 146 60.5t54 160.5v485h254v-913h-245v106q-43 -59 -118.5 -94t-170.5 -35q-163 0 -258.5 104t-95.5 271zM195 1077q10 50 26.5 91t42.5 76.5t64.5 56t87.5 20.5q54 0 138 -39t120 -39q33 0 52.5 18t31.5 56 l157 -29q-50 -244 -221 -244q-54 0 -137.5 39t-120.5 39q-60 0 -82 -73z" />
<glyph unicode="&#x16a;" horiz-adv-x="1527" d="M141 586v848h287v-816q0 -194 88.5 -287t249.5 -93t249.5 93t88.5 287v816h282v-848q0 -150 -48 -268t-133 -192t-197 -112.5t-244 -38.5t-244.5 38.5t-197.5 112.5t-133 192t-48 268zM414 1540v201h700v-201h-700z" />
<glyph unicode="&#x16b;" horiz-adv-x="1118" d="M111 352v561h254v-493q0 -100 46.5 -156.5t133.5 -56.5q92 0 146 60.5t54 160.5v485h254v-913h-245v106q-43 -59 -118.5 -94t-170.5 -35q-163 0 -258.5 104t-95.5 271zM213 1065v199h684v-199h-684z" />
<glyph unicode="&#x16c;" horiz-adv-x="1527" d="M141 586v848h287v-816q0 -194 88.5 -287t249.5 -93t249.5 93t88.5 287v816h282v-848q0 -150 -48 -268t-133 -192t-197 -112.5t-244 -38.5t-244.5 38.5t-197.5 112.5t-133 192t-48 268zM395 1849h213q6 -57 47.5 -90t108.5 -33t108.5 33t47.5 90h213q-7 -59 -30.5 -112 t-65.5 -101t-112.5 -76t-160.5 -28t-160.5 28t-112.5 76t-65.5 101t-30.5 112z" />
<glyph unicode="&#x16d;" horiz-adv-x="1118" d="M111 352v561h254v-493q0 -100 46.5 -156.5t133.5 -56.5q92 0 146 60.5t54 160.5v485h254v-913h-245v106q-43 -59 -118.5 -94t-170.5 -35q-163 0 -258.5 104t-95.5 271zM190 1364h213q6 -58 46 -92.5t106 -34.5t106 34.5t46 92.5h213q-6 -59 -28.5 -113t-64 -102.5 t-112 -77.5t-160.5 -29t-160.5 29t-112 77.5t-64 102.5t-28.5 113z" />
<glyph unicode="&#x16e;" horiz-adv-x="1527" d="M141 586v848h287v-816q0 -194 88.5 -287t249.5 -93t249.5 93t88.5 287v816h282v-848q0 -150 -48 -268t-133 -192t-197 -112.5t-244 -38.5t-244.5 38.5t-197.5 112.5t-133 192t-48 268zM520 1769q0 99 71 168.5t173 69.5q103 0 173.5 -69.5t70.5 -168.5q0 -101 -70 -169 t-174 -68q-103 0 -173.5 68t-70.5 169zM657 1769q0 -47 30.5 -77.5t76.5 -30.5t77 30.5t31 77.5q0 46 -31 76.5t-77 30.5t-76.5 -30.5t-30.5 -76.5z" />
<glyph unicode="&#x16f;" horiz-adv-x="1118" d="M111 352v561h254v-493q0 -100 46.5 -156.5t133.5 -56.5q92 0 146 60.5t54 160.5v485h254v-913h-245v106q-43 -59 -118.5 -94t-170.5 -35q-163 0 -258.5 104t-95.5 271zM311 1270q0 99 71 168t173 69q104 0 174 -69t70 -168q0 -101 -70 -169.5t-174 -68.5 q-103 0 -173.5 68.5t-70.5 169.5zM449 1270q0 -47 30 -78t76 -31t77.5 31t31.5 78q0 45 -31.5 75.5t-77.5 30.5t-76 -30t-30 -76z" />
<glyph unicode="&#x170;" horiz-adv-x="1527" d="M141 586v848h287v-816q0 -194 88.5 -287t249.5 -93t249.5 93t88.5 287v816h282v-848q0 -150 -48 -268t-133 -192t-197 -112.5t-244 -38.5t-244.5 38.5t-197.5 112.5t-133 192t-48 268zM463 1608l162 350l206 -119l-229 -311zM870 1608l160 350l209 -119l-229 -311z" />
<glyph unicode="&#x171;" horiz-adv-x="1118" d="M111 352v561h254v-493q0 -100 46.5 -156.5t133.5 -56.5q92 0 146 60.5t54 160.5v485h254v-913h-245v106q-43 -59 -118.5 -94t-170.5 -35q-163 0 -258.5 104t-95.5 271zM262 1116l162 359l207 -119l-230 -320zM653 1116l164 359l207 -119l-231 -320z" />
<glyph unicode="&#x172;" horiz-adv-x="1527" d="M141 586v848h287v-816q0 -194 88.5 -287t249.5 -93t249.5 93t88.5 287v816h282v-848q0 -219 -97.5 -363t-266.5 -205q-65 -32 -103 -73.5t-38 -87.5q0 -40 26.5 -60t63.5 -20q63 0 125 24l53 -129q-43 -32 -110 -55t-136 -23q-106 0 -175 52.5t-69 144.5q0 104 86 184 q-129 3 -238 43t-191 114t-128.5 190.5t-46.5 263.5z" />
<glyph unicode="&#x173;" horiz-adv-x="1118" d="M111 352v561h254v-493q0 -100 46.5 -156.5t133.5 -56.5q92 0 146 60.5t54 160.5v485h254v-913h-6q-166 -72 -166 -158q0 -28 23.5 -43.5t58.5 -15.5q56 0 109 24l53 -135q-34 -28 -99.5 -48.5t-129.5 -20.5q-102 0 -168 45.5t-66 128.5q0 131 150 223h-4v106 q-43 -59 -118.5 -94t-170.5 -35q-163 0 -258.5 104t-95.5 271z" />
<glyph unicode="&#x174;" horiz-adv-x="2283" d="M43 1434h301l330 -1028l336 1028h272l332 -1035l340 1035h287l-484 -1436h-291l-325 1032l-328 -1032h-287zM760 1540l250 322h262l250 -322h-236l-145 150l-146 -150h-235z" />
<glyph unicode="&#x175;" horiz-adv-x="1648" d="M33 913h276l201 -581l219 581h232l196 -579l213 579h246l-346 -915h-240l-205 592l-213 -592h-235zM446 1049l248 325h262l248 -325h-235l-144 155l-143 -155h-236z" />
<glyph unicode="&#x176;" horiz-adv-x="1454" d="M16 1434h324l387 -635l391 635h322l-572 -906v-528h-282v526zM346 1540l250 322h262l250 -322h-236l-145 150l-145 -150h-236z" />
<glyph unicode="&#x177;" horiz-adv-x="1052" d="M25 913h282l228 -499l221 499h274l-624 -1355h-275l270 577zM158 1049l248 325h262l247 -325h-235l-143 155l-144 -155h-235z" />
<glyph unicode="&#x178;" horiz-adv-x="1454" d="M16 1434h324l387 -635l391 635h322l-572 -906v-528h-282v526zM346 1677q0 67 42.5 110.5t109.5 43.5t110 -44t43 -110q0 -67 -42.5 -110t-110.5 -43q-67 0 -109.5 42.5t-42.5 110.5zM803 1677q0 66 43 110t110 44t109.5 -43.5t42.5 -110.5q0 -68 -42.5 -110.5 t-109.5 -42.5q-68 0 -110.5 43t-42.5 110z" />
<glyph unicode="&#x179;" horiz-adv-x="1380" d="M102 0v201l775 979h-768v254h1157v-201l-772 -979h780v-254h-1172zM571 1640l252 318l176 -174l-319 -252z" />
<glyph unicode="&#x17a;" horiz-adv-x="983" d="M80 0v174l461 516h-441v223h801v-174l-461 -514h463v-225h-823zM393 1139l269 331l176 -172l-336 -268z" />
<glyph unicode="&#x17b;" horiz-adv-x="1380" d="M102 0v201l775 979h-768v254h1157v-201l-772 -979h780v-254h-1172zM522 1692q0 68 45.5 113.5t114.5 45.5t114.5 -45.5t45.5 -113.5q0 -69 -45.5 -114.5t-114.5 -45.5t-114.5 45.5t-45.5 114.5z" />
<glyph unicode="&#x17c;" horiz-adv-x="983" d="M80 0v174l461 516h-441v223h801v-174l-461 -514h463v-225h-823zM348 1202q0 66 43.5 110t110.5 44t110 -44t43 -110q0 -68 -42.5 -110.5t-110.5 -42.5t-111 43t-43 110z" />
<glyph unicode="&#x17d;" horiz-adv-x="1380" d="M102 0v201l775 979h-768v254h1157v-201l-772 -979h780v-254h-1172zM301 1862h236l145 -150l145 150h236l-250 -322h-262z" />
<glyph unicode="&#x17e;" horiz-adv-x="983" d="M80 0v174l461 516h-441v223h801v-174l-461 -514h463v-225h-823zM123 1374h235l144 -157l143 157h236l-248 -325h-262z" />
<glyph unicode="&#x17f;" horiz-adv-x="581" d="M119 0v1036q0 416 358 416q103 0 180 -22v-218q-53 9 -118 9q-87 0 -126.5 -52t-39.5 -161v-1008h-254z" />
<glyph unicode="&#x18f;" horiz-adv-x="1687" d="M106 694q0 82 13 140h1153q-33 164 -152 263t-291 99q-148 0 -249 -65t-146 -173h-299q51 222 247 361t454 139q158 0 296 -57.5t235 -156.5t152.5 -236t55.5 -291q0 -205 -97.5 -375.5t-269 -268.5t-379.5 -98q-144 0 -273.5 47.5t-230 136t-160 227t-59.5 308.5z M393 594q11 -154 130.5 -255t299.5 -101q169 0 290 97.5t157 258.5h-877z" />
<glyph unicode="&#x192;" horiz-adv-x="1353" d="M231 -438l25 233q38 -6 76 -6q68 0 99.5 31.5t41.5 118.5l64 563h-191l25 227h192l37 313q26 216 120.5 313t278.5 97q119 0 183 -22l-23 -230q-58 10 -115 10q-91 0 -133 -43.5t-57 -152.5l-35 -285h266l-24 -227h-268l-70 -602q-20 -171 -99.5 -263t-238.5 -92 q-71 0 -154 17z" />
<glyph unicode="&#x1fa;" horiz-adv-x="1554" d="M27 0l616 1436h270l615 -1436h-293l-131 322h-655l-132 -322h-290zM553 580h444l-221 544z" />
<glyph unicode="&#x1fb;" d="M70 457q0 204 124 342.5t312 138.5q174 0 282 -127v102h246v-913h-246v102q-109 -125 -280 -125q-189 0 -313.5 138.5t-124.5 341.5zM309 1260q0 99 71 168t173 69q104 0 174 -69t70 -168q0 -101 -70 -169.5t-174 -68.5q-103 0 -173.5 68.5t-70.5 169.5zM332 457 q0 -114 63 -185t158 -71q99 0 164 71t65 185t-65 185t-164 71q-95 0 -158 -71t-63 -185zM444 1659l269 332l176 -172l-336 -269zM446 1260q0 -47 30.5 -78t76.5 -31t77.5 31t31.5 78q0 45 -31.5 75.5t-77.5 30.5t-76.5 -30t-30.5 -76z" />
<glyph unicode="&#x1fc;" horiz-adv-x="2301" d="M14 0l996 1434h1173v-254h-770v-332h719v-254h-719v-340h780v-254h-1063v324h-579l-221 -324h-316zM721 571h409v598zM1098 1640l252 318l176 -174l-320 -252z" />
<glyph unicode="&#x1fd;" horiz-adv-x="1665" d="M68 260q0 130 94.5 201t263.5 71h258q3 30 12 56q-19 135 -174 135q-139 0 -162 -94h-245q8 130 116.5 219.5t298.5 89.5q204 0 308 -125q135 125 305 125q190 0 322 -137.5t132 -335.5q0 -69 -6 -107h-651q23 -78 80.5 -123t134.5 -45q67 0 115 28t63 77h246 q-29 -137 -144.5 -227.5t-293.5 -90.5q-99 0 -187.5 40t-152.5 110q-117 -145 -369 -145q-72 0 -135 16t-115.5 48t-83 87t-30.5 127zM317 268q0 -90 148 -90q99 0 160 36t71 108q-8 24 -10 36h-217q-152 0 -152 -90zM729 1139l268 331l177 -172l-336 -268zM936 532h412 q-14 88 -71.5 139.5t-127.5 51.5q-81 0 -137.5 -52t-75.5 -139z" />
<glyph unicode="&#x1fe;" horiz-adv-x="1734" d="M115 717q0 205 99.5 375t272.5 268t381 98q243 0 439 -137l129 135l151 -141l-129 -133q162 -202 162 -465q0 -153 -59 -291t-159 -236.5t-239.5 -156.5t-294.5 -58q-245 0 -440 136l-129 -134l-149 142l126 133q-161 197 -161 465zM408 717q0 -147 71 -264l639 665 q-113 74 -250 74q-194 0 -327 -135t-133 -340zM614 315q115 -73 254 -73q126 0 231 60.5t166.5 170t61.5 244.5q0 147 -74 264zM756 1645l252 317l176 -174l-320 -252z" />
<glyph unicode="&#x1ff;" horiz-adv-x="1118" d="M72 457q0 201 141.5 341t345.5 140q147 0 272 -82l64 66l113 -103l-64 -67q103 -134 103 -295q0 -132 -65.5 -242.5t-177.5 -174t-245 -63.5q-149 0 -270 78l-66 -67l-112 104l63 66q-102 127 -102 299zM334 457q0 -66 22 -121l320 340q-50 35 -117 35q-97 0 -161 -70 t-64 -184zM444 236q51 -31 115 -31q97 0 161 70t64 182q0 64 -22 116zM461 1153l268 332l176 -172l-336 -269z" />
<glyph unicode="&#x218;" horiz-adv-x="1308" d="M80 403h276q11 -85 90.5 -130.5t217.5 -45.5q125 0 197.5 46.5t72.5 129.5q0 72 -55 116.5t-183 68.5l-159 33q-431 83 -431 417q0 193 139.5 305.5t391.5 112.5q242 0 382 -108.5t159 -294.5h-275q-13 73 -83 113t-181 40q-117 0 -182.5 -43t-65.5 -125q0 -76 60.5 -116 t197.5 -66l162 -33q214 -42 312 -141t98 -262q0 -215 -151 -329t-408 -114t-411 113t-171 313zM485 -481l45 395h271l-101 -395h-215z" />
<glyph unicode="&#x219;" horiz-adv-x="866" d="M47 272h234q4 -46 44.5 -71t106.5 -25q60 0 97.5 20.5t37.5 63.5q0 42 -27 61.5t-112 34.5l-80 17q-282 49 -282 282q0 129 98.5 205t257.5 76q185 0 275 -79.5t102 -207.5h-232q-5 40 -39 64t-90 24q-54 0 -88.5 -21.5t-34.5 -58.5q0 -46 34.5 -65t115.5 -33l80 -12 q274 -45 274 -283q0 -135 -102.5 -211t-282.5 -76q-177 0 -276.5 82t-110.5 213zM285 -471l45 385h260l-96 -385h-209z" />
<glyph unicode="&#x21a;" horiz-adv-x="1255" d="M43 1176v258h1169v-258h-442v-1176h-285v1176h-442zM453 -481l45 395h270l-100 -395h-215z" />
<glyph unicode="&#x21b;" horiz-adv-x="833" d="M43 690v223h174v277h246v-277h297v-223h-297v-330q0 -84 37.5 -116.5t122.5 -32.5q76 0 143 18v-219q-86 -28 -199 -28q-174 0 -266 76.5t-92 260.5v371h-166zM373 -471l45 385h260l-96 -385h-209z" />
<glyph unicode="&#x2c6;" horiz-adv-x="1024" d="M133 1049l248 325h262l248 -325h-236l-143 155l-143 -155h-236z" />
<glyph unicode="&#x2da;" horiz-adv-x="1024" d="M268 1270q0 99 71 168t173 69q104 0 174 -69t70 -168q0 -101 -70 -169.5t-174 -68.5q-103 0 -173.5 68.5t-70.5 169.5zM406 1270q0 -47 30 -78t76 -31t77.5 31t31.5 78q0 45 -31.5 75.5t-77.5 30.5t-76 -30t-30 -76z" />
<glyph unicode="&#x2dc;" horiz-adv-x="1024" d="M152 1077q10 50 26.5 91t42.5 76.5t64.5 56t87.5 20.5q54 0 138 -39t120 -39q33 0 52.5 18t31.5 56l157 -29q-50 -244 -221 -244q-54 0 -137.5 39t-120.5 39q-60 0 -82 -73z" />
<glyph unicode="&#x1e80;" horiz-adv-x="2283" d="M43 1434h301l330 -1028l336 1028h272l332 -1035l340 1035h287l-484 -1436h-291l-325 1032l-328 -1032h-287zM823 1784l176 174l252 -318l-108 -108z" />
<glyph unicode="&#x1e81;" horiz-adv-x="1648" d="M33 913h276l201 -581l219 581h232l196 -579l213 579h246l-346 -915h-240l-205 592l-213 -592h-235zM492 1298l176 172l268 -331l-109 -109z" />
<glyph unicode="&#x1e82;" horiz-adv-x="2283" d="M43 1434h301l330 -1028l336 1028h272l332 -1035l340 1035h287l-484 -1436h-291l-325 1032l-328 -1032h-287zM1032 1640l252 318l176 -174l-319 -252z" />
<glyph unicode="&#x1e83;" horiz-adv-x="1648" d="M33 913h276l201 -581l219 581h232l196 -579l213 579h246l-346 -915h-240l-205 592l-213 -592h-235zM717 1139l268 331l176 -172l-336 -268z" />
<glyph unicode="&#x1e84;" horiz-adv-x="2283" d="M43 1434h301l330 -1028l336 1028h272l332 -1035l340 1035h287l-484 -1436h-291l-325 1032l-328 -1032h-287zM756 1679q0 67 42 110.5t109 43.5t110.5 -44t43.5 -110q0 -67 -43 -110t-111 -43q-67 0 -109 42.5t-42 110.5zM1212 1679q0 66 43.5 110t110.5 44t109.5 -43.5 t42.5 -110.5q0 -68 -42.5 -110.5t-109.5 -42.5q-68 0 -111 43t-43 110z" />
<glyph unicode="&#x1e85;" horiz-adv-x="1648" d="M33 913h276l201 -581l219 581h232l196 -579l213 579h246l-346 -915h-240l-205 592l-213 -592h-235zM455 1202q0 66 43 110t110 44t110.5 -44t43.5 -110q0 -67 -43 -110t-111 -43t-110.5 42.5t-42.5 110.5zM889 1202q0 66 43 110t110 44t110.5 -44t43.5 -110 q0 -67 -43 -110t-111 -43t-110.5 42.5t-42.5 110.5z" />
<glyph unicode="&#x1ef2;" horiz-adv-x="1454" d="M16 1434h324l387 -635l391 635h322l-572 -906v-528h-282v526zM408 1784l176 174l252 -318l-109 -108z" />
<glyph unicode="&#x1ef3;" horiz-adv-x="1052" d="M25 913h282l228 -499l221 499h274l-624 -1355h-275l270 577zM201 1298l176 172l268 -331l-108 -109z" />
<glyph unicode="&#x2000;" horiz-adv-x="1003" />
<glyph unicode="&#x2001;" horiz-adv-x="2007" />
<glyph unicode="&#x2002;" horiz-adv-x="1003" />
<glyph unicode="&#x2003;" horiz-adv-x="2007" />
<glyph unicode="&#x2004;" horiz-adv-x="669" />
<glyph unicode="&#x2005;" horiz-adv-x="501" />
<glyph unicode="&#x2006;" horiz-adv-x="334" />
<glyph unicode="&#x2007;" horiz-adv-x="334" />
<glyph unicode="&#x2008;" horiz-adv-x="250" />
<glyph unicode="&#x2009;" horiz-adv-x="401" />
<glyph unicode="&#x200a;" horiz-adv-x="111" />
<glyph unicode="&#x2010;" horiz-adv-x="821" d="M82 340v229h657v-229h-657z" />
<glyph unicode="&#x2011;" horiz-adv-x="821" d="M82 340v229h657v-229h-657z" />
<glyph unicode="&#x2012;" horiz-adv-x="821" d="M82 340v229h657v-229h-657z" />
<glyph unicode="&#x2013;" horiz-adv-x="985" d="M53 346v217h879v-217h-879z" />
<glyph unicode="&#x2014;" horiz-adv-x="1210" d="M29 346v217h1153v-217h-1153z" />
<glyph unicode="&#x2018;" horiz-adv-x="552" d="M106 823l175 631h206l-88 -631h-293z" />
<glyph unicode="&#x2019;" horiz-adv-x="557" d="M68 823l88 631h295l-175 -631h-208z" />
<glyph unicode="&#x201a;" horiz-adv-x="557" d="M68 -315l88 630h295l-175 -630h-208z" />
<glyph unicode="&#x201c;" horiz-adv-x="1005" d="M106 823l175 631h206l-88 -631h-293zM555 823l174 631h207l-88 -631h-293z" />
<glyph unicode="&#x201d;" horiz-adv-x="1005" d="M68 823l88 631h295l-175 -631h-208zM516 823l88 631h295l-174 -631h-209z" />
<glyph unicode="&#x201e;" horiz-adv-x="1005" d="M68 -315l88 630h295l-175 -630h-208zM516 -315l88 630h295l-174 -630h-209z" />
<glyph unicode="&#x2026;" horiz-adv-x="1630" d="M100 158q0 72 49 121t123 49q73 0 121.5 -49t48.5 -121t-48.5 -121t-121.5 -49q-74 0 -123 49t-49 121zM643 158q0 72 49.5 121t122.5 49t122.5 -49t49.5 -121t-49.5 -121t-122.5 -49t-122.5 49t-49.5 121zM1186 158q0 72 49.5 121t122.5 49t122.5 -49t49.5 -121 t-49.5 -121t-122.5 -49t-122.5 49t-49.5 121z" />
<glyph unicode="&#x202f;" horiz-adv-x="401" />
<glyph unicode="&#x2039;" horiz-adv-x="626" d="M68 465l219 389h264l-219 -389l219 -387h-264z" />
<glyph unicode="&#x203a;" horiz-adv-x="626" d="M76 78l219 387l-219 389h264l219 -389l-219 -387h-264z" />
<glyph unicode="&#x205f;" horiz-adv-x="501" />
<glyph unicode="&#x20ac;" horiz-adv-x="1351" d="M8 461v209h137v47q0 33 2 49h-139v207h178q75 219 263.5 352t439.5 133q123 0 239.5 -28.5t202.5 -79.5l-121 -222q-53 31 -136 47.5t-167 16.5q-144 0 -248 -57t-161 -162h581v-207h-637q-2 -16 -2 -49v-47h451v-209h-393q56 -104 161 -161.5t248 -57.5q84 0 167.5 16 t137.5 47l121 -221q-88 -51 -205 -80t-239 -29q-251 0 -439.5 133t-263.5 353h-178z" />
<glyph unicode="&#x2122;" horiz-adv-x="1613" d="M49 1276v158h582v-158h-203v-490h-176v490h-203zM741 786v648h189l203 -351l206 351h183v-648h-174v400l-164 -279h-105l-161 275v-396h-177z" />
<glyph unicode="&#x25fc;" horiz-adv-x="911" d="M0 0v911h911v-911h-911z" />
</font>
</defs>
</svg>
