<?xml version="1.0" standalone="no"?>
<!DOCTYPE svg PUBLIC "-//W3C//DTD SVG 1.1//EN" "http://www.w3.org/Graphics/SVG/1.1/DTD/svg11.dtd" >
<svg xmlns="http://www.w3.org/2000/svg" xmlns:xlink="http://www.w3.org/1999/xlink" version="1.1">
<metadata></metadata>
<defs>
<font id="soin_sans_neuelight" horiz-adv-x="1173" >
<font-face units-per-em="2048" ascent="1536" descent="-512" />
<missing-glyph horiz-adv-x="499" />
<glyph horiz-adv-x="0" />
<glyph horiz-adv-x="682" />
<glyph horiz-adv-x="0" />
<glyph horiz-adv-x="0" />
<glyph unicode="&#xd;" horiz-adv-x="1024" />
<glyph unicode=" "  horiz-adv-x="499" />
<glyph unicode="&#x09;" horiz-adv-x="499" />
<glyph unicode="&#xa0;" horiz-adv-x="499" />
<glyph unicode="!" horiz-adv-x="567" d="M188 84q0 41 27 67.5t68 26.5q42 0 68 -26t26 -68q0 -40 -26 -67t-68 -27q-41 0 -68 27t-27 67zM217 1321v113h133v-113q0 -429 -24 -907h-84q-25 436 -25 907z" />
<glyph unicode="&#x22;" horiz-adv-x="856" d="M188 1454h127l-12 -590h-102zM543 1454h127l-13 -590h-102z" />
<glyph unicode="#" horiz-adv-x="1441" d="M113 385v104h233l84 455h-235v105h256l71 385h117l-72 -385h430l72 385h117l-72 -385h217v-105h-237l-84 -455h239v-104h-258l-71 -385h-117l71 385h-430l-71 -385h-117l72 385h-215zM463 489h430l84 455h-430z" />
<glyph unicode="$" horiz-adv-x="1327" d="M123 342h121q17 -114 115 -177.5t264 -72.5v582l-84 18q-385 86 -385 377q0 178 124.5 277t344.5 104v188h108v-192q178 -17 283 -102t125 -224h-117q-18 91 -91.5 147.5t-199.5 69.5v-567l111 -25q173 -37 259.5 -125.5t86.5 -234.5q0 -183 -124 -285t-333 -114v-191 h-108v191q-217 9 -348.5 100.5t-151.5 255.5zM276 1073q0 -109 79.5 -173t226.5 -95l41 -10v546q-167 -5 -257 -72t-90 -196zM731 94q155 12 243.5 86t88.5 199q0 196 -262 256l-70 14v-555z" />
<glyph unicode="%" horiz-adv-x="1970" d="M111 1081q0 154 101.5 259.5t254.5 105.5q154 0 256 -105.5t102 -259.5t-102 -259t-256 -105q-153 0 -254.5 105.5t-101.5 258.5zM223 1081q0 -111 69.5 -184.5t174.5 -73.5q107 0 176.5 73.5t69.5 184.5t-69.5 184.5t-176.5 73.5q-105 0 -174.5 -73.5t-69.5 -184.5z M469 0l905 1434h129l-905 -1434h-129zM1145 352q0 153 102.5 259t255.5 106t256 -106t103 -259t-103 -258.5t-256 -105.5t-255.5 105.5t-102.5 258.5zM1260 352q0 -111 69 -184.5t174 -73.5t174.5 73.5t69.5 184.5t-69.5 184.5t-174.5 73.5t-174 -73.5t-69 -184.5z" />
<glyph unicode="&#x26;" horiz-adv-x="1425" d="M127 358q0 47 10.5 90.5t25 77t43.5 70.5t50.5 60.5t64 57.5t66 51t72.5 52l33 23q-34 39 -48.5 55.5t-44 56t-43 66.5t-25.5 66t-12 75q0 132 81 211.5t221 79.5q129 0 211.5 -74t82.5 -205q0 -55 -17.5 -102.5t-52.5 -87.5t-69.5 -69.5t-85.5 -65.5l-33 -23l363 -420 q55 63 246 302l84 -72q-168 -210 -258 -311l276 -322h-151l-205 236q-124 -125 -240 -189.5t-244 -64.5q-167 0 -284 102t-117 274zM254 362q0 -121 80 -194.5t194 -73.5q104 0 203.5 56.5t208.5 168.5l-377 437l-39 -27q-58 -40 -89.5 -64t-71.5 -61.5t-60 -69.5 t-34.5 -76.5t-14.5 -95.5zM436 1165q0 -28 10.5 -58t20.5 -50t38 -55.5t38 -46.5t45 -50l30 23q39 28 65 49.5t54.5 52.5t43 66.5t14.5 74.5q0 79 -48 128t-126 49q-88 0 -136.5 -48.5t-48.5 -134.5z" />
<glyph unicode="'" horiz-adv-x="503" d="M188 1454h127l-12 -590h-102z" />
<glyph unicode="(" horiz-adv-x="864" d="M168 582q0 229 73.5 425t212 333t322.5 188v-113q-220 -74 -350.5 -297.5t-130.5 -535.5q0 -313 130.5 -536.5t350.5 -297.5v-113q-184 51 -322.5 188t-212 333.5t-73.5 425.5z" />
<glyph unicode=")" horiz-adv-x="864" d="M86 -252q221 74 352 297.5t131 536.5t-131 536t-352 297v113q185 -51 323.5 -188t211.5 -333t73 -425t-73 -425t-211.5 -333.5t-323.5 -188.5v113z" />
<glyph unicode="*" horiz-adv-x="909" d="M106 1157l33 105l273 -95l-11 287h109l-10 -287l270 95l35 -105l-277 -74l174 -229l-90 -61l-157 241l-158 -241l-88 61l174 229z" />
<glyph unicode="+" horiz-adv-x="1241" d="M225 440v109h340v338h111v-338h340v-109h-340v-340h-111v340h-340z" />
<glyph unicode="," horiz-adv-x="464" d="M90 -262l90 493h146l-131 -493h-105z" />
<glyph unicode="-" horiz-adv-x="800" d="M102 391v105h598v-105h-598z" />
<glyph unicode="." horiz-adv-x="483" d="M147 84q0 41 27 67.5t68 26.5t67.5 -26.5t26.5 -67.5q0 -40 -26.5 -67t-67.5 -27t-68 27t-27 67z" />
<glyph unicode="/" horiz-adv-x="1038" d="M4 -205l905 1843h125l-905 -1843h-125z" />
<glyph unicode="0" horiz-adv-x="1435" d="M137 717q0 339 158.5 537t423.5 198q264 0 421.5 -198t157.5 -537t-157.5 -537t-421.5 -198q-265 0 -423.5 198t-158.5 537zM266 717q0 -290 123.5 -456.5t329.5 -166.5q205 0 328.5 166.5t123.5 456.5t-123.5 456t-328.5 166q-206 0 -329.5 -166t-123.5 -456z" />
<glyph unicode="1" horiz-adv-x="1005" d="M106 1305l420 137h105v-1442h-123v1317l-365 -107z" />
<glyph unicode="2" horiz-adv-x="1280" d="M133 1020q16 196 145 314t355 118q221 0 349 -117.5t128 -306.5q0 -65 -16.5 -124.5t-42 -106.5t-73 -102t-90.5 -96t-114 -103l-438 -383h807v-113h-1004v90l541 477q83 73 131.5 121.5t92.5 106t62.5 113.5t18.5 120q0 141 -94.5 226t-259.5 85q-172 0 -268.5 -84 t-108.5 -235h-121z" />
<glyph unicode="3" horiz-adv-x="1253" d="M102 381h121q15 -136 114 -212.5t279 -76.5t286 84t106 234q0 143 -90 214.5t-248 71.5h-160v105h145q149 0 229.5 69.5t80.5 202.5q0 127 -99.5 197.5t-247.5 70.5q-171 0 -267.5 -78t-108.5 -212h-121q12 183 141.5 292t355.5 109q129 0 234.5 -42t171.5 -128t66 -203 q0 -129 -61.5 -212t-160.5 -109q118 -21 191.5 -114t73.5 -236q0 -193 -145 -309.5t-370 -116.5q-236 0 -367 107t-149 292z" />
<glyph unicode="4" horiz-adv-x="1357" d="M90 365v98l834 975h112v-967h240v-106h-240v-365h-123v365h-823zM233 471h680v791z" />
<glyph unicode="5" horiz-adv-x="1241" d="M98 383h121q14 -129 117.5 -210t273.5 -81t280.5 101t110.5 256q0 147 -102.5 244.5t-284.5 97.5q-102 0 -194 -26t-148 -65l-116 43l37 691h841v-113h-731l-27 -508q57 35 154 59.5t197 24.5q232 0 366.5 -125t134.5 -319q0 -138 -68.5 -246t-186 -166.5t-261.5 -58.5 q-229 0 -364 110.5t-150 290.5z" />
<glyph unicode="6" horiz-adv-x="1300" d="M137 664q0 121 17 230t58.5 213t105 179t163.5 120.5t226 45.5q179 0 299 -87.5t145 -223.5h-123q-20 92 -107 147t-214 55q-104 0 -184 -40.5t-128 -104t-79 -154t-43 -179t-13 -189.5q49 109 168 181.5t268 72.5q215 0 356.5 -134.5t141.5 -332.5q0 -214 -139 -347.5 t-365 -133.5q-116 0 -214 39t-175 118.5t-120.5 213.5t-43.5 311zM289 465q0 -157 116 -265t283 -108q173 0 277 102.5t104 268.5q0 155 -105.5 256.5t-277.5 101.5q-164 0 -280.5 -102.5t-116.5 -253.5z" />
<glyph unicode="7" horiz-adv-x="1249" d="M129 1321v113h985v-95l-688 -1339h-131l680 1321h-846z" />
<glyph unicode="8" horiz-adv-x="1331" d="M123 379q0 131 84 227t225 127q-122 34 -194 125.5t-72 210.5q0 174 138 278.5t362 104.5q223 0 361 -104.5t138 -278.5q0 -119 -72 -211t-196 -125q142 -31 226.5 -127t84.5 -227q0 -186 -150 -291.5t-392 -105.5q-243 0 -393 105t-150 292zM246 379 q0 -138 114.5 -213.5t305.5 -75.5q190 0 303.5 75.5t113.5 213.5q0 135 -114.5 216t-302.5 81t-304 -81.5t-116 -215.5zM287 1063q0 -125 104 -204t275 -79t273.5 79t102.5 204q0 136 -104 208t-272 72q-170 0 -274.5 -72t-104.5 -208z" />
<glyph unicode="9" horiz-adv-x="1300" d="M106 971q0 214 138.5 347.5t363.5 133.5q93 0 174.5 -24t152 -77t120.5 -131t79 -193t29 -257q0 -121 -17 -230t-58.5 -213t-104.5 -179t-163 -120.5t-226 -45.5q-180 0 -299 87.5t-145 223.5h120q20 -92 108.5 -147.5t215.5 -55.5q103 0 182.5 40.5t127.5 104.5 t79 154.5t43 178.5t14 190q-49 -110 -168 -182t-268 -72q-215 0 -356.5 134.5t-141.5 332.5zM231 971q0 -155 104.5 -257t276.5 -102q166 0 283 103.5t117 255.5q0 155 -116.5 262.5t-283.5 107.5q-173 0 -277 -102t-104 -268z" />
<glyph unicode=":" horiz-adv-x="485" d="M147 84q0 41 27 67.5t68 26.5t67.5 -26.5t26.5 -67.5q0 -40 -26.5 -67t-67.5 -27t-68 27t-27 67zM147 799q0 41 27 67.5t68 26.5t67.5 -26.5t26.5 -67.5q0 -40 -26.5 -67t-67.5 -27t-68 27t-27 67z" />
<glyph unicode=";" horiz-adv-x="481" d="M90 -262l90 493h146l-131 -493h-105zM147 799q0 41 27 67.5t68 26.5t67.5 -26.5t26.5 -67.5q0 -40 -26.5 -67t-67.5 -27t-68 27t-27 67z" />
<glyph unicode="&#x3c;" horiz-adv-x="1241" d="M217 444v103l799 397v-133l-664 -315l664 -316v-133z" />
<glyph unicode="=" horiz-adv-x="1241" d="M238 250v108h766v-108h-766zM238 629v108h766v-108h-766z" />
<glyph unicode="&#x3e;" horiz-adv-x="1241" d="M225 47v133l664 316l-664 315v133l799 -397v-103z" />
<glyph unicode="?" horiz-adv-x="1212" d="M78 1022q14 196 143 313t369 117q237 0 364 -110t127 -293q0 -65 -27.5 -127t-65 -105.5t-96.5 -88.5t-100 -69.5t-98 -54.5l-16 -190h-94l-17 241q42 20 57.5 28t57 29.5t60.5 34t54 36.5t52.5 42t42 45t36 52.5t20.5 57t9 64.5q0 137 -93 216t-275 79 q-187 0 -283.5 -85t-107.5 -232h-119zM537 84q0 41 26.5 67.5t67.5 26.5t67.5 -26.5t26.5 -67.5q0 -40 -26.5 -67t-67.5 -27t-67.5 27t-26.5 67z" />
<glyph unicode="@" horiz-adv-x="2004" d="M152 479q0 240 108.5 430t305.5 297t448 107q181 0 336 -57.5t265.5 -160t173 -249t62.5 -318.5q0 -208 -84 -327t-235 -119q-175 0 -217 176q-53 -85 -138 -134.5t-190 -49.5q-169 0 -285 119t-116 294t116 294.5t285 119.5q95 0 174.5 -42t134.5 -114v144h107v-494 q0 -115 34 -168t105 -53q93 0 149 92.5t56 261.5q0 207 -95 365t-261 242t-377 84q-220 0 -392 -92.5t-268 -261.5t-96 -386q0 -206 95 -369t265.5 -254.5t385.5 -91.5q221 0 409 82v-94q-75 -37 -183.5 -59.5t-225.5 -22.5q-184 0 -343.5 62t-270.5 170t-174.5 257.5 t-63.5 319.5zM694 487q0 -136 85 -225.5t218 -89.5q125 0 213 90t88 225t-88 225.5t-213 90.5q-133 0 -218 -90t-85 -226z" />
<glyph unicode="A" horiz-adv-x="1521" d="M72 0l641 1442h96l641 -1442h-123l-180 410h-774l-180 -410h-121zM424 522h672l-336 760z" />
<glyph unicode="B" horiz-adv-x="1462" d="M217 0v1434h604q217 0 342 -95.5t125 -273.5q0 -135 -70.5 -221t-181.5 -109q137 -12 219 -106t82 -240q0 -192 -130 -290.5t-367 -98.5h-623zM336 111h504q186 0 280 68.5t94 215.5q0 148 -94.5 211.5t-290.5 63.5h-493v-559zM336 780h465q362 0 362 277 q0 138 -88.5 202t-261.5 64h-477v-543z" />
<glyph unicode="C" horiz-adv-x="1667" d="M139 717q0 152 56.5 287.5t154 234t235.5 156t294 57.5q250 0 430 -131.5t233 -343.5h-127q-40 156 -183.5 258t-352.5 102q-175 0 -315.5 -81t-219 -222.5t-78.5 -316.5t78.5 -317t219 -223t315.5 -81q209 0 353.5 102.5t184.5 258.5h127q-52 -212 -233 -343.5 t-432 -131.5q-156 0 -294 57.5t-235.5 156t-154 234t-56.5 287.5z" />
<glyph unicode="D" horiz-adv-x="1585" d="M217 0v1434h469q168 0 310.5 -53.5t241 -147.5t153.5 -226t55 -286q0 -155 -55.5 -288.5t-154 -229t-242 -149.5t-312.5 -54h-465zM338 115h344q297 0 467 167t170 439q0 267 -169.5 432.5t-463.5 165.5h-348v-1204z" />
<glyph unicode="E" horiz-adv-x="1357" d="M217 0v1434h977v-113h-856v-543h807v-110h-807v-555h862v-113h-983z" />
<glyph unicode="F" horiz-adv-x="1302" d="M217 0v1434h959v-113h-838v-569h780v-113h-780v-639h-121z" />
<glyph unicode="G" horiz-adv-x="1705" d="M139 717q0 151 56 286.5t153.5 234t235.5 156.5t295 58q244 0 422.5 -129t228.5 -332h-127q-40 147 -182.5 245.5t-341.5 98.5q-175 0 -315.5 -80.5t-219 -222t-78.5 -315.5q0 -175 76.5 -316.5t215.5 -222t314 -80.5q166 0 297 73t203 197.5t76 278.5h-565v111h688 q2 -27 2 -68q0 -155 -52 -287t-144.5 -224.5t-222.5 -144.5t-282 -52q-209 0 -377.5 98t-262 266t-93.5 371z" />
<glyph unicode="H" horiz-adv-x="1595" d="M217 0v1434h121v-654h919v654h121v-1434h-121v666h-919v-666h-121z" />
<glyph unicode="I" horiz-adv-x="577" d="M227 0v1434h121v-1434h-121z" />
<glyph unicode="J" horiz-adv-x="1216" d="M82 338h119q18 -115 103 -178.5t237 -63.5q166 0 261 106.5t95 313.5v918h121v-936q0 -247 -130 -381.5t-343 -134.5q-202 0 -320.5 93.5t-142.5 262.5z" />
<glyph unicode="K" horiz-adv-x="1437" d="M217 0v1434h121v-867l854 867h164l-649 -654l679 -780h-151l-608 700l-289 -290v-410h-121z" />
<glyph unicode="L" horiz-adv-x="1241" d="M217 0v1434h121v-1319h833v-115h-954z" />
<glyph unicode="M" horiz-adv-x="1910" d="M217 0v1438h119l622 -1020l621 1020h115v-1438h-121v1214l-574 -931h-92l-571 931v-1214h-119z" />
<glyph unicode="N" horiz-adv-x="1626" d="M217 0v1438h109l964 -1248v1244h119v-1438h-109l-964 1247v-1243h-119z" />
<glyph unicode="O" horiz-adv-x="1744" d="M139 717q0 151 57.5 287.5t155 234.5t233.5 155.5t287 57.5q202 0 370.5 -97.5t266 -266.5t97.5 -371t-97.5 -371t-266 -266.5t-370.5 -97.5q-151 0 -287 57.5t-233.5 155.5t-155 234.5t-57.5 287.5zM266 717q0 -130 47 -245.5t128 -197t193 -129t238 -47.5t238 47.5 t193 129t128.5 197t47.5 245.5q0 174 -80.5 316t-219.5 222t-307 80q-126 0 -238 -47t-193 -128.5t-128 -197t-47 -245.5z" />
<glyph unicode="P" horiz-adv-x="1417" d="M217 0v1434h588q239 0 369.5 -116.5t130.5 -322.5q-1 -205 -135 -325q-133 -119 -367 -119h-4h-461v-551h-121zM338 662h448q195 0 294.5 83.5t99.5 245.5t-99 246t-295 84h-448v-659z" />
<glyph unicode="Q" horiz-adv-x="1744" d="M139 725q0 148 57.5 282.5t155 232t233.5 155t287 57.5t287 -57.5t234 -155t155.5 -232t57.5 -282.5q0 -195 -97.5 -356.5t-265.5 -255.5h359v-113h-730q-151 0 -287 57.5t-233.5 155t-155 231.5t-57.5 281zM266 725q0 -127 47 -240t128 -194t193.5 -128.5t237.5 -47.5 q168 0 307 80t219.5 220.5t80.5 309.5t-80.5 309.5t-219.5 220.5t-307 80q-125 0 -237.5 -47.5t-193.5 -128.5t-128 -194t-47 -240z" />
<glyph unicode="R" horiz-adv-x="1464" d="M217 0v1434h617q236 0 365.5 -116.5t129.5 -322.5q0 -192 -116 -309.5t-324 -132.5l450 -553h-141l-448 551h-412v-551h-121zM338 662h475q192 0 291.5 84t99.5 245q0 162 -99 246t-292 84h-475v-659z" />
<glyph unicode="S" horiz-adv-x="1298" d="M115 342h121q17 -117 127.5 -182.5t291.5 -65.5q172 0 277.5 75t105.5 210q0 99 -67.5 163.5t-210.5 96.5l-219 49q-192 43 -291.5 134t-99.5 247q0 181 130 281t349 100q211 0 337 -88.5t148 -241.5h-119q-19 101 -113.5 160t-254.5 59q-164 0 -259.5 -67.5 t-95.5 -198.5q0 -110 78 -173.5t236 -100.5l219 -47q185 -41 270.5 -130t85.5 -237q0 -130 -67.5 -222t-179.5 -135.5t-257 -43.5q-232 0 -376 95t-166 263z" />
<glyph unicode="T" horiz-adv-x="1263" d="M68 1321v113h1128v-113h-504v-1321h-121v1321h-503z" />
<glyph unicode="U" horiz-adv-x="1587" d="M205 575v859h123v-838q0 -242 125.5 -371t341.5 -129t341.5 129t125.5 371v838h120v-859q0 -188 -76.5 -323.5t-208 -202.5t-304.5 -67q-172 0 -303.5 67t-208 202.5t-76.5 323.5z" />
<glyph unicode="V" horiz-adv-x="1492" d="M72 1434h127l549 -1287l548 1287h125l-620 -1442h-109z" />
<glyph unicode="W" horiz-adv-x="2277" d="M90 1434h129l430 -1246l441 1246h102l434 -1248l436 1248h125l-510 -1442h-100l-438 1229l-439 -1229h-100z" />
<glyph unicode="X" horiz-adv-x="1484" d="M102 0l566 725l-549 709h141l483 -629l486 629h139l-551 -707l565 -727h-141l-498 647l-501 -647h-140z" />
<glyph unicode="Y" horiz-adv-x="1359" d="M33 1434h135l512 -752l512 752h135l-586 -861v-573h-123v573z" />
<glyph unicode="Z" horiz-adv-x="1406" d="M152 0v90l935 1231h-919v113h1077v-91l-934 -1230h944v-113h-1103z" />
<glyph unicode="[" horiz-adv-x="776" d="M223 -348v1859h465v-106h-344v-1647h344v-106h-465z" />
<glyph unicode="\" horiz-adv-x="1038" d="M4 1638h125l905 -1843h-125z" />
<glyph unicode="]" horiz-adv-x="776" d="M86 -242h344v1647h-344v106h467v-1859h-467v106z" />
<glyph unicode="^" horiz-adv-x="1232" d="M131 717l428 717h117l426 -717h-135l-351 588l-348 -588h-137z" />
<glyph unicode="_" horiz-adv-x="866" d="M0 -135h866v-98h-866v98z" />
<glyph unicode="`" horiz-adv-x="1024" d="M229 1290l88 94l285 -274l-57 -61z" />
<glyph unicode="a" d="M102 442q0 193 129 325t320 132q106 0 194.5 -46.5t149.5 -127.5v160h113v-885h-113v158q-61 -79 -150 -125.5t-194 -46.5q-192 0 -320.5 131t-128.5 325zM219 442q0 -153 95.5 -253.5t242.5 -100.5q141 0 239.5 101.5t98.5 252.5t-98.5 252t-239.5 101 q-147 0 -242.5 -100t-95.5 -253z" />
<glyph unicode="b" d="M166 0v1434h115v-705q61 78 149 124t193 46q191 0 320.5 -132t129.5 -325q0 -194 -129 -325t-321 -131q-107 0 -195 46t-149 126v-158h-113zM279 442q0 -151 98.5 -252.5t240.5 -101.5q147 0 241.5 100.5t94.5 253.5t-94.5 253t-241.5 100q-142 0 -240.5 -101t-98.5 -252 z" />
<glyph unicode="c" horiz-adv-x="1060" d="M102 442q0 192 132 324.5t323 132.5q174 0 285.5 -88t132.5 -221h-117q-23 91 -100 148t-197 57q-148 0 -245 -100.5t-97 -252.5q0 -153 97 -252.5t245 -99.5q122 0 198 57t99 148h117q-20 -132 -131 -220.5t-285 -88.5q-192 0 -324.5 132t-132.5 324z" />
<glyph unicode="d" d="M102 442q0 193 129 325t320 132q105 0 193 -46t149 -124v705h115v-1434h-113v158q-61 -79 -150 -125.5t-194 -46.5q-192 0 -320.5 131t-128.5 325zM219 442q0 -153 95.5 -253.5t242.5 -100.5q141 0 239.5 101.5t98.5 252.5t-98.5 252t-239.5 101q-147 0 -242.5 -100 t-95.5 -253z" />
<glyph unicode="e" horiz-adv-x="1064" d="M102 442q0 202 122.5 329.5t314.5 127.5t310 -129.5t118 -323.5q0 -26 -2 -51h-746q12 -147 102.5 -229t229.5 -82q110 0 188.5 47.5t100.5 128.5h106q-28 -122 -138 -198t-259 -76q-197 0 -322 127.5t-125 328.5zM219 489h633q-12 144 -98 227t-217 83 q-133 0 -219.5 -82.5t-98.5 -227.5z" />
<glyph unicode="f" horiz-adv-x="733" d="M72 782v103h182v168q0 195 76 293t237 98q65 0 133 -14v-101q-65 10 -116 10q-120 0 -167.5 -71.5t-47.5 -231.5v-151h311v-103h-311v-782h-115v782h-182z" />
<glyph unicode="g" d="M102 446q0 188 129 320.5t320 132.5q108 0 196 -46.5t148 -125.5v158h113v-881q0 -206 -123 -323t-326 -117q-181 0 -297 82t-131 209h113q19 -85 101 -137t210 -52q161 0 249.5 92t88.5 267v139q-59 -78 -147 -123t-195 -45q-126 0 -229.5 60.5t-161.5 163.5t-58 226z M219 446q0 -147 94.5 -247.5t241.5 -100.5q142 0 240 101.5t98 246.5q0 146 -98 247.5t-240 101.5q-147 0 -241.5 -100.5t-94.5 -248.5z" />
<glyph unicode="h" horiz-adv-x="1124" d="M166 0v1434h115v-701q44 79 128 122.5t189 43.5q170 0 271.5 -100.5t101.5 -268.5v-530h-115v496q0 141 -71.5 219t-209.5 78q-131 0 -212.5 -82.5t-81.5 -221.5v-489h-115z" />
<glyph unicode="i" horiz-adv-x="452" d="M145 1180q0 36 22 58t58 22q38 0 60 -22t22 -58q0 -37 -22 -59.5t-60 -22.5q-37 0 -58.5 22.5t-21.5 59.5zM168 0v885h115v-885h-115z" />
<glyph unicode="j" horiz-adv-x="460" d="M-66 -342q44 -6 84 -6q82 0 120 49t38 156v1028h115v-1045q0 -293 -252 -293q-52 0 -105 11v100zM154 1180q0 36 21.5 58t57.5 22q38 0 60 -22t22 -58q0 -37 -22 -59.5t-60 -22.5q-36 0 -57.5 22.5t-21.5 59.5z" />
<glyph unicode="k" horiz-adv-x="987" d="M166 0v1434h115v-988l493 439h156l-414 -363l424 -522h-137l-367 453l-155 -138v-315h-115z" />
<glyph unicode="l" horiz-adv-x="452" d="M168 0v1434h115v-1434h-115z" />
<glyph unicode="m" horiz-adv-x="1785" d="M166 0v885h113v-148q44 75 127.5 118.5t183.5 43.5q114 0 199.5 -49.5t128.5 -138.5q44 86 139.5 137t208.5 51q166 0 266 -100.5t100 -266.5v-532h-114v498q0 139 -71 217t-202 78q-127 0 -208 -80.5t-81 -220.5v-492h-114v498q0 139 -71 217t-202 78 q-127 0 -207.5 -80.5t-80.5 -220.5v-492h-115z" />
<glyph unicode="n" horiz-adv-x="1124" d="M166 0v885h113v-156q42 81 127 125.5t192 44.5q170 0 271.5 -100.5t101.5 -268.5v-530h-115v496q0 141 -71.5 219t-209.5 78q-131 0 -212.5 -82.5t-81.5 -221.5v-489h-115z" />
<glyph unicode="o" horiz-adv-x="1120" d="M102 442q0 192 133.5 324.5t325.5 132.5q191 0 325 -133t134 -324t-134 -323.5t-325 -132.5q-192 0 -325.5 132t-133.5 324zM219 442q0 -152 98.5 -253t243.5 -101q143 0 241.5 101.5t98.5 252.5t-98.5 252t-241.5 101q-145 0 -243.5 -100.5t-98.5 -252.5z" />
<glyph unicode="p" d="M166 -442v1327h113v-160q61 81 149 127.5t195 46.5q191 0 320.5 -132t129.5 -325q0 -194 -129 -325t-321 -131q-106 0 -193.5 45.5t-148.5 124.5v-598h-115zM279 442q0 -151 98.5 -252.5t240.5 -101.5q147 0 241.5 100.5t94.5 253.5t-94.5 253t-241.5 100 q-142 0 -240.5 -101t-98.5 -252z" />
<glyph unicode="q" d="M102 442q0 193 129 325t320 132q106 0 194.5 -46.5t149.5 -127.5v160h113v-1372h-115v643q-61 -79 -148.5 -124.5t-193.5 -45.5q-192 0 -320.5 131t-128.5 325zM219 442q0 -153 95.5 -253.5t242.5 -100.5q141 0 239.5 101.5t98.5 252.5t-98.5 252t-239.5 101 q-147 0 -242.5 -100t-95.5 -253z" />
<glyph unicode="r" horiz-adv-x="729" d="M166 0v885h113v-170q42 85 120.5 131.5t186.5 46.5q39 0 84 -10v-105q-35 6 -82 6q-154 0 -230.5 -89t-76.5 -246v-449h-115z" />
<glyph unicode="s" horiz-adv-x="843" d="M70 231h108q10 -67 78.5 -107t171.5 -40q94 0 158.5 42.5t64.5 113.5q0 63 -41 96t-143 53l-109 23q-129 27 -192.5 84t-63.5 155q0 111 87.5 178.5t222.5 67.5q148 0 233 -64t98 -167h-108q-9 60 -68.5 97.5t-154.5 37.5q-86 0 -142.5 -40t-56.5 -104q0 -66 43.5 -98 t134.5 -53l111 -23q129 -25 194.5 -83.5t65.5 -157.5q0 -118 -93 -187t-241 -69q-156 0 -250 67.5t-108 177.5z" />
<glyph unicode="t" horiz-adv-x="800" d="M66 782v103h182v278h112v-278h353v-103h-353v-491q0 -108 47 -152.5t150 -44.5q78 0 160 29v-103q-73 -32 -176 -32q-146 0 -220.5 68t-74.5 218v508h-180z" />
<glyph unicode="u" horiz-adv-x="1120" d="M154 352v533h114v-496q0 -142 71 -220.5t208 -78.5q130 0 211.5 82.5t81.5 222.5v490h114v-885h-112v152q-46 -79 -129.5 -122.5t-188.5 -43.5q-169 0 -269.5 99.5t-100.5 266.5z" />
<glyph unicode="v" horiz-adv-x="985" d="M51 885h123l320 -733l321 733h119l-397 -889h-88z" />
<glyph unicode="w" horiz-adv-x="1568" d="M66 885h120l273 -721l280 721h99l272 -721l279 721h114l-348 -889h-88l-281 721l-284 -721h-88z" />
<glyph unicode="x" horiz-adv-x="978" d="M55 0l371 444l-365 441h138l290 -363l295 363h134l-363 -441l371 -444h-138l-301 367l-299 -367h-133z" />
<glyph unicode="y" horiz-adv-x="1001" d="M49 885h123l340 -664l319 664h121l-649 -1327h-123l271 546z" />
<glyph unicode="z" horiz-adv-x="983" d="M115 0v80l598 704h-584v101h737v-80l-600 -707h604v-98h-755z" />
<glyph unicode="{" horiz-adv-x="892" d="M137 522v119q116 3 189.5 76t62.5 201l-18 204q-28 389 364 389h72v-106h-72q-137 0 -194.5 -63.5t-48.5 -204.5l14 -205q10 -135 -48 -226t-165 -124q107 -33 165 -124.5t48 -226.5l-14 -204q-9 -141 49 -205t194 -64h72v-106h-72q-392 0 -364 389l18 205 q11 128 -62.5 200.5t-189.5 75.5z" />
<glyph unicode="|" horiz-adv-x="704" d="M295 -336v1770h115v-1770h-115z" />
<glyph unicode="}" horiz-adv-x="892" d="M86 -242h72q136 0 194 64t49 205l-14 204q-10 135 48 226.5t165 124.5q-107 33 -165 124t-48 226l14 205q9 141 -48.5 204.5t-194.5 63.5h-72v106h72q392 0 364 -389l-18 -204q-11 -128 62.5 -201t189.5 -76v-119q-116 -3 -189.5 -75.5t-62.5 -200.5l18 -205 q28 -389 -364 -389h-72v106z" />
<glyph unicode="~" horiz-adv-x="1024" d="M147 358q20 80 72 132.5t127 52.5q64 0 180 -51q10 -4 34.5 -15.5t38.5 -17.5t36 -11.5t41 -5.5q88 0 125 101l76 -11q-18 -80 -69.5 -132t-129.5 -52q-64 0 -180 51q-11 5 -34.5 16t-37.5 17t-35.5 11.5t-40.5 5.5q-91 0 -127 -103z" />
<glyph unicode="&#xa1;" horiz-adv-x="567" d="M188 799q0 41 27 67.5t68 26.5q42 0 68 -26t26 -68q0 -40 -26 -67t-68 -27q-41 0 -68 27t-27 67zM217 -436q0 468 25 907h84q24 -482 24 -907v-113h-133v113z" />
<glyph unicode="&#xa2;" horiz-adv-x="1327" d="M229 442q0 179 119 308.5t295 146.5v193h109v-195q149 -15 245 -100t115 -205h-117q-21 79 -83.5 133.5t-159.5 67.5v-697q98 13 161 67.5t82 133.5h119q-20 -120 -115.5 -205.5t-246.5 -99.5v-195h-109v193q-176 17 -295 146t-119 308zM348 442q0 -140 82.5 -236.5 t212.5 -113.5v699q-130 -17 -212.5 -114.5t-82.5 -234.5z" />
<glyph unicode="&#xa3;" horiz-adv-x="1327" d="M106 0v113h170v536h-170v105h170v143q0 116 31 215.5t91 176t157 120t221 43.5q201 0 316 -108.5t131 -276.5h-119q-11 120 -94.5 196t-231.5 76q-100 0 -174.5 -33.5t-119 -94.5t-66 -141t-21.5 -179v-137h475v-105h-475v-536h824v-113h-1115z" />
<glyph unicode="&#xa4;" horiz-adv-x="1331" d="M195 348l118 119q-77 110 -77 250q0 138 77 248l-118 120l100 101l119 -121q118 80 252 80q135 0 249 -80l121 121l101 -101l-121 -120q80 -110 80 -248q0 -140 -80 -250l121 -119l-101 -100l-121 119q-111 -78 -249 -78q-137 0 -252 78l-119 -119zM373 717 q0 -133 84 -221t209 -88t208.5 88t83.5 221t-83.5 221t-208.5 88t-209 -88t-84 -221z" />
<glyph unicode="&#xa5;" horiz-adv-x="1327" d="M41 1434h131l492 -789l491 789h133l-432 -684h285v-103h-348l-68 -106v-105h416v-102h-416v-334h-121v334h-416v102h416v105l-67 106h-349v103h283z" />
<glyph unicode="&#xa6;" horiz-adv-x="704" d="M295 332h115v-668h-115v668zM295 766v668h115v-668h-115z" />
<glyph unicode="&#xa7;" horiz-adv-x="1327" d="M178 -33h119q13 -97 108 -150t250 -53q150 0 240 60t90 168q0 82 -59 131.5t-174 75.5l-215 53q-159 38 -245.5 111t-86.5 202q0 102 63 177.5t178 109.5q-204 82 -204 276q0 153 114.5 238.5t315.5 85.5q194 0 304.5 -78.5t129.5 -214.5h-117q-14 88 -95.5 137.5 t-223.5 49.5q-146 0 -228 -54.5t-82 -156.5q0 -90 64 -138.5t184 -76.5l213 -50q312 -69 312 -309q0 -109 -61 -183t-173 -108q205 -78 205 -274q0 -162 -121.5 -249t-325.5 -87q-210 0 -335 81t-144 226zM324 569q0 -165 254 -219l135 -31q134 9 216.5 75t82.5 163 q0 162 -230 211l-151 35q-135 -5 -221 -70t-86 -164z" />
<glyph unicode="&#xa8;" horiz-adv-x="1024" d="M233 1163q0 36 23 59t59 23q38 0 60 -23t22 -59q0 -37 -22 -59.5t-60 -22.5q-37 0 -59.5 22.5t-22.5 59.5zM627 1163q0 36 22 59t60 23q36 0 59 -23t23 -59q0 -37 -22.5 -59.5t-59.5 -22.5q-38 0 -60 22.5t-22 59.5z" />
<glyph unicode="&#xa9;" horiz-adv-x="1746" d="M139 717q0 151 57.5 287.5t155 234.5t233.5 155.5t287 57.5q152 0 288.5 -57.5t234.5 -155.5t155.5 -234.5t57.5 -287.5t-57.5 -287.5t-155.5 -234.5t-234.5 -155.5t-288.5 -57.5q-151 0 -287 57.5t-233.5 155.5t-155 234.5t-57.5 287.5zM246 717q0 -176 82.5 -321.5 t226 -228.5t317.5 -83t318 83t226.5 228.5t82.5 321.5t-82.5 321.5t-226.5 228.5t-318 83t-317.5 -83t-226 -228.5t-82.5 -321.5zM492 717q0 166 113.5 280.5t277.5 114.5q148 0 243 -76.5t115 -189.5h-113q-23 74 -84 119t-157 45q-124 0 -204.5 -83.5t-80.5 -209.5 t80.5 -209.5t204.5 -83.5q98 0 159.5 46t83.5 120h113q-20 -113 -115 -190.5t-243 -77.5q-166 0 -279.5 114.5t-113.5 280.5z" />
<glyph unicode="&#xaa;" horiz-adv-x="978" d="M76 1053q0 165 112.5 279t274.5 114q91 0 167.5 -39t129.5 -107v134h96v-762h-96v131q-53 -68 -129.5 -107t-167.5 -39q-161 0 -274 115t-113 281zM184 1053q0 -131 80.5 -215t206.5 -84q123 0 206 85t83 214q0 128 -83.5 213.5t-205.5 85.5q-125 0 -206 -84.5 t-81 -214.5z" />
<glyph unicode="&#xab;" horiz-adv-x="962" d="M109 467l231 364h123l-230 -364l230 -365h-123zM487 467l232 364h123l-230 -364l230 -365h-123z" />
<glyph unicode="&#xac;" horiz-adv-x="1142" d="M106 719v104h869v-475h-115v371h-754z" />
<glyph unicode="&#xad;" horiz-adv-x="800" d="M102 391v105h598v-105h-598z" />
<glyph unicode="&#xae;" horiz-adv-x="970" d="M86 1049q0 166 116.5 282.5t282.5 116.5t282 -116.5t116 -282.5q0 -165 -116.5 -281.5t-281.5 -116.5t-282 116.5t-117 281.5zM160 1049q0 -141 93.5 -235.5t231.5 -94.5t232 94.5t94 235.5q0 142 -93.5 236.5t-232.5 94.5q-138 0 -231.5 -94.5t-93.5 -236.5zM344 860 v387h174q69 0 107.5 -33.5t38.5 -89.5q0 -48 -27 -81.5t-76 -43.5l111 -139h-84l-105 135h-63v-135h-76zM420 1059h96q74 0 74 63q0 62 -74 62h-96v-125z" />
<glyph unicode="&#xaf;" horiz-adv-x="1024" d="M209 1108v96h606v-96h-606z" />
<glyph unicode="&#xb0;" horiz-adv-x="739" d="M78 1163q0 127 83 211t210 84q126 0 209.5 -84.5t83.5 -210.5q0 -125 -84 -210t-209 -85q-127 0 -210 85t-83 210zM172 1163q0 -90 56 -147.5t143 -57.5q86 0 141 58t55 147q0 90 -55 148.5t-141 58.5q-87 0 -143 -58.5t-56 -148.5z" />
<glyph unicode="&#xb1;" horiz-adv-x="1241" d="M225 0v109h791v-109h-791zM225 506v108h340v306h111v-306h340v-108h-340v-307h-111v307h-340z" />
<glyph unicode="&#xb2;" horiz-adv-x="790" d="M102 1565q8 112 84 183t209 71q129 0 202 -62t73 -164q0 -82 -48 -145t-145 -137l-198 -156h409v-92h-579v72l297 235q90 71 126.5 117t36.5 104q0 63 -46.5 100.5t-129.5 37.5q-91 0 -138.5 -43t-53.5 -121h-99z" />
<glyph unicode="&#xb3;" horiz-adv-x="790" d="M88 1278h98q15 -139 205 -139q93 0 146 36t53 107q0 123 -158 123h-96v88h96q68 0 101.5 28.5t33.5 77.5q0 64 -48.5 97t-127.5 33q-91 0 -140.5 -38t-55.5 -104h-97q8 107 84.5 169.5t210.5 62.5q119 0 196 -55t77 -158q0 -53 -29 -94.5t-74 -53.5q60 -14 93.5 -60 t33.5 -118q0 -106 -84 -168.5t-215 -62.5q-138 0 -216 59.5t-87 169.5z" />
<glyph unicode="&#xb4;" horiz-adv-x="1024" d="M422 1110l285 274l88 -94l-316 -241z" />
<glyph unicode="&#xb5;" horiz-adv-x="1132" d="M166 -442v1327h115v-496q0 -142 70.5 -220.5t207.5 -78.5q130 0 211.5 82.5t81.5 222.5v490h115v-885h-113v150q-44 -77 -125.5 -120.5t-177.5 -43.5q-89 0 -159.5 30t-110.5 84v-542h-115z" />
<glyph unicode="&#xb6;" horiz-adv-x="1155" d="M117 930q0 140 67 256t184.5 182t258.5 66h452v-109h-157q-67 0 -95 -29t-28 -96v-1354q0 -146 -69 -223.5t-195 -77.5q-48 0 -115 13v106q66 -8 90 -8q89 0 128.5 53t39.5 160v557h-51q-141 0 -258.5 66t-184.5 182t-67 256z" />
<glyph unicode="&#xb7;" horiz-adv-x="483" d="M147 442q0 41 27 68t68 27t67.5 -27t26.5 -68q0 -40 -26.5 -67t-67.5 -27t-68 27t-27 67z" />
<glyph unicode="&#xb8;" horiz-adv-x="1024" d="M377 -330l125 334h106l-102 -334h-129z" />
<glyph unicode="&#xb9;" horiz-adv-x="790" d="M156 1706l270 102h82v-745h-102v633l-222 -74z" />
<glyph unicode="&#xba;" horiz-adv-x="940" d="M76 1053q0 164 114.5 278.5t278.5 114.5q166 0 280.5 -114.5t114.5 -278.5q0 -166 -114.5 -281t-280.5 -115q-164 0 -278.5 115t-114.5 281zM184 1053q0 -130 81.5 -214.5t203.5 -84.5q124 0 206.5 84.5t82.5 214.5t-82.5 213.5t-206.5 83.5q-122 0 -203.5 -83.5 t-81.5 -213.5z" />
<glyph unicode="&#xbb;" horiz-adv-x="962" d="M119 102l231 365l-231 364h123l231 -364l-231 -365h-123zM498 102l231 365l-231 364h123l231 -364l-231 -365h-123z" />
<glyph unicode="&#xbc;" horiz-adv-x="1826" d="M156 1335l270 103h82v-746h-102v633l-222 -74zM430 0l909 1434h113l-909 -1434h-113zM1110 172v78l449 495h86v-483h124v-90h-124v-172h-103v172h-432zM1231 262h313v344z" />
<glyph unicode="&#xbd;" horiz-adv-x="1826" d="M156 1335l270 103h82v-746h-102v633l-222 -74zM389 0l909 1434h113l-909 -1434h-113zM1139 502q8 112 84 183t209 71q129 0 201.5 -62t72.5 -164q0 -82 -48 -145t-145 -137l-198 -156h409v-92h-579v72l297 235q90 71 127 117t37 104q0 63 -46.5 100.5t-129.5 37.5 q-91 0 -139 -43t-54 -121h-98z" />
<glyph unicode="&#xbe;" horiz-adv-x="1826" d="M88 907h98q15 -139 205 -139q93 0 146 36t53 107q0 123 -158 123h-96v88h96q68 0 101.5 29t33.5 78q0 63 -48.5 96t-127.5 33q-91 0 -140.5 -38t-55.5 -103h-97q8 106 84.5 168.5t210.5 62.5q119 0 196 -55t77 -158q0 -53 -29 -94.5t-74 -53.5q60 -14 93.5 -60t33.5 -118 q0 -106 -84 -168.5t-215 -62.5q-138 0 -216 59.5t-87 169.5zM473 0l909 1434h113l-909 -1434h-113zM1110 172v78l449 495h86v-483h124v-90h-124v-172h-103v172h-432zM1231 262h313v344z" />
<glyph unicode="&#xbf;" horiz-adv-x="1146" d="M129 -166q0 66 27.5 128t65 105.5t96 88t101 69t99.5 54.5l14 192h95l16 -242q-49 -24 -74.5 -36.5t-73 -40t-74.5 -47.5t-63 -52t-55 -62.5t-33 -69.5t-14 -81q0 -137 93 -217t274 -80q187 0 283.5 85.5t109.5 234.5h117q-14 -197 -142.5 -313.5t-369.5 -116.5 q-236 0 -364 110t-128 291zM487 799q0 41 27 67.5t68 26.5t67.5 -26.5t26.5 -67.5q0 -40 -26.5 -67t-67.5 -27t-68 27t-27 67z" />
<glyph unicode="&#xc0;" horiz-adv-x="1521" d="M72 0l641 1442h96l641 -1442h-123l-180 410h-774l-180 -410h-121zM424 522h672l-336 760zM444 1753l86 105l287 -244l-57 -68z" />
<glyph unicode="&#xc1;" horiz-adv-x="1521" d="M72 0l641 1442h96l641 -1442h-123l-180 410h-774l-180 -410h-121zM424 522h672l-336 760zM700 1614l287 244l86 -105l-315 -207z" />
<glyph unicode="&#xc2;" horiz-adv-x="1521" d="M72 0l641 1442h96l641 -1442h-123l-180 410h-774l-180 -410h-121zM424 522h672l-336 760zM436 1552l260 273h127l260 -273h-125l-198 177l-199 -177h-125z" />
<glyph unicode="&#xc3;" horiz-adv-x="1521" d="M72 0l641 1442h96l641 -1442h-123l-180 410h-774l-180 -410h-121zM424 522h672l-336 760zM434 1567q20 81 65 128.5t117 47.5q58 0 150 -44t133 -44q74 0 105 82l81 -11q-20 -82 -65.5 -130t-116.5 -48q-58 0 -149.5 44t-132.5 44q-74 0 -105 -82z" />
<glyph unicode="&#xc4;" horiz-adv-x="1521" d="M72 0l641 1442h96l641 -1442h-123l-180 410h-774l-180 -410h-121zM424 522h672l-336 760zM461 1630q0 37 23 60.5t61 23.5t61 -23.5t23 -60.5t-23 -60.5t-61 -23.5t-61 23.5t-23 60.5zM891 1630q0 37 23 60.5t61 23.5t61 -23.5t23 -60.5t-23 -60.5t-61 -23.5t-61 23.5 t-23 60.5z" />
<glyph unicode="&#xc5;" horiz-adv-x="1521" d="M72 0l641 1442h96l641 -1442h-123l-180 410h-774l-180 -410h-121zM424 522h672l-336 760zM559 1737q0 83 56.5 137.5t144.5 54.5t144.5 -54.5t56.5 -137.5t-56.5 -138t-144.5 -55t-144.5 55t-56.5 138zM643 1737q0 -51 32.5 -84t84.5 -33t84.5 33t32.5 84t-32.5 83.5 t-84.5 32.5t-84.5 -32.5t-32.5 -83.5z" />
<glyph unicode="&#xc6;" horiz-adv-x="2289" d="M33 0l1071 1434h1022v-113h-856v-543h807v-110h-807v-555h864v-113h-985v395h-678l-293 -395h-145zM555 508h594v799z" />
<glyph unicode="&#xc7;" horiz-adv-x="1667" d="M139 717q0 152 56.5 287.5t154 234t235.5 156t294 57.5q250 0 430 -131.5t233 -343.5h-127q-40 156 -183.5 258t-352.5 102q-175 0 -315.5 -81t-219 -222.5t-78.5 -316.5t78.5 -317t219 -223t315.5 -81q209 0 353.5 102.5t184.5 258.5h127q-48 -200 -214.5 -330 t-397.5 -143l-96 -322h-138l123 322q-194 13 -350.5 113.5t-244 263.5t-87.5 356z" />
<glyph unicode="&#xc8;" horiz-adv-x="1357" d="M217 0v1434h977v-113h-856v-543h807v-110h-807v-555h862v-113h-983zM420 1753l86 105l287 -244l-58 -68z" />
<glyph unicode="&#xc9;" horiz-adv-x="1357" d="M217 0v1434h977v-113h-856v-543h807v-110h-807v-555h862v-113h-983zM676 1614l287 244l86 -105l-316 -207z" />
<glyph unicode="&#xca;" horiz-adv-x="1357" d="M217 0v1434h977v-113h-856v-543h807v-110h-807v-555h862v-113h-983zM401 1552l261 273h126l261 -273h-125l-199 177l-199 -177h-125z" />
<glyph unicode="&#xcb;" horiz-adv-x="1357" d="M217 0v1434h977v-113h-856v-543h807v-110h-807v-555h862v-113h-983zM432 1630q0 37 23 60.5t61 23.5t61 -23.5t23 -60.5t-23 -60.5t-61 -23.5t-61 23.5t-23 60.5zM862 1630q0 37 23 60.5t61 23.5t61 -23.5t23 -60.5t-23 -60.5t-61 -23.5t-61 23.5t-23 60.5z" />
<glyph unicode="&#xcc;" horiz-adv-x="577" d="M-27 1753l86 105l287 -244l-57 -68zM227 0v1434h121v-1434h-121z" />
<glyph unicode="&#xcd;" horiz-adv-x="577" d="M227 0v1434h121v-1434h-121zM231 1614l287 244l86 -105l-315 -207z" />
<glyph unicode="&#xce;" horiz-adv-x="577" d="M-35 1552l260 273h127l260 -273h-125l-198 177l-199 -177h-125zM227 0v1434h121v-1434h-121z" />
<glyph unicode="&#xcf;" horiz-adv-x="577" d="M-10 1630q0 37 23 60.5t61 23.5t61 -23.5t23 -60.5t-23 -60.5t-61 -23.5t-61 23.5t-23 60.5zM227 0v1434h121v-1434h-121zM420 1630q0 37 23 60.5t61 23.5t61 -23.5t23 -60.5t-23 -60.5t-61 -23.5t-61 23.5t-23 60.5z" />
<glyph unicode="&#xd0;" horiz-adv-x="1587" d="M35 670v98h184v666h469q168 0 310.5 -53.5t241 -147.5t153.5 -226t55 -286q0 -155 -55.5 -288.5t-154 -229t-242 -149.5t-312.5 -54h-465v670h-184zM340 115h344q297 0 467 167t170 439q0 267 -169.5 432.5t-463.5 165.5h-348v-551h399v-98h-399v-555z" />
<glyph unicode="&#xd1;" horiz-adv-x="1626" d="M217 0v1438h109l964 -1248v1244h119v-1438h-109l-964 1247v-1243h-119zM487 1567q20 81 65.5 128.5t117.5 47.5q58 0 149.5 -44t132.5 -44q74 0 105 82l82 -11q-20 -82 -66 -130t-117 -48q-58 0 -149.5 44t-132.5 44q-74 0 -105 -82z" />
<glyph unicode="&#xd2;" horiz-adv-x="1744" d="M139 717q0 151 57.5 287.5t155 234.5t233.5 155.5t287 57.5q202 0 370.5 -97.5t266 -266.5t97.5 -371t-97.5 -371t-266 -266.5t-370.5 -97.5q-151 0 -287 57.5t-233.5 155.5t-155 234.5t-57.5 287.5zM266 717q0 -130 47 -245.5t128 -197t193 -129t238 -47.5t238 47.5 t193 129t128.5 197t47.5 245.5q0 174 -80.5 316t-219.5 222t-307 80q-126 0 -238 -47t-193 -128.5t-128 -197t-47 -245.5zM557 1753l86 105l287 -244l-58 -68z" />
<glyph unicode="&#xd3;" horiz-adv-x="1744" d="M139 717q0 151 57.5 287.5t155 234.5t233.5 155.5t287 57.5q202 0 370.5 -97.5t266 -266.5t97.5 -371t-97.5 -371t-266 -266.5t-370.5 -97.5q-151 0 -287 57.5t-233.5 155.5t-155 234.5t-57.5 287.5zM266 717q0 -130 47 -245.5t128 -197t193 -129t238 -47.5t238 47.5 t193 129t128.5 197t47.5 245.5q0 174 -80.5 316t-219.5 222t-307 80q-126 0 -238 -47t-193 -128.5t-128 -197t-47 -245.5zM815 1614l287 244l86 -105l-316 -207z" />
<glyph unicode="&#xd4;" horiz-adv-x="1744" d="M139 717q0 151 57.5 287.5t155 234.5t233.5 155.5t287 57.5q202 0 370.5 -97.5t266 -266.5t97.5 -371t-97.5 -371t-266 -266.5t-370.5 -97.5q-151 0 -287 57.5t-233.5 155.5t-155 234.5t-57.5 287.5zM266 717q0 -130 47 -245.5t128 -197t193 -129t238 -47.5t238 47.5 t193 129t128.5 197t47.5 245.5q0 174 -80.5 316t-219.5 222t-307 80q-126 0 -238 -47t-193 -128.5t-128 -197t-47 -245.5zM549 1552l260 273h127l260 -273h-125l-199 177l-198 -177h-125z" />
<glyph unicode="&#xd5;" horiz-adv-x="1744" d="M139 717q0 151 57.5 287.5t155 234.5t233.5 155.5t287 57.5q202 0 370.5 -97.5t266 -266.5t97.5 -371t-97.5 -371t-266 -266.5t-370.5 -97.5q-151 0 -287 57.5t-233.5 155.5t-155 234.5t-57.5 287.5zM266 717q0 -130 47 -245.5t128 -197t193 -129t238 -47.5t238 47.5 t193 129t128.5 197t47.5 245.5q0 174 -80.5 316t-219.5 222t-307 80q-126 0 -238 -47t-193 -128.5t-128 -197t-47 -245.5zM547 1567q20 81 65 128.5t117 47.5q58 0 150 -44t133 -44q73 0 104 82l82 -11q-20 -82 -65.5 -130t-116.5 -48q-58 0 -150 44t-133 44q-73 0 -104 -82 z" />
<glyph unicode="&#xd6;" horiz-adv-x="1744" d="M139 717q0 151 57.5 287.5t155 234.5t233.5 155.5t287 57.5q202 0 370.5 -97.5t266 -266.5t97.5 -371t-97.5 -371t-266 -266.5t-370.5 -97.5q-151 0 -287 57.5t-233.5 155.5t-155 234.5t-57.5 287.5zM266 717q0 -130 47 -245.5t128 -197t193 -129t238 -47.5t238 47.5 t193 129t128.5 197t47.5 245.5q0 174 -80.5 316t-219.5 222t-307 80q-126 0 -238 -47t-193 -128.5t-128 -197t-47 -245.5zM573 1630q0 37 23 60.5t61 23.5t61 -23.5t23 -60.5t-23 -60.5t-61 -23.5t-61 23.5t-23 60.5zM1004 1630q0 37 22.5 60.5t60.5 23.5t61 -23.5t23 -60.5 t-23 -60.5t-61 -23.5t-60.5 23.5t-22.5 60.5z" />
<glyph unicode="&#xd7;" horiz-adv-x="1241" d="M279 231l262 263l-262 262l79 80l263 -263l262 263l80 -80l-263 -262l263 -263l-80 -77l-262 260l-263 -260z" />
<glyph unicode="&#xd8;" horiz-adv-x="1744" d="M139 717q0 151 57.5 287.5t155 234.5t233.5 155.5t287 57.5q262 0 461 -162l144 154l69 -68l-141 -151q96 -100 148.5 -230.5t52.5 -277.5q0 -202 -97.5 -371t-266 -266.5t-370.5 -97.5q-264 0 -464 161l-140 -153l-69 67l139 152q-94 100 -146.5 231t-52.5 277zM266 717 q0 -246 156 -420l829 905q-162 133 -379 133q-168 0 -307 -81t-219 -223t-80 -314zM489 231q165 -133 383 -133q168 0 307 81t219.5 223.5t80.5 314.5q0 244 -158 420z" />
<glyph unicode="&#xd9;" horiz-adv-x="1587" d="M205 575v859h123v-838q0 -242 125.5 -371t341.5 -129t341.5 129t125.5 371v838h120v-859q0 -188 -76.5 -323.5t-208 -202.5t-304.5 -67q-172 0 -303.5 67t-208 202.5t-76.5 323.5zM479 1753l86 105l287 -244l-57 -68z" />
<glyph unicode="&#xda;" horiz-adv-x="1587" d="M205 575v859h123v-838q0 -242 125.5 -371t341.5 -129t341.5 129t125.5 371v838h120v-859q0 -188 -76.5 -323.5t-208 -202.5t-304.5 -67q-172 0 -303.5 67t-208 202.5t-76.5 323.5zM737 1614l287 244l86 -105l-315 -207z" />
<glyph unicode="&#xdb;" horiz-adv-x="1587" d="M205 575v859h123v-838q0 -242 125.5 -371t341.5 -129t341.5 129t125.5 371v838h120v-859q0 -188 -76.5 -323.5t-208 -202.5t-304.5 -67q-172 0 -303.5 67t-208 202.5t-76.5 323.5zM471 1552l260 273h127l260 -273h-125l-198 177l-199 -177h-125z" />
<glyph unicode="&#xdc;" horiz-adv-x="1587" d="M205 575v859h123v-838q0 -242 125.5 -371t341.5 -129t341.5 129t125.5 371v838h120v-859q0 -188 -76.5 -323.5t-208 -202.5t-304.5 -67q-172 0 -303.5 67t-208 202.5t-76.5 323.5zM496 1630q0 37 23 60.5t61 23.5t61 -23.5t23 -60.5t-23 -60.5t-61 -23.5t-61 23.5 t-23 60.5zM926 1630q0 37 23 60.5t61 23.5t61 -23.5t23 -60.5t-23 -60.5t-61 -23.5t-61 23.5t-23 60.5z" />
<glyph unicode="&#xdd;" horiz-adv-x="1359" d="M33 1434h135l512 -752l512 752h135l-586 -861v-573h-123v573zM623 1614l286 244l86 -105l-315 -207z" />
<glyph unicode="&#xde;" horiz-adv-x="1417" d="M217 0v1208v226h121v-226h469q235 0 363 -112.5t128 -309.5q0 -196 -132 -312t-365 -116h-463v-358h-121zM338 471h450q193 0 290.5 79.5t97.5 231.5q0 153 -98 233.5t-290 80.5h-450v-625z" />
<glyph unicode="&#xdf;" horiz-adv-x="1359" d="M166 0v922q0 240 142 385t399 145q218 0 350.5 -108.5t132.5 -276.5q0 -133 -68.5 -221t-167.5 -115q126 -16 213.5 -107.5t87.5 -240.5q0 -131 -62 -223t-166 -135t-243 -43q-159 0 -276 41v98q138 -37 276 -37q166 0 259.5 76.5t93.5 226.5q0 139 -103 214t-276 75 h-119v100h94q342 0 342 281q0 130 -100.5 211.5t-269.5 81.5q-211 0 -317.5 -115t-106.5 -322v-913h-115z" />
<glyph unicode="&#xe0;" d="M102 442q0 193 129 325t320 132q106 0 194.5 -46.5t149.5 -127.5v160h113v-885h-113v158q-61 -79 -150 -125.5t-194 -46.5q-192 0 -320.5 131t-128.5 325zM219 442q0 -153 95.5 -253.5t242.5 -100.5q141 0 239.5 101.5t98.5 252.5t-98.5 252t-239.5 101 q-147 0 -242.5 -100t-95.5 -253zM236 1290l88 94l284 -274l-57 -61z" />
<glyph unicode="&#xe1;" d="M102 442q0 193 129 325t320 132q106 0 194.5 -46.5t149.5 -127.5v160h113v-885h-113v158q-61 -79 -150 -125.5t-194 -46.5q-192 0 -320.5 131t-128.5 325zM219 442q0 -153 95.5 -253.5t242.5 -100.5q141 0 239.5 101.5t98.5 252.5t-98.5 252t-239.5 101 q-147 0 -242.5 -100t-95.5 -253zM494 1110l284 274l88 -94l-315 -241z" />
<glyph unicode="&#xe2;" d="M102 442q0 193 129 325t320 132q106 0 194.5 -46.5t149.5 -127.5v160h113v-885h-113v158q-61 -79 -150 -125.5t-194 -46.5q-192 0 -320.5 131t-128.5 325zM219 442q0 -153 95.5 -253.5t242.5 -100.5q141 0 239.5 101.5t98.5 252.5t-98.5 252t-239.5 101 q-147 0 -242.5 -100t-95.5 -253zM238 1061l249 280h127l250 -280h-119l-194 186l-195 -186h-118z" />
<glyph unicode="&#xe3;" d="M102 442q0 193 129 325t320 132q106 0 194.5 -46.5t149.5 -127.5v160h113v-885h-113v158q-61 -79 -150 -125.5t-194 -46.5q-192 0 -320.5 131t-128.5 325zM219 442q0 -153 95.5 -253.5t242.5 -100.5q141 0 239.5 101.5t98.5 252.5t-98.5 252t-239.5 101 q-147 0 -242.5 -100t-95.5 -253zM233 1071q46 172 181 172q46 0 140 -44t134 -44q38 0 61.5 19.5t38.5 62.5l80 -10q-47 -174 -180 -174q-46 0 -140 44t-134 44q-71 0 -101 -82z" />
<glyph unicode="&#xe4;" d="M102 442q0 193 129 325t320 132q106 0 194.5 -46.5t149.5 -127.5v160h113v-885h-113v158q-61 -79 -150 -125.5t-194 -46.5q-192 0 -320.5 131t-128.5 325zM219 442q0 -153 95.5 -253.5t242.5 -100.5q141 0 239.5 101.5t98.5 252.5t-98.5 252t-239.5 101 q-147 0 -242.5 -100t-95.5 -253zM272 1163q0 36 23 59t59 23q38 0 60 -23t22 -59q0 -37 -22 -59.5t-60 -22.5q-37 0 -59.5 22.5t-22.5 59.5zM666 1163q0 36 22 59t60 23q36 0 58.5 -23t22.5 -59q0 -37 -22 -59.5t-59 -22.5q-38 0 -60 22.5t-22 59.5z" />
<glyph unicode="&#xe5;" d="M102 442q0 193 129 325t320 132q106 0 194.5 -46.5t149.5 -127.5v160h113v-885h-113v158q-61 -79 -150 -125.5t-194 -46.5q-192 0 -320.5 131t-128.5 325zM219 442q0 -153 95.5 -253.5t242.5 -100.5q141 0 239.5 101.5t98.5 252.5t-98.5 252t-239.5 101 q-147 0 -242.5 -100t-95.5 -253zM352 1221q0 83 55.5 136.5t143.5 53.5t143.5 -53.5t55.5 -136.5q0 -82 -56 -136.5t-143 -54.5t-143 54.5t-56 136.5zM432 1221q0 -52 33 -84.5t86 -32.5t86 32.5t33 84.5t-33 85t-86 33t-86 -33t-33 -85z" />
<glyph unicode="&#xe6;" horiz-adv-x="1716" d="M100 242q0 118 83 182.5t241 64.5h362q3 34 9 62q-3 116 -72.5 181t-200.5 65q-111 0 -178 -38t-78 -102h-110q14 105 110.5 172.5t255.5 67.5q132 0 217.5 -47.5t122.5 -132.5q58 86 147 134t195 48q180 0 297 -131t117 -322q0 -24 -2 -49h-723v-4q13 -143 103 -226 t221 -83q102 0 177 47.5t95 128.5h108q-28 -121 -135 -197.5t-250 -76.5q-118 0 -214 56.5t-152 154.5q-50 -90 -155.5 -149.5t-252.5 -59.5q-70 0 -129 14t-107 43t-75 79.5t-27 117.5zM211 242q0 -158 225 -158q152 0 252 70.5t107 185.5q-6 27 -9 57h-340 q-124 0 -179.5 -38t-55.5 -117zM893 489h610q-13 141 -98 225.5t-201 84.5q-123 0 -210.5 -83.5t-100.5 -226.5z" />
<glyph unicode="&#xe7;" horiz-adv-x="1060" d="M102 442q0 192 132 324.5t323 132.5q174 0 285.5 -88t132.5 -221h-117q-23 91 -100 148t-197 57q-148 0 -245 -100.5t-97 -252.5q0 -153 97 -252.5t245 -99.5q122 0 198 57t99 148h117q-18 -122 -114 -208t-249 -99l-98 -322h-129l121 324q-174 19 -289 146.5t-115 305.5 z" />
<glyph unicode="&#xe8;" horiz-adv-x="1064" d="M102 442q0 202 122.5 329.5t314.5 127.5t310 -129.5t118 -323.5q0 -26 -2 -51h-746q12 -147 102.5 -229t229.5 -82q110 0 188.5 47.5t100.5 128.5h106q-28 -122 -138 -198t-259 -76q-197 0 -322 127.5t-125 328.5zM219 489h633q-12 144 -98 227t-217 83 q-133 0 -219.5 -82.5t-98.5 -227.5zM225 1290l88 94l285 -274l-57 -61z" />
<glyph unicode="&#xe9;" horiz-adv-x="1064" d="M102 442q0 202 122.5 329.5t314.5 127.5t310 -129.5t118 -323.5q0 -26 -2 -51h-746q12 -147 102.5 -229t229.5 -82q110 0 188.5 47.5t100.5 128.5h106q-28 -122 -138 -198t-259 -76q-197 0 -322 127.5t-125 328.5zM219 489h633q-12 144 -98 227t-217 83 q-133 0 -219.5 -82.5t-98.5 -227.5zM483 1110l285 274l88 -94l-315 -241z" />
<glyph unicode="&#xea;" horiz-adv-x="1064" d="M102 442q0 202 122.5 329.5t314.5 127.5t310 -129.5t118 -323.5q0 -26 -2 -51h-746q12 -147 102.5 -229t229.5 -82q110 0 188.5 47.5t100.5 128.5h106q-28 -122 -138 -198t-259 -76q-197 0 -322 127.5t-125 328.5zM219 489h633q-12 144 -98 227t-217 83 q-133 0 -219.5 -82.5t-98.5 -227.5zM227 1061l250 280h127l250 -280h-119l-194 186l-195 -186h-119z" />
<glyph unicode="&#xeb;" horiz-adv-x="1064" d="M102 442q0 202 122.5 329.5t314.5 127.5t310 -129.5t118 -323.5q0 -26 -2 -51h-746q12 -147 102.5 -229t229.5 -82q110 0 188.5 47.5t100.5 128.5h106q-28 -122 -138 -198t-259 -76q-197 0 -322 127.5t-125 328.5zM219 489h633q-12 144 -98 227t-217 83 q-133 0 -219.5 -82.5t-98.5 -227.5zM262 1163q0 36 23 59t59 23q38 0 60 -23t22 -59q0 -37 -22 -59.5t-60 -22.5q-37 0 -59.5 22.5t-22.5 59.5zM655 1163q0 36 22 59t60 23q36 0 59 -23t23 -59q0 -37 -22.5 -59.5t-59.5 -22.5q-38 0 -60 22.5t-22 59.5z" />
<glyph unicode="&#xec;" horiz-adv-x="452" d="M-90 1290l88 94l285 -274l-58 -61zM168 0v885h115v-885h-115z" />
<glyph unicode="&#xed;" horiz-adv-x="452" d="M168 0v885h115v-885h-115zM170 1110l285 274l88 -94l-316 -241z" />
<glyph unicode="&#xee;" horiz-adv-x="452" d="M-57 1061l219 278h127l219 -278h-119l-164 186l-164 -186h-118zM168 0v885h115v-885h-115z" />
<glyph unicode="&#xef;" horiz-adv-x="452" d="M-29 1163q0 36 22 59t60 23q36 0 59 -23t23 -59q0 -37 -22.5 -59.5t-59.5 -22.5q-38 0 -60 22.5t-22 59.5zM168 0v885h115v-885h-115zM315 1163q0 36 23 59t59 23q38 0 60 -23t22 -59q0 -37 -22 -59.5t-60 -22.5q-37 0 -59.5 22.5t-22.5 59.5z" />
<glyph unicode="&#xf0;" horiz-adv-x="1124" d="M102 440q0 192 133.5 324.5t325.5 132.5q81 0 159 -33t138 -90q-89 209 -283 381l-245 -143l-49 82l217 125q-103 78 -217 135l51 88q123 -63 256 -170l278 162l49 -82l-251 -148q164 -156 261 -346.5t97 -390.5q0 -212 -132 -346.5t-329 -134.5q-192 0 -325.5 131 t-133.5 323zM219 440q0 -151 98.5 -251.5t243.5 -100.5q144 0 242 100.5t98 251.5t-98.5 252t-241.5 101q-145 0 -243.5 -100.5t-98.5 -252.5z" />
<glyph unicode="&#xf1;" horiz-adv-x="1124" d="M166 0v885h113v-156q42 81 127 125.5t192 44.5q170 0 271.5 -100.5t101.5 -268.5v-530h-115v496q0 141 -71.5 219t-209.5 78q-131 0 -212.5 -82.5t-81.5 -221.5v-489h-115zM264 1071q46 172 180 172q46 0 140.5 -44t134.5 -44q38 0 61.5 19.5t38.5 62.5l80 -10 q-47 -174 -180 -174q-46 0 -140.5 44t-134.5 44q-38 0 -61.5 -20t-38.5 -62z" />
<glyph unicode="&#xf2;" horiz-adv-x="1120" d="M102 442q0 192 133.5 324.5t325.5 132.5q191 0 325 -133t134 -324t-134 -323.5t-325 -132.5q-192 0 -325.5 132t-133.5 324zM219 442q0 -152 98.5 -253t243.5 -101q143 0 241.5 101.5t98.5 252.5t-98.5 252t-241.5 101q-145 0 -243.5 -100.5t-98.5 -252.5zM246 1290 l88 94l284 -274l-57 -61z" />
<glyph unicode="&#xf3;" horiz-adv-x="1120" d="M102 442q0 192 133.5 324.5t325.5 132.5q191 0 325 -133t134 -324t-134 -323.5t-325 -132.5q-192 0 -325.5 132t-133.5 324zM219 442q0 -152 98.5 -253t243.5 -101q143 0 241.5 101.5t98.5 252.5t-98.5 252t-241.5 101q-145 0 -243.5 -100.5t-98.5 -252.5zM504 1110 l284 274l89 -94l-316 -241z" />
<glyph unicode="&#xf4;" horiz-adv-x="1120" d="M102 442q0 192 133.5 324.5t325.5 132.5q191 0 325 -133t134 -324t-134 -323.5t-325 -132.5q-192 0 -325.5 132t-133.5 324zM219 442q0 -152 98.5 -253t243.5 -101q143 0 241.5 101.5t98.5 252.5t-98.5 252t-241.5 101q-145 0 -243.5 -100.5t-98.5 -252.5zM248 1061 l250 280h127l249 -280h-118l-195 186l-194 -186h-119z" />
<glyph unicode="&#xf5;" horiz-adv-x="1120" d="M102 442q0 192 133.5 324.5t325.5 132.5q191 0 325 -133t134 -324t-134 -323.5t-325 -132.5q-192 0 -325.5 132t-133.5 324zM219 442q0 -152 98.5 -253t243.5 -101q143 0 241.5 101.5t98.5 252.5t-98.5 252t-241.5 101q-145 0 -243.5 -100.5t-98.5 -252.5zM244 1071 q46 172 180 172q46 0 140 -44t134 -44q38 0 62 19.5t39 62.5l80 -10q-47 -174 -181 -174q-46 0 -140 44t-134 44q-38 0 -61.5 -20t-38.5 -62z" />
<glyph unicode="&#xf6;" horiz-adv-x="1120" d="M102 442q0 192 133.5 324.5t325.5 132.5q191 0 325 -133t134 -324t-134 -323.5t-325 -132.5q-192 0 -325.5 132t-133.5 324zM219 442q0 -152 98.5 -253t243.5 -101q143 0 241.5 101.5t98.5 252.5t-98.5 252t-241.5 101q-145 0 -243.5 -100.5t-98.5 -252.5zM283 1163 q0 36 23 59t59 23q37 0 59 -23t22 -59q0 -37 -21.5 -59.5t-59.5 -22.5q-37 0 -59.5 22.5t-22.5 59.5zM676 1163q0 36 22 59t60 23q36 0 59 -23t23 -59q0 -37 -22.5 -59.5t-59.5 -22.5q-38 0 -60 22.5t-22 59.5z" />
<glyph unicode="&#xf7;" horiz-adv-x="1241" d="M238 440v109h766v-109h-766zM528 156q0 40 26 66t67 26t66.5 -26t25.5 -66t-25.5 -67.5t-66.5 -27.5t-67 27.5t-26 67.5zM528 834q0 40 26 66t67 26t66.5 -26t25.5 -66t-25.5 -67.5t-66.5 -27.5t-67 27.5t-26 67.5z" />
<glyph unicode="&#xf8;" horiz-adv-x="1120" d="M102 442q0 192 133.5 324.5t325.5 132.5q157 0 281 -94l80 86l57 -57l-78 -84q119 -132 119 -308q0 -191 -134 -323.5t-325 -132.5q-157 0 -280 92l-82 -86l-58 59l78 84q-117 126 -117 307zM219 442q0 -131 74 -227l475 510q-93 70 -207 70q-145 0 -243.5 -100.5 t-98.5 -252.5zM352 158q89 -70 209 -70q143 0 241.5 101.5t98.5 252.5q0 131 -78 228z" />
<glyph unicode="&#xf9;" horiz-adv-x="1120" d="M154 352v533h114v-496q0 -142 71 -220.5t208 -78.5q130 0 211.5 82.5t81.5 222.5v490h114v-885h-112v152q-46 -79 -129.5 -122.5t-188.5 -43.5q-169 0 -269.5 99.5t-100.5 266.5zM240 1290l88 94l284 -274l-57 -61z" />
<glyph unicode="&#xfa;" horiz-adv-x="1120" d="M154 352v533h114v-496q0 -142 71 -220.5t208 -78.5q130 0 211.5 82.5t81.5 222.5v490h114v-885h-112v152q-46 -79 -129.5 -122.5t-188.5 -43.5q-169 0 -269.5 99.5t-100.5 266.5zM498 1110l284 274l88 -94l-315 -241z" />
<glyph unicode="&#xfb;" horiz-adv-x="1120" d="M154 352v533h114v-496q0 -142 71 -220.5t208 -78.5q130 0 211.5 82.5t81.5 222.5v490h114v-885h-112v152q-46 -79 -129.5 -122.5t-188.5 -43.5q-169 0 -269.5 99.5t-100.5 266.5zM242 1061l250 280h126l250 -280h-118l-195 186l-195 -186h-118z" />
<glyph unicode="&#xfc;" horiz-adv-x="1120" d="M154 352v533h114v-496q0 -142 71 -220.5t208 -78.5q130 0 211.5 82.5t81.5 222.5v490h114v-885h-112v152q-46 -79 -129.5 -122.5t-188.5 -43.5q-169 0 -269.5 99.5t-100.5 266.5zM276 1163q0 36 23 59t59 23q38 0 60 -23t22 -59q0 -37 -22 -59.5t-60 -22.5 q-37 0 -59.5 22.5t-22.5 59.5zM670 1163q0 36 22 59t60 23q36 0 59 -23t23 -59q0 -37 -22.5 -59.5t-59.5 -22.5q-38 0 -60 22.5t-22 59.5z" />
<glyph unicode="&#xfd;" horiz-adv-x="1001" d="M49 885h123l340 -664l319 664h121l-649 -1327h-123l271 546zM455 1110l284 274l88 -94l-315 -241z" />
<glyph unicode="&#xfe;" d="M166 -442v1876h115v-705q61 78 149 124t193 46q191 0 320.5 -132t129.5 -325q0 -194 -129 -325t-321 -131q-106 0 -193.5 45.5t-148.5 124.5v-598h-115zM279 442q0 -151 98.5 -252.5t240.5 -101.5q147 0 241.5 100.5t94.5 253.5t-94.5 253t-241.5 100q-142 0 -240.5 -101 t-98.5 -252z" />
<glyph unicode="&#xff;" horiz-adv-x="1001" d="M49 885h123l340 -664l319 664h121l-649 -1327h-123l271 546zM233 1163q0 36 23 59t59 23q38 0 60 -23t22 -59q0 -37 -22 -59.5t-60 -22.5q-37 0 -59.5 22.5t-22.5 59.5zM627 1163q0 36 22 59t60 23q36 0 59 -23t23 -59q0 -37 -22.5 -59.5t-59.5 -22.5q-38 0 -60 22.5 t-22 59.5z" />
<glyph unicode="&#x100;" horiz-adv-x="1521" d="M72 0l641 1442h96l641 -1442h-123l-180 410h-774l-180 -410h-121zM424 522h672l-336 760zM444 1561v98h631v-98h-631z" />
<glyph unicode="&#x101;" d="M102 442q0 193 129 325t320 132q106 0 194.5 -46.5t149.5 -127.5v160h113v-885h-113v158q-61 -79 -150 -125.5t-194 -46.5q-192 0 -320.5 131t-128.5 325zM219 442q0 -153 95.5 -253.5t242.5 -100.5q141 0 239.5 101.5t98.5 252.5t-98.5 252t-239.5 101 q-147 0 -242.5 -100t-95.5 -253zM248 1108v96h606v-96h-606z" />
<glyph unicode="&#x102;" horiz-adv-x="1521" d="M72 0l641 1442h96l641 -1442h-123l-180 410h-774l-180 -410h-121zM424 522h672l-336 760zM436 1810h107q11 -69 68 -114t149 -45q93 0 149.5 44.5t67.5 114.5h106q-10 -51 -33 -95.5t-60.5 -82.5t-96.5 -60t-133 -22t-133 22t-97 60t-61 82.5t-33 95.5z" />
<glyph unicode="&#x103;" d="M102 442q0 193 129 325t320 132q106 0 194.5 -46.5t149.5 -127.5v160h113v-885h-113v158q-61 -79 -150 -125.5t-194 -46.5q-192 0 -320.5 131t-128.5 325zM219 442q0 -153 95.5 -253.5t242.5 -100.5q141 0 239.5 101.5t98.5 252.5t-98.5 252t-239.5 101 q-147 0 -242.5 -100t-95.5 -253zM233 1323h103q14 -73 70.5 -119.5t144.5 -46.5t144.5 46.5t70.5 119.5h102q-10 -52 -32 -96t-58.5 -82.5t-94.5 -61t-132 -22.5t-132 22.5t-95 61t-59 82.5t-32 96z" />
<glyph unicode="&#x104;" horiz-adv-x="1521" d="M72 0l641 1442h96l641 -1442q-221 -96 -221 -215q0 -74 98 -74q66 0 131 43l41 -69q-84 -76 -192 -76q-83 0 -138 40.5t-55 112.5q0 79 54 137t155 109l-176 402h-774l-180 -410h-121zM424 522h672l-336 760z" />
<glyph unicode="&#x105;" d="M102 442q0 193 129 325t320 132q106 0 194.5 -46.5t149.5 -127.5v160h113v-883l2 -2q-109 -52 -164 -104.5t-55 -114.5q0 -35 25.5 -53.5t70.5 -18.5q72 0 125 39l39 -70q-73 -69 -185 -69q-81 0 -134.5 40.5t-53.5 108.5q0 76 56.5 135.5t160.5 114.5v150 q-61 -79 -150 -125.5t-194 -46.5q-192 0 -320.5 131t-128.5 325zM219 442q0 -153 95.5 -253.5t242.5 -100.5q141 0 239.5 101.5t98.5 252.5t-98.5 252t-239.5 101q-147 0 -242.5 -100t-95.5 -253z" />
<glyph unicode="&#x106;" horiz-adv-x="1667" d="M139 717q0 152 56.5 287.5t154 234t235.5 156t294 57.5q250 0 430 -131.5t233 -343.5h-127q-40 156 -183.5 258t-352.5 102q-175 0 -315.5 -81t-219 -222.5t-78.5 -316.5t78.5 -317t219 -223t315.5 -81q209 0 353.5 102.5t184.5 258.5h127q-52 -212 -233 -343.5 t-432 -131.5q-156 0 -294 57.5t-235.5 156t-154 234t-56.5 287.5zM819 1614l287 244l86 -105l-315 -207z" />
<glyph unicode="&#x107;" horiz-adv-x="1060" d="M102 442q0 192 132 324.5t323 132.5q174 0 285.5 -88t132.5 -221h-117q-23 91 -100 148t-197 57q-148 0 -245 -100.5t-97 -252.5q0 -153 97 -252.5t245 -99.5q122 0 198 57t99 148h117q-20 -132 -131 -220.5t-285 -88.5q-192 0 -324.5 132t-132.5 324zM500 1110l284 274 l88 -94l-315 -241z" />
<glyph unicode="&#x108;" horiz-adv-x="1667" d="M139 717q0 152 56.5 287.5t154 234t235.5 156t294 57.5q250 0 430 -131.5t233 -343.5h-127q-40 156 -183.5 258t-352.5 102q-175 0 -315.5 -81t-219 -222.5t-78.5 -316.5t78.5 -317t219 -223t315.5 -81q209 0 353.5 102.5t184.5 258.5h127q-52 -212 -233 -343.5 t-432 -131.5q-156 0 -294 57.5t-235.5 156t-154 234t-56.5 287.5zM555 1552l260 273h127l260 -273h-125l-198 177l-199 -177h-125z" />
<glyph unicode="&#x109;" horiz-adv-x="1060" d="M102 442q0 192 132 324.5t323 132.5q174 0 285.5 -88t132.5 -221h-117q-23 91 -100 148t-197 57q-148 0 -245 -100.5t-97 -252.5q0 -153 97 -252.5t245 -99.5q122 0 198 57t99 148h117q-20 -132 -131 -220.5t-285 -88.5q-192 0 -324.5 132t-132.5 324zM244 1061l250 280 h127l249 -280h-118l-195 186l-195 -186h-118z" />
<glyph unicode="&#x10a;" horiz-adv-x="1667" d="M139 717q0 152 56.5 287.5t154 234t235.5 156t294 57.5q250 0 430 -131.5t233 -343.5h-127q-40 156 -183.5 258t-352.5 102q-175 0 -315.5 -81t-219 -222.5t-78.5 -316.5t78.5 -317t219 -223t315.5 -81q209 0 353.5 102.5t184.5 258.5h127q-52 -212 -233 -343.5 t-432 -131.5q-156 0 -294 57.5t-235.5 156t-154 234t-56.5 287.5zM795 1632q0 37 23 60.5t61 23.5t61 -23.5t23 -60.5q0 -38 -23 -61t-61 -23t-61 23t-23 61z" />
<glyph unicode="&#x10b;" horiz-adv-x="1060" d="M102 442q0 192 132 324.5t323 132.5q174 0 285.5 -88t132.5 -221h-117q-23 91 -100 148t-197 57q-148 0 -245 -100.5t-97 -252.5q0 -153 97 -252.5t245 -99.5q122 0 198 57t99 148h117q-20 -132 -131 -220.5t-285 -88.5q-192 0 -324.5 132t-132.5 324zM475 1180 q0 35 22.5 57.5t59.5 22.5t59.5 -22.5t22.5 -57.5q0 -37 -22.5 -59.5t-59.5 -22.5t-59.5 22.5t-22.5 59.5z" />
<glyph unicode="&#x10c;" horiz-adv-x="1667" d="M139 717q0 152 56.5 287.5t154 234t235.5 156t294 57.5q250 0 430 -131.5t233 -343.5h-127q-40 156 -183.5 258t-352.5 102q-175 0 -315.5 -81t-219 -222.5t-78.5 -316.5t78.5 -317t219 -223t315.5 -81q209 0 353.5 102.5t184.5 258.5h127q-52 -212 -233 -343.5 t-432 -131.5q-156 0 -294 57.5t-235.5 156t-154 234t-56.5 287.5zM555 1825h125l199 -176l198 176h125l-260 -273h-127z" />
<glyph unicode="&#x10d;" horiz-adv-x="1060" d="M102 442q0 192 132 324.5t323 132.5q174 0 285.5 -88t132.5 -221h-117q-23 91 -100 148t-197 57q-148 0 -245 -100.5t-97 -252.5q0 -153 97 -252.5t245 -99.5q122 0 198 57t99 148h117q-20 -132 -131 -220.5t-285 -88.5q-192 0 -324.5 132t-132.5 324zM244 1341h118 l195 -186l195 186h118l-249 -280h-127z" />
<glyph unicode="&#x10e;" horiz-adv-x="1585" d="M217 0v1434h469q168 0 310.5 -53.5t241 -147.5t153.5 -226t55 -286q0 -155 -55.5 -288.5t-154 -229t-242 -149.5t-312.5 -54h-465zM338 115h344q297 0 467 167t170 439q0 267 -169.5 432.5t-463.5 165.5h-348v-1204zM475 1825h125l199 -176l198 176h125l-260 -273h-127z " />
<glyph unicode="&#x10f;" d="M102 442q0 193 129 325t320 132q105 0 193 -46t149 -124v705h115v-1434h-113v158q-61 -79 -150 -125.5t-194 -46.5q-192 0 -320.5 131t-128.5 325zM219 442q0 -153 95.5 -253.5t242.5 -100.5q141 0 239.5 101.5t98.5 252.5t-98.5 252t-239.5 101q-147 0 -242.5 -100 t-95.5 -253zM1153 1053l18 381h117l-55 -381h-80z" />
<glyph unicode="&#x110;" horiz-adv-x="1587" d="M35 670v98h184v666h469q168 0 310.5 -53.5t241 -147.5t153.5 -226t55 -286q0 -155 -55.5 -288.5t-154 -229t-242 -149.5t-312.5 -54h-465v670h-184zM340 115h344q297 0 467 167t170 439q0 267 -169.5 432.5t-463.5 165.5h-348v-551h399v-98h-399v-555z" />
<glyph unicode="&#x111;" d="M102 442q0 193 129 325t320 132q105 0 193 -46t149 -124v358h-418v97h418v250h115v-250h155v-97h-155v-1087h-113v158q-61 -79 -150 -125.5t-194 -46.5q-192 0 -320.5 131t-128.5 325zM219 442q0 -153 95.5 -253.5t242.5 -100.5q141 0 239.5 101.5t98.5 252.5t-98.5 252 t-239.5 101q-147 0 -242.5 -100t-95.5 -253z" />
<glyph unicode="&#x112;" horiz-adv-x="1357" d="M217 0v1434h977v-113h-856v-543h807v-110h-807v-555h862v-113h-983zM418 1561v98h631v-98h-631z" />
<glyph unicode="&#x113;" horiz-adv-x="1064" d="M102 442q0 202 122.5 329.5t314.5 127.5t310 -129.5t118 -323.5q0 -26 -2 -51h-746q12 -147 102.5 -229t229.5 -82q110 0 188.5 47.5t100.5 128.5h106q-28 -122 -138 -198t-259 -76q-197 0 -322 127.5t-125 328.5zM219 489h633q-12 144 -98 227t-217 83 q-133 0 -219.5 -82.5t-98.5 -227.5zM238 1108v96h606v-96h-606z" />
<glyph unicode="&#x114;" horiz-adv-x="1357" d="M217 0v1434h977v-113h-856v-543h807v-110h-807v-555h862v-113h-983zM410 1810h106q11 -69 68 -114t149 -45q93 0 149.5 44.5t67.5 114.5h107q-10 -51 -33 -95.5t-61 -82.5t-97 -60t-133 -22t-133 22t-96.5 60t-60.5 82.5t-33 95.5z" />
<glyph unicode="&#x115;" horiz-adv-x="1064" d="M102 442q0 202 122.5 329.5t314.5 127.5t310 -129.5t118 -323.5q0 -26 -2 -51h-746q12 -147 102.5 -229t229.5 -82q110 0 188.5 47.5t100.5 128.5h106q-28 -122 -138 -198t-259 -76q-197 0 -322 127.5t-125 328.5zM219 489h633q-12 144 -98 227t-217 83 q-133 0 -219.5 -82.5t-98.5 -227.5zM223 1323h103q14 -73 70.5 -119.5t144.5 -46.5t144.5 46.5t70.5 119.5h102q-10 -52 -32 -96t-58.5 -82.5t-94.5 -61t-132 -22.5t-132 22.5t-95 61t-59 82.5t-32 96z" />
<glyph unicode="&#x116;" horiz-adv-x="1357" d="M217 0v1434h977v-113h-856v-543h807v-110h-807v-555h862v-113h-983zM649 1632q0 37 23 60.5t61 23.5t61 -23.5t23 -60.5q0 -38 -23 -61t-61 -23t-61 23t-23 61z" />
<glyph unicode="&#x117;" horiz-adv-x="1064" d="M102 442q0 202 122.5 329.5t314.5 127.5t310 -129.5t118 -323.5q0 -26 -2 -51h-746q12 -147 102.5 -229t229.5 -82q110 0 188.5 47.5t100.5 128.5h106q-28 -122 -138 -198t-259 -76q-197 0 -322 127.5t-125 328.5zM219 489h633q-12 144 -98 227t-217 83 q-133 0 -219.5 -82.5t-98.5 -227.5zM459 1180q0 35 22.5 57.5t59.5 22.5t59.5 -22.5t22.5 -57.5q0 -37 -22.5 -59.5t-59.5 -22.5t-59.5 22.5t-22.5 59.5z" />
<glyph unicode="&#x118;" horiz-adv-x="1357" d="M217 0v1434h977v-113h-856v-543h807v-110h-807v-555h862v-113h-63q-222 -97 -222 -215q0 -74 99 -74q66 0 131 43l41 -69q-84 -76 -193 -76q-83 0 -137.5 40.5t-54.5 112.5q0 77 50 133.5t144 104.5h-778z" />
<glyph unicode="&#x119;" horiz-adv-x="1064" d="M102 442q0 202 122.5 329.5t314.5 127.5t310 -129.5t118 -323.5q0 -26 -2 -51h-746q12 -147 102.5 -229t229.5 -82q110 0 188.5 47.5t100.5 128.5h106q-35 -142 -170 -219q-203 -107 -203 -234q0 -48 33 -73t88 -25q77 0 137 51l56 -71q-83 -80 -205 -80 q-96 0 -158.5 48.5t-62.5 127.5q0 112 112 203q-4 0 -12 -1t-12 -1q-197 0 -322 127.5t-125 328.5zM219 489h633q-12 144 -98 227t-217 83q-133 0 -219.5 -82.5t-98.5 -227.5z" />
<glyph unicode="&#x11a;" horiz-adv-x="1357" d="M217 0v1434h977v-113h-856v-543h807v-110h-807v-555h862v-113h-983zM410 1825h125l198 -176l199 176h125l-260 -273h-127z" />
<glyph unicode="&#x11b;" horiz-adv-x="1064" d="M102 442q0 202 122.5 329.5t314.5 127.5t310 -129.5t118 -323.5q0 -26 -2 -51h-746q12 -147 102.5 -229t229.5 -82q110 0 188.5 47.5t100.5 128.5h106q-28 -122 -138 -198t-259 -76q-197 0 -322 127.5t-125 328.5zM219 489h633q-12 144 -98 227t-217 83 q-133 0 -219.5 -82.5t-98.5 -227.5zM227 1341h119l195 -186l194 186h119l-250 -280h-127z" />
<glyph unicode="&#x11c;" horiz-adv-x="1705" d="M139 717q0 151 56 286.5t153.5 234t235.5 156.5t295 58q244 0 422.5 -129t228.5 -332h-127q-40 147 -182.5 245.5t-341.5 98.5q-175 0 -315.5 -80.5t-219 -222t-78.5 -315.5q0 -175 76.5 -316.5t215.5 -222t314 -80.5q166 0 297 73t203 197.5t76 278.5h-565v111h688 q2 -27 2 -68q0 -155 -52 -287t-144.5 -224.5t-222.5 -144.5t-282 -52q-209 0 -377.5 98t-262 266t-93.5 371zM547 1552l260 273h127l260 -273h-125l-199 177l-198 -177h-125z" />
<glyph unicode="&#x11d;" d="M102 446q0 188 129 320.5t320 132.5q108 0 196 -46.5t148 -125.5v158h113v-881q0 -206 -123 -323t-326 -117q-181 0 -297 82t-131 209h113q19 -85 101 -137t210 -52q161 0 249.5 92t88.5 267v139q-59 -78 -147 -123t-195 -45q-126 0 -229.5 60.5t-161.5 163.5t-58 226z M219 446q0 -147 94.5 -247.5t241.5 -100.5q142 0 240 101.5t98 246.5q0 146 -98 247.5t-240 101.5q-147 0 -241.5 -100.5t-94.5 -248.5zM238 1061l249 280h127l250 -280h-119l-194 186l-195 -186h-118z" />
<glyph unicode="&#x11e;" horiz-adv-x="1705" d="M139 717q0 151 56 286.5t153.5 234t235.5 156.5t295 58q244 0 422.5 -129t228.5 -332h-127q-40 147 -182.5 245.5t-341.5 98.5q-175 0 -315.5 -80.5t-219 -222t-78.5 -315.5q0 -175 76.5 -316.5t215.5 -222t314 -80.5q166 0 297 73t203 197.5t76 278.5h-565v111h688 q2 -27 2 -68q0 -155 -52 -287t-144.5 -224.5t-222.5 -144.5t-282 -52q-209 0 -377.5 98t-262 266t-93.5 371zM547 1810h106q11 -69 68 -114t149 -45q93 0 149.5 44.5t67.5 114.5h107q-10 -51 -33 -95.5t-61 -82.5t-97 -60t-133 -22t-133 22t-96.5 60t-60.5 82.5t-33 95.5z " />
<glyph unicode="&#x11f;" d="M102 446q0 188 129 320.5t320 132.5q108 0 196 -46.5t148 -125.5v158h113v-881q0 -206 -123 -323t-326 -117q-181 0 -297 82t-131 209h113q19 -85 101 -137t210 -52q161 0 249.5 92t88.5 267v139q-59 -78 -147 -123t-195 -45q-126 0 -229.5 60.5t-161.5 163.5t-58 226z M219 446q0 -147 94.5 -247.5t241.5 -100.5q142 0 240 101.5t98 246.5q0 146 -98 247.5t-240 101.5q-147 0 -241.5 -100.5t-94.5 -248.5zM233 1323h103q14 -73 70.5 -119.5t144.5 -46.5t144.5 46.5t70.5 119.5h102q-10 -52 -32 -96t-58.5 -82.5t-94.5 -61t-132 -22.5 t-132 22.5t-95 61t-59 82.5t-32 96z" />
<glyph unicode="&#x120;" horiz-adv-x="1705" d="M139 717q0 151 56 286.5t153.5 234t235.5 156.5t295 58q244 0 422.5 -129t228.5 -332h-127q-40 147 -182.5 245.5t-341.5 98.5q-175 0 -315.5 -80.5t-219 -222t-78.5 -315.5q0 -175 76.5 -316.5t215.5 -222t314 -80.5q166 0 297 73t203 197.5t76 278.5h-565v111h688 q2 -27 2 -68q0 -155 -52 -287t-144.5 -224.5t-222.5 -144.5t-282 -52q-209 0 -377.5 98t-262 266t-93.5 371zM786 1632q0 37 23 60.5t61 23.5t61 -23.5t23 -60.5q0 -38 -23 -61t-61 -23t-61 23t-23 61z" />
<glyph unicode="&#x121;" d="M102 446q0 188 129 320.5t320 132.5q108 0 196 -46.5t148 -125.5v158h113v-881q0 -206 -123 -323t-326 -117q-181 0 -297 82t-131 209h113q19 -85 101 -137t210 -52q161 0 249.5 92t88.5 267v139q-59 -78 -147 -123t-195 -45q-126 0 -229.5 60.5t-161.5 163.5t-58 226z M219 446q0 -147 94.5 -247.5t241.5 -100.5q142 0 240 101.5t98 246.5q0 146 -98 247.5t-240 101.5q-147 0 -241.5 -100.5t-94.5 -248.5zM469 1180q0 35 22.5 57.5t59.5 22.5t59.5 -22.5t22.5 -57.5q0 -37 -22.5 -59.5t-59.5 -22.5t-59.5 22.5t-22.5 59.5z" />
<glyph unicode="&#x122;" horiz-adv-x="1705" d="M139 717q0 151 56 286.5t153.5 234t235.5 156.5t295 58q244 0 422.5 -129t228.5 -332h-127q-40 147 -182.5 245.5t-341.5 98.5q-175 0 -315.5 -80.5t-219 -222t-78.5 -315.5q0 -175 76.5 -316.5t215.5 -222t314 -80.5q166 0 297 73t203 197.5t76 278.5h-565v111h688 q2 -27 2 -68q0 -155 -52 -287t-144.5 -224.5t-222.5 -144.5t-282 -52q-209 0 -377.5 98t-262 266t-93.5 371zM766 -430l49 340h127l-78 -340h-98z" />
<glyph unicode="&#x123;" d="M102 446q0 188 129 320.5t320 132.5q108 0 196 -46.5t148 -125.5v158h113v-881q0 -206 -123 -323t-326 -117q-181 0 -297 82t-131 209h113q19 -85 101 -137t210 -52q161 0 249.5 92t88.5 267v139q-59 -78 -147 -123t-195 -45q-126 0 -229.5 60.5t-161.5 163.5t-58 226z M219 446q0 -147 94.5 -247.5t241.5 -100.5q142 0 240 101.5t98 246.5q0 146 -98 247.5t-240 101.5q-147 0 -241.5 -100.5t-94.5 -248.5zM489 1061l74 334h99l-50 -334h-123z" />
<glyph unicode="&#x124;" horiz-adv-x="1595" d="M217 0v1434h121v-654h919v654h121v-1434h-121v666h-919v-666h-121zM473 1552l260 273h127l260 -273h-125l-198 177l-199 -177h-125z" />
<glyph unicode="&#x125;" horiz-adv-x="1124" d="M166 0v1434h115v-701q44 79 128 122.5t189 43.5q170 0 271.5 -100.5t101.5 -268.5v-530h-115v496q0 141 -71.5 219t-209.5 78q-131 0 -212.5 -82.5t-81.5 -221.5v-489h-115zM256 1552l260 273h127l260 -273h-125l-198 177l-199 -177h-125z" />
<glyph unicode="&#x126;" horiz-adv-x="1595" d="M41 1079v99h176v256h121v-256h919v256h121v-256h172v-99h-172v-1079h-121v666h-919v-666h-121v1079h-176zM338 780h919v299h-919v-299z" />
<glyph unicode="&#x127;" horiz-adv-x="1124" d="M10 1087v97h156v250h115v-250h417v-97h-417v-354q44 79 128 122.5t189 43.5q170 0 271.5 -100.5t101.5 -268.5v-530h-115v496q0 141 -71.5 219t-209.5 78q-131 0 -212.5 -82.5t-81.5 -221.5v-489h-115v1087h-156z" />
<glyph unicode="&#x128;" horiz-adv-x="577" d="M-37 1567q20 81 65 128.5t117 47.5q58 0 150 -44t133 -44q73 0 104 82l82 -11q-20 -82 -65.5 -130t-116.5 -48q-58 0 -149.5 44t-132.5 44q-74 0 -105 -82zM227 0v1434h121v-1434h-121z" />
<glyph unicode="&#x129;" horiz-adv-x="452" d="M-55 1071q43 170 164 170q42 0 119 -39t112 -39q58 0 86 76l80 -10q-43 -168 -164 -168q-42 0 -119 39t-112 39q-58 0 -86 -78zM168 0v885h115v-885h-115z" />
<glyph unicode="&#x12a;" horiz-adv-x="577" d="M-27 1561v98h631v-98h-631zM227 0v1434h121v-1434h-121z" />
<glyph unicode="&#x12b;" horiz-adv-x="452" d="M-33 1108v96h516v-96h-516zM168 0v885h115v-885h-115z" />
<glyph unicode="&#x12c;" horiz-adv-x="577" d="M-35 1810h107q11 -69 68 -114t149 -45q93 0 149.5 44.5t67.5 114.5h106q-10 -51 -33 -95.5t-60.5 -82.5t-96.5 -60t-133 -22t-133 22t-97 60t-61 82.5t-33 95.5zM227 0v1434h121v-1434h-121z" />
<glyph unicode="&#x12d;" horiz-adv-x="452" d="M-61 1321h102q7 -70 54 -119t130 -49t130.5 49t54.5 119h102q-12 -109 -85 -185.5t-202 -76.5t-201.5 76.5t-84.5 185.5zM168 0v885h115v-885h-115z" />
<glyph unicode="&#x12e;" horiz-adv-x="577" d="M51 -233q0 148 176 243v1424h121v-1434q-88 -39 -134 -92.5t-46 -114.5q0 -39 26.5 -59.5t67.5 -20.5q63 0 119 35l43 -72q-81 -67 -180 -67q-78 0 -135.5 42.5t-57.5 115.5z" />
<glyph unicode="&#x12f;" horiz-adv-x="452" d="M29 -229q0 130 139 233v881h115v-883l2 -2q-81 -46 -115.5 -94.5t-34.5 -108.5q0 -46 27 -69t74 -23q61 0 114 41l39 -68q-69 -69 -170 -69q-84 0 -137 44t-53 118zM145 1180q0 36 22 58t58 22q38 0 60 -22t22 -58q0 -37 -22 -59.5t-60 -22.5q-37 0 -58.5 22.5 t-21.5 59.5z" />
<glyph unicode="&#x130;" horiz-adv-x="577" d="M205 1632q0 37 23 60.5t61 23.5t61 -23.5t23 -60.5q0 -38 -23 -61t-61 -23t-61 23t-23 61zM227 0v1434h121v-1434h-121z" />
<glyph unicode="&#x131;" horiz-adv-x="452" d="M168 0v885h115v-885h-115z" />
<glyph unicode="&#x132;" horiz-adv-x="1794" d="M227 0v1434h121v-1434h-121zM659 338h119q18 -115 103 -178.5t237 -63.5q166 0 261.5 106.5t95.5 313.5v918h120v-936q0 -247 -130 -381.5t-343 -134.5q-202 0 -320.5 93.5t-142.5 262.5z" />
<glyph unicode="&#x133;" horiz-adv-x="911" d="M145 1180q0 36 22 58t58 22q38 0 60 -22t22 -58q0 -37 -22 -59.5t-60 -22.5q-37 0 -58.5 22.5t-21.5 59.5zM168 0v885h115v-885h-115zM385 -342q43 -6 84 -6q82 0 120 49t38 156v1028h114v-1045q0 -293 -252 -293q-51 0 -104 11v100zM604 1180q0 36 22 58t58 22 q38 0 60 -22t22 -58q0 -37 -22 -59.5t-60 -22.5q-37 0 -58.5 22.5t-21.5 59.5z" />
<glyph unicode="&#x134;" horiz-adv-x="1216" d="M82 338h119q18 -115 103 -178.5t237 -63.5q166 0 261 106.5t95 313.5v918h121v-936q0 -247 -130 -381.5t-343 -134.5q-202 0 -320.5 93.5t-142.5 262.5zM633 1552l260 273h127l260 -273h-125l-199 177l-198 -177h-125z" />
<glyph unicode="&#x135;" horiz-adv-x="460" d="M-80 1061l250 280h127l250 -280h-119l-195 186l-194 -186h-119zM-66 -342q44 -6 84 -6q82 0 120 49t38 156v1028h115v-1045q0 -293 -252 -293q-52 0 -105 11v100z" />
<glyph unicode="&#x136;" horiz-adv-x="1437" d="M217 0v1434h121v-867l854 867h164l-649 -654l679 -780h-151l-608 700l-289 -290v-410h-121zM641 -432l49 340h127l-78 -340h-98z" />
<glyph unicode="&#x137;" horiz-adv-x="987" d="M166 0v1434h115v-988l493 439h156l-414 -363l424 -522h-137l-367 453l-155 -138v-315h-115zM432 -426l49 336h123l-74 -336h-98z" />
<glyph unicode="&#x138;" horiz-adv-x="987" d="M166 0v885h115v-439l493 439h156l-414 -363l424 -522h-137l-367 453l-155 -138v-315h-115z" />
<glyph unicode="&#x139;" horiz-adv-x="1241" d="M217 0v1434h121v-1319h833v-115h-954zM219 1614l287 244l86 -105l-316 -207z" />
<glyph unicode="&#x13a;" horiz-adv-x="452" d="M168 0v1434h115v-1434h-115zM168 1595l287 244l86 -104l-316 -207z" />
<glyph unicode="&#x13b;" horiz-adv-x="1241" d="M217 0v1434h121v-1319h833v-115h-954zM621 -430l49 340h127l-78 -340h-98z" />
<glyph unicode="&#x13c;" horiz-adv-x="452" d="M115 -426l49 336h123l-74 -336h-98zM168 0v1434h115v-1434h-115z" />
<glyph unicode="&#x13d;" horiz-adv-x="1241" d="M217 0v1434h121v-1319h833v-115h-954zM621 1053l20 381h123l-55 -381h-88z" />
<glyph unicode="&#x13e;" horiz-adv-x="452" d="M168 0v1434h115v-1434h-115zM428 1053l18 381h117l-55 -381h-80z" />
<glyph unicode="&#x13f;" horiz-adv-x="1241" d="M217 0v1434h121v-1319h833v-115h-954zM711 717q0 41 26.5 67.5t67.5 26.5t67.5 -26.5t26.5 -67.5q0 -40 -26.5 -67t-67.5 -27t-67.5 27t-26.5 67z" />
<glyph unicode="&#x140;" horiz-adv-x="610" d="M168 0v1434h115v-1434h-115zM430 483q0 41 26.5 68t67.5 27t67.5 -27t26.5 -68q0 -40 -26.5 -67t-67.5 -27t-67.5 27t-26.5 67z" />
<glyph unicode="&#x141;" horiz-adv-x="1245" d="M37 545l184 104v785h123v-713l391 225l49 -84l-440 -252v-495h832v-115h-955v539l-137 -78z" />
<glyph unicode="&#x142;" horiz-adv-x="542" d="M31 618l182 105v711h115v-643l135 77l49 -82l-184 -106v-680h-115v614l-135 -77z" />
<glyph unicode="&#x143;" horiz-adv-x="1626" d="M217 0v1438h109l964 -1248v1244h119v-1438h-109l-964 1247v-1243h-119zM756 1614l286 244l86 -105l-315 -207z" />
<glyph unicode="&#x144;" horiz-adv-x="1124" d="M166 0v885h113v-156q42 81 127 125.5t192 44.5q170 0 271.5 -100.5t101.5 -268.5v-530h-115v496q0 141 -71.5 219t-209.5 78q-131 0 -212.5 -82.5t-81.5 -221.5v-489h-115zM524 1110l285 274l88 -94l-315 -241z" />
<glyph unicode="&#x145;" horiz-adv-x="1626" d="M217 0v1438h109l964 -1248v1244h119v-1438h-109l-964 1247v-1243h-119zM700 -430l50 340h127l-78 -340h-99z" />
<glyph unicode="&#x146;" horiz-adv-x="1124" d="M166 0v885h113v-156q42 81 127 125.5t192 44.5q170 0 271.5 -100.5t101.5 -268.5v-530h-115v496q0 141 -71.5 219t-209.5 78q-131 0 -212.5 -82.5t-81.5 -221.5v-489h-115zM467 -426l49 336h123l-74 -336h-98z" />
<glyph unicode="&#x147;" horiz-adv-x="1626" d="M217 0v1438h109l964 -1248v1244h119v-1438h-109l-964 1247v-1243h-119zM489 1825h125l199 -176l199 176h125l-260 -273h-127z" />
<glyph unicode="&#x148;" horiz-adv-x="1124" d="M166 0v885h113v-156q42 81 127 125.5t192 44.5q170 0 271.5 -100.5t101.5 -268.5v-530h-115v496q0 141 -71.5 219t-209.5 78q-131 0 -212.5 -82.5t-81.5 -221.5v-489h-115zM268 1341h119l195 -186l194 186h119l-250 -280h-127z" />
<glyph unicode="&#x149;" horiz-adv-x="1445" d="M98 868l107 586h145l-149 -586h-103zM485 0v885h113v-156q42 81 127.5 125.5t192.5 44.5q170 0 271 -100.5t101 -268.5v-530h-114v496q0 141 -71.5 219t-209.5 78q-131 0 -213 -82.5t-82 -221.5v-489h-115z" />
<glyph unicode="&#x14a;" horiz-adv-x="1626" d="M217 0v1438h109l964 -1248v1244h119v-1567q0 -157 -83 -239.5t-228 -82.5q-113 0 -193 25v100q65 -18 164 -18q111 0 166 56.5t55 174.5v127l-954 1233v-1243h-119z" />
<glyph unicode="&#x14b;" horiz-adv-x="1124" d="M166 0v885h113v-152q44 79 128.5 122.5t190.5 43.5q170 0 271.5 -100.5t101.5 -268.5v-690q0 -293 -252 -293q-52 0 -105 11v100q44 -6 84 -6q82 0 120 49t38 156v639q0 141 -71.5 219t-209.5 78q-131 0 -212.5 -82.5t-81.5 -221.5v-489h-115z" />
<glyph unicode="&#x14c;" horiz-adv-x="1744" d="M139 717q0 151 57.5 287.5t155 234.5t233.5 155.5t287 57.5q202 0 370.5 -97.5t266 -266.5t97.5 -371t-97.5 -371t-266 -266.5t-370.5 -97.5q-151 0 -287 57.5t-233.5 155.5t-155 234.5t-57.5 287.5zM266 717q0 -130 47 -245.5t128 -197t193 -129t238 -47.5t238 47.5 t193 129t128.5 197t47.5 245.5q0 174 -80.5 316t-219.5 222t-307 80q-126 0 -238 -47t-193 -128.5t-128 -197t-47 -245.5zM557 1561v98h631v-98h-631z" />
<glyph unicode="&#x14d;" horiz-adv-x="1120" d="M102 442q0 192 133.5 324.5t325.5 132.5q191 0 325 -133t134 -324t-134 -323.5t-325 -132.5q-192 0 -325.5 132t-133.5 324zM219 442q0 -152 98.5 -253t243.5 -101q143 0 241.5 101.5t98.5 252.5t-98.5 252t-241.5 101q-145 0 -243.5 -100.5t-98.5 -252.5zM258 1108v96 h606v-96h-606z" />
<glyph unicode="&#x14e;" horiz-adv-x="1744" d="M139 717q0 151 57.5 287.5t155 234.5t233.5 155.5t287 57.5q202 0 370.5 -97.5t266 -266.5t97.5 -371t-97.5 -371t-266 -266.5t-370.5 -97.5q-151 0 -287 57.5t-233.5 155.5t-155 234.5t-57.5 287.5zM266 717q0 -130 47 -245.5t128 -197t193 -129t238 -47.5t238 47.5 t193 129t128.5 197t47.5 245.5q0 174 -80.5 316t-219.5 222t-307 80q-126 0 -238 -47t-193 -128.5t-128 -197t-47 -245.5zM549 1810h106q11 -69 68 -114t149 -45q93 0 150 45t68 114h106q-10 -51 -33 -95.5t-61 -82.5t-97 -60t-133 -22t-133 22t-96.5 60t-60.5 82.5 t-33 95.5z" />
<glyph unicode="&#x14f;" horiz-adv-x="1120" d="M102 442q0 192 133.5 324.5t325.5 132.5q191 0 325 -133t134 -324t-134 -323.5t-325 -132.5q-192 0 -325.5 132t-133.5 324zM219 442q0 -152 98.5 -253t243.5 -101q143 0 241.5 101.5t98.5 252.5t-98.5 252t-241.5 101q-145 0 -243.5 -100.5t-98.5 -252.5zM244 1323h102 q14 -73 70.5 -119.5t144.5 -46.5t144.5 46.5t70.5 119.5h103q-10 -52 -32 -96t-59 -82.5t-95 -61t-132 -22.5t-132 22.5t-94.5 61t-58.5 82.5t-32 96z" />
<glyph unicode="&#x150;" horiz-adv-x="1744" d="M139 717q0 151 57.5 287.5t155 234.5t233.5 155.5t287 57.5q202 0 370.5 -97.5t266 -266.5t97.5 -371t-97.5 -371t-266 -266.5t-370.5 -97.5q-151 0 -287 57.5t-233.5 155.5t-155 234.5t-57.5 287.5zM266 717q0 -130 47 -245.5t128 -197t193 -129t238 -47.5t238 47.5 t193 129t128.5 197t47.5 245.5q0 174 -80.5 316t-219.5 222t-307 80q-126 0 -238 -47t-193 -128.5t-128 -197t-47 -245.5zM627 1591l159 291l117 -72l-201 -262zM997 1591l162 291l117 -72l-201 -262z" />
<glyph unicode="&#x151;" horiz-adv-x="1120" d="M102 442q0 192 133.5 324.5t325.5 132.5q191 0 325 -133t134 -324t-134 -323.5t-325 -132.5q-192 0 -325.5 132t-133.5 324zM219 442q0 -152 98.5 -253t243.5 -101q143 0 241.5 101.5t98.5 252.5t-98.5 252t-241.5 101q-145 0 -243.5 -100.5t-98.5 -252.5zM324 1096 l178 317l108 -67l-213 -289zM680 1096l178 317l107 -67l-211 -289z" />
<glyph unicode="&#x152;" horiz-adv-x="2338" d="M139 721q0 154 55 286t153.5 226t241 147.5t310.5 53.5h1276v-113h-856v-543h807v-110h-807v-555h862v-113h-1278q-169 0 -312.5 54t-242 149.5t-154 229t-55.5 288.5zM266 721q0 -272 170 -439t467 -167h295v1204h-299q-294 0 -463.5 -165.5t-169.5 -432.5z" />
<glyph unicode="&#x153;" horiz-adv-x="1851" d="M102 442q0 192 133.5 324.5t325.5 132.5q126 0 230.5 -64t162.5 -171q56 108 156.5 171.5t222.5 63.5q121 0 218 -62t149.5 -165.5t52.5 -227.5v-47h-739q13 -146 105 -229.5t227 -83.5q112 0 185.5 47.5t94.5 128.5h107q-27 -122 -133 -198t-259 -76q-128 0 -230 62.5 t-157 170.5q-58 -107 -162.5 -170t-230.5 -63q-192 0 -325.5 132t-133.5 324zM219 442q0 -153 98.5 -254.5t243.5 -101.5q144 0 242 101.5t98 254.5q0 151 -98.5 253t-241.5 102q-145 0 -243.5 -101.5t-98.5 -253.5zM1014 492h624q-13 140 -100 224.5t-207 84.5 q-122 0 -212 -84t-105 -225z" />
<glyph unicode="&#x154;" horiz-adv-x="1464" d="M217 0v1434h617q236 0 365.5 -116.5t129.5 -322.5q0 -192 -116 -309.5t-324 -132.5l450 -553h-141l-448 551h-412v-551h-121zM338 662h475q192 0 291.5 84t99.5 245q0 162 -99 246t-292 84h-475v-659zM690 1614l287 244l86 -105l-315 -207z" />
<glyph unicode="&#x155;" horiz-adv-x="729" d="M166 0v885h113v-170q42 85 120.5 131.5t186.5 46.5q39 0 84 -10v-105q-35 6 -82 6q-154 0 -230.5 -89t-76.5 -246v-449h-115zM373 1110l284 274l88 -94l-315 -241z" />
<glyph unicode="&#x156;" horiz-adv-x="1464" d="M217 0v1434h617q236 0 365.5 -116.5t129.5 -322.5q0 -192 -116 -309.5t-324 -132.5l450 -553h-141l-448 551h-412v-551h-121zM338 662h475q192 0 291.5 84t99.5 245q0 162 -99 246t-292 84h-475v-659zM621 -430l49 340h127l-78 -340h-98z" />
<glyph unicode="&#x157;" horiz-adv-x="729" d="M113 -426l49 336h123l-74 -336h-98zM166 0v885h113v-170q42 85 120.5 131.5t186.5 46.5q39 0 84 -10v-105q-35 6 -82 6q-154 0 -230.5 -89t-76.5 -246v-449h-115z" />
<glyph unicode="&#x158;" horiz-adv-x="1464" d="M217 0v1434h617q236 0 365.5 -116.5t129.5 -322.5q0 -192 -116 -309.5t-324 -132.5l450 -553h-141l-448 551h-412v-551h-121zM338 662h475q192 0 291.5 84t99.5 245q0 162 -99 246t-292 84h-475v-659zM424 1825h125l199 -176l198 176h125l-260 -273h-127z" />
<glyph unicode="&#x159;" horiz-adv-x="729" d="M117 1341h119l194 -186l195 186h118l-249 -280h-127zM166 0v885h113v-170q42 85 120.5 131.5t186.5 46.5q39 0 84 -10v-105q-35 6 -82 6q-154 0 -230.5 -89t-76.5 -246v-449h-115z" />
<glyph unicode="&#x15a;" horiz-adv-x="1298" d="M115 342h121q17 -117 127.5 -182.5t291.5 -65.5q172 0 277.5 75t105.5 210q0 99 -67.5 163.5t-210.5 96.5l-219 49q-192 43 -291.5 134t-99.5 247q0 181 130 281t349 100q211 0 337 -88.5t148 -241.5h-119q-19 101 -113.5 160t-254.5 59q-164 0 -259.5 -67.5 t-95.5 -198.5q0 -110 78 -173.5t236 -100.5l219 -47q185 -41 270.5 -130t85.5 -237q0 -130 -67.5 -222t-179.5 -135.5t-257 -43.5q-232 0 -376 95t-166 263zM571 1614l287 244l86 -105l-315 -207z" />
<glyph unicode="&#x15b;" horiz-adv-x="843" d="M70 231h108q10 -67 78.5 -107t171.5 -40q94 0 158.5 42.5t64.5 113.5q0 63 -41 96t-143 53l-109 23q-129 27 -192.5 84t-63.5 155q0 111 87.5 178.5t222.5 67.5q148 0 233 -64t98 -167h-108q-9 60 -68.5 97.5t-154.5 37.5q-86 0 -142.5 -40t-56.5 -104q0 -66 43.5 -98 t134.5 -53l111 -23q129 -25 194.5 -83.5t65.5 -157.5q0 -118 -93 -187t-241 -69q-156 0 -250 67.5t-108 177.5zM356 1110l285 274l88 -94l-315 -241z" />
<glyph unicode="&#x15c;" horiz-adv-x="1298" d="M115 342h121q17 -117 127.5 -182.5t291.5 -65.5q172 0 277.5 75t105.5 210q0 99 -67.5 163.5t-210.5 96.5l-219 49q-192 43 -291.5 134t-99.5 247q0 181 130 281t349 100q211 0 337 -88.5t148 -241.5h-119q-19 101 -113.5 160t-254.5 59q-164 0 -259.5 -67.5 t-95.5 -198.5q0 -110 78 -173.5t236 -100.5l219 -47q185 -41 270.5 -130t85.5 -237q0 -130 -67.5 -222t-179.5 -135.5t-257 -43.5q-232 0 -376 95t-166 263zM305 1552l260 273h127l260 -273h-125l-198 177l-199 -177h-125z" />
<glyph unicode="&#x15d;" horiz-adv-x="843" d="M70 231h108q10 -67 78.5 -107t171.5 -40q94 0 158.5 42.5t64.5 113.5q0 63 -41 96t-143 53l-109 23q-129 27 -192.5 84t-63.5 155q0 111 87.5 178.5t222.5 67.5q148 0 233 -64t98 -167h-108q-9 60 -68.5 97.5t-154.5 37.5q-86 0 -142.5 -40t-56.5 -104q0 -66 43.5 -98 t134.5 -53l111 -23q129 -25 194.5 -83.5t65.5 -157.5q0 -118 -93 -187t-241 -69q-156 0 -250 67.5t-108 177.5zM100 1061l250 280h127l250 -280h-119l-194 186l-195 -186h-119z" />
<glyph unicode="&#x15e;" horiz-adv-x="1298" d="M115 342h121q17 -117 127.5 -182.5t291.5 -65.5q172 0 277.5 75t105.5 210q0 99 -67.5 163.5t-210.5 96.5l-219 49q-192 43 -291.5 134t-99.5 247q0 181 130 281t349 100q211 0 337 -88.5t148 -241.5h-119q-19 101 -113.5 160t-254.5 59q-164 0 -259.5 -67.5 t-95.5 -198.5q0 -110 78 -173.5t236 -100.5l219 -47q185 -41 270.5 -130t85.5 -237q0 -182 -123.5 -284t-326.5 -115l-99 -324h-137l123 324q-208 12 -335.5 105t-147.5 251z" />
<glyph unicode="&#x15f;" horiz-adv-x="843" d="M70 231h108q10 -67 78.5 -107t171.5 -40q94 0 158.5 42.5t64.5 113.5q0 63 -41 96t-143 53l-109 23q-129 27 -192.5 84t-63.5 155q0 111 87.5 178.5t222.5 67.5q148 0 233 -64t98 -167h-108q-9 60 -68.5 97.5t-154.5 37.5q-86 0 -142.5 -40t-56.5 -104q0 -66 43.5 -98 t134.5 -53l111 -23q129 -25 194.5 -83.5t65.5 -157.5q0 -107 -77.5 -174t-203.5 -78l-98 -324h-129l121 322q-133 10 -213 76t-92 167z" />
<glyph unicode="&#x160;" horiz-adv-x="1298" d="M115 342h121q17 -117 127.5 -182.5t291.5 -65.5q172 0 277.5 75t105.5 210q0 99 -67.5 163.5t-210.5 96.5l-219 49q-192 43 -291.5 134t-99.5 247q0 181 130 281t349 100q211 0 337 -88.5t148 -241.5h-119q-19 101 -113.5 160t-254.5 59q-164 0 -259.5 -67.5 t-95.5 -198.5q0 -110 78 -173.5t236 -100.5l219 -47q185 -41 270.5 -130t85.5 -237q0 -130 -67.5 -222t-179.5 -135.5t-257 -43.5q-232 0 -376 95t-166 263zM305 1825h125l199 -176l198 176h125l-260 -273h-127z" />
<glyph unicode="&#x161;" horiz-adv-x="843" d="M70 231h108q10 -67 78.5 -107t171.5 -40q94 0 158.5 42.5t64.5 113.5q0 63 -41 96t-143 53l-109 23q-129 27 -192.5 84t-63.5 155q0 111 87.5 178.5t222.5 67.5q148 0 233 -64t98 -167h-108q-9 60 -68.5 97.5t-154.5 37.5q-86 0 -142.5 -40t-56.5 -104q0 -66 43.5 -98 t134.5 -53l111 -23q129 -25 194.5 -83.5t65.5 -157.5q0 -118 -93 -187t-241 -69q-156 0 -250 67.5t-108 177.5zM100 1341h119l195 -186l194 186h119l-250 -280h-127z" />
<glyph unicode="&#x162;" horiz-adv-x="1263" d="M68 1321v113h1128v-113h-504v-1321h-121v1321h-503zM518 -430l49 340h127l-78 -340h-98z" />
<glyph unicode="&#x163;" horiz-adv-x="800" d="M66 782v103h182v278h112v-278h353v-103h-353v-491q0 -108 47 -152.5t150 -44.5q78 0 160 29v-103q-73 -32 -176 -32q-146 0 -220.5 68t-74.5 218v508h-180zM399 -426l50 336h122l-73 -336h-99z" />
<glyph unicode="&#x164;" horiz-adv-x="1263" d="M68 1321v113h1128v-113h-504v-1321h-121v1321h-503zM307 1825h125l199 -176l198 176h125l-260 -273h-127z" />
<glyph unicode="&#x165;" horiz-adv-x="800" d="M66 782v103h182v278h112v-278h353v-103h-353v-491q0 -108 47 -152.5t150 -44.5q78 0 160 29v-103q-73 -32 -176 -32q-146 0 -220.5 68t-74.5 218v508h-180zM539 1053l18 381h117l-56 -381h-79z" />
<glyph unicode="&#x166;" horiz-adv-x="1263" d="M68 1321v113h1128v-113h-504v-553h291v-98h-291v-670h-121v670h-292v98h292v553h-503z" />
<glyph unicode="&#x167;" horiz-adv-x="800" d="M66 782v103h182v278h112v-278h353v-103h-353v-280h299v-99h-299v-112q0 -108 47 -152.5t150 -44.5q78 0 160 29v-103q-73 -32 -176 -32q-146 0 -220.5 68t-74.5 218v129h-178v99h178v280h-180z" />
<glyph unicode="&#x168;" horiz-adv-x="1587" d="M205 575v859h123v-838q0 -242 125.5 -371t341.5 -129t341.5 129t125.5 371v838h120v-859q0 -188 -76.5 -323.5t-208 -202.5t-304.5 -67q-172 0 -303.5 67t-208 202.5t-76.5 323.5zM469 1567q20 81 65 128.5t117 47.5q58 0 150 -44t133 -44q73 0 104 82l82 -11 q-20 -82 -65.5 -130t-116.5 -48q-58 0 -150 44t-133 44q-73 0 -104 -82z" />
<glyph unicode="&#x169;" horiz-adv-x="1120" d="M154 352v533h114v-496q0 -142 71 -220.5t208 -78.5q130 0 211.5 82.5t81.5 222.5v490h114v-885h-112v152q-46 -79 -129.5 -122.5t-188.5 -43.5q-169 0 -269.5 99.5t-100.5 266.5zM238 1071q46 172 180 172q46 0 140 -44t134 -44q38 0 62 19.5t39 62.5l79 -10 q-47 -174 -180 -174q-46 0 -140 44t-134 44q-71 0 -101 -82z" />
<glyph unicode="&#x16a;" horiz-adv-x="1587" d="M205 575v859h123v-838q0 -242 125.5 -371t341.5 -129t341.5 129t125.5 371v838h120v-859q0 -188 -76.5 -323.5t-208 -202.5t-304.5 -67q-172 0 -303.5 67t-208 202.5t-76.5 323.5zM479 1561v98h631v-98h-631z" />
<glyph unicode="&#x16b;" horiz-adv-x="1120" d="M154 352v533h114v-496q0 -142 71 -220.5t208 -78.5q130 0 211.5 82.5t81.5 222.5v490h114v-885h-112v152q-46 -79 -129.5 -122.5t-188.5 -43.5q-169 0 -269.5 99.5t-100.5 266.5zM252 1108v96h606v-96h-606z" />
<glyph unicode="&#x16c;" horiz-adv-x="1587" d="M205 575v859h123v-838q0 -242 125.5 -371t341.5 -129t341.5 129t125.5 371v838h120v-859q0 -188 -76.5 -323.5t-208 -202.5t-304.5 -67q-172 0 -303.5 67t-208 202.5t-76.5 323.5zM471 1810h107q11 -69 68 -114t149 -45q93 0 149.5 44.5t67.5 114.5h106 q-10 -51 -33 -95.5t-60.5 -82.5t-96.5 -60t-133 -22t-133 22t-97 60t-61 82.5t-33 95.5z" />
<glyph unicode="&#x16d;" horiz-adv-x="1120" d="M154 352v533h114v-496q0 -142 71 -220.5t208 -78.5q130 0 211.5 82.5t81.5 222.5v490h114v-885h-112v152q-46 -79 -129.5 -122.5t-188.5 -43.5q-169 0 -269.5 99.5t-100.5 266.5zM238 1323h102q14 -73 70.5 -119.5t144.5 -46.5t144.5 46.5t70.5 119.5h102 q-10 -52 -32 -96t-58.5 -82.5t-94.5 -61t-132 -22.5t-132 22.5t-94.5 61t-58.5 82.5t-32 96z" />
<glyph unicode="&#x16e;" horiz-adv-x="1587" d="M205 575v859h123v-838q0 -242 125.5 -371t341.5 -129t341.5 129t125.5 371v838h120v-859q0 -188 -76.5 -323.5t-208 -202.5t-304.5 -67q-172 0 -303.5 67t-208 202.5t-76.5 323.5zM594 1737q0 83 56.5 137.5t144.5 54.5t144 -54.5t56 -137.5q0 -84 -56.5 -138.5 t-143.5 -54.5q-88 0 -144.5 55t-56.5 138zM678 1737q0 -51 32.5 -84t84.5 -33t84 33t32 84t-32 83.5t-84 32.5t-84.5 -32.5t-32.5 -83.5z" />
<glyph unicode="&#x16f;" horiz-adv-x="1120" d="M154 352v533h114v-496q0 -142 71 -220.5t208 -78.5q130 0 211.5 82.5t81.5 222.5v490h114v-885h-112v152q-46 -79 -129.5 -122.5t-188.5 -43.5q-169 0 -269.5 99.5t-100.5 266.5zM356 1221q0 83 55.5 136.5t143.5 53.5t143.5 -53.5t55.5 -136.5q0 -82 -56 -136.5 t-143 -54.5t-143 54.5t-56 136.5zM436 1221q0 -52 33 -84.5t86 -32.5t86 32.5t33 84.5t-33 85t-86 33t-86 -33t-33 -85z" />
<glyph unicode="&#x170;" horiz-adv-x="1587" d="M205 575v859h123v-838q0 -242 125.5 -371t341.5 -129t341.5 129t125.5 371v838h120v-859q0 -188 -76.5 -323.5t-208 -202.5t-304.5 -67q-172 0 -303.5 67t-208 202.5t-76.5 323.5zM549 1591l160 291l116 -72l-200 -262zM920 1591l161 291l117 -72l-201 -262z" />
<glyph unicode="&#x171;" horiz-adv-x="1120" d="M154 352v533h114v-496q0 -142 71 -220.5t208 -78.5q130 0 211.5 82.5t81.5 222.5v490h114v-885h-112v152q-46 -79 -129.5 -122.5t-188.5 -43.5q-169 0 -269.5 99.5t-100.5 266.5zM270 1096l179 317l108 -67l-213 -289zM627 1096l178 317l106 -67l-211 -289z" />
<glyph unicode="&#x172;" horiz-adv-x="1587" d="M205 575v859h123v-838q0 -242 125.5 -371t341.5 -129t341.5 129t125.5 371v838h120v-859q0 -206 -88.5 -346t-246.5 -202q-93 -47 -147 -109.5t-54 -122.5q0 -92 98 -92q68 0 133 43l41 -70q-83 -75 -194 -75q-87 0 -141 43t-54 123q0 118 127 217q-20 -2 -63 -2 q-172 0 -303.5 67t-208 202.5t-76.5 323.5z" />
<glyph unicode="&#x173;" horiz-adv-x="1120" d="M154 352v533h114v-496q0 -142 71 -220.5t208 -78.5q130 0 211.5 82.5t81.5 222.5v490h114v-883l2 -2q-109 -52 -164 -104.5t-55 -114.5q0 -35 26 -53.5t71 -18.5q71 0 124 39l39 -70q-73 -69 -184 -69q-81 0 -134.5 40.5t-53.5 108.5q0 76 56.5 135.5t160.5 114.5v144 q-46 -79 -129.5 -122.5t-188.5 -43.5q-169 0 -269.5 99.5t-100.5 266.5z" />
<glyph unicode="&#x174;" horiz-adv-x="2277" d="M90 1434h129l430 -1246l441 1246h102l434 -1248l436 1248h125l-510 -1442h-100l-438 1229l-439 -1229h-100zM815 1552l260 273h127l260 -273h-125l-198 177l-199 -177h-125z" />
<glyph unicode="&#x175;" horiz-adv-x="1568" d="M66 885h120l273 -721l280 721h99l272 -721l279 721h114l-348 -889h-88l-281 721l-284 -721h-88zM473 1061l250 280h127l250 -280h-119l-195 186l-194 -186h-119z" />
<glyph unicode="&#x176;" horiz-adv-x="1359" d="M33 1434h135l512 -752l512 752h135l-586 -861v-573h-123v573zM356 1552l260 273h127l261 -273h-125l-199 177l-199 -177h-125z" />
<glyph unicode="&#x177;" horiz-adv-x="1001" d="M49 885h123l340 -664l319 664h121l-649 -1327h-123l271 546zM199 1061l250 280h126l250 -280h-118l-195 186l-195 -186h-118z" />
<glyph unicode="&#x178;" horiz-adv-x="1359" d="M33 1434h135l512 -752l512 752h135l-586 -861v-573h-123v573zM381 1630q0 37 23 60.5t61 23.5t61 -23.5t23 -60.5t-23 -60.5t-61 -23.5t-61 23.5t-23 60.5zM811 1630q0 37 23 60.5t61 23.5t61 -23.5t23 -60.5t-23 -60.5t-61 -23.5t-61 23.5t-23 60.5z" />
<glyph unicode="&#x179;" horiz-adv-x="1406" d="M152 0v90l935 1231h-919v113h1077v-91l-934 -1230h944v-113h-1103zM649 1614l287 244l86 -105l-315 -207z" />
<glyph unicode="&#x17a;" horiz-adv-x="983" d="M115 0v80l598 704h-584v101h737v-80l-600 -707h604v-98h-755zM446 1110l285 274l88 -94l-315 -241z" />
<glyph unicode="&#x17b;" horiz-adv-x="1406" d="M152 0v90l935 1231h-919v113h1077v-91l-934 -1230h944v-113h-1103zM625 1632q0 37 23 60.5t61 23.5t61 -23.5t23 -60.5q0 -38 -23 -61t-61 -23t-61 23t-23 61z" />
<glyph unicode="&#x17c;" horiz-adv-x="983" d="M115 0v80l598 704h-584v101h737v-80l-600 -707h604v-98h-755zM422 1180q0 35 22.5 57.5t59.5 22.5t59.5 -22.5t22.5 -57.5q0 -37 -22.5 -59.5t-59.5 -22.5t-59.5 22.5t-22.5 59.5z" />
<glyph unicode="&#x17d;" horiz-adv-x="1406" d="M152 0v90l935 1231h-919v113h1077v-91l-934 -1230h944v-113h-1103zM385 1825h125l199 -176l198 176h125l-260 -273h-127z" />
<glyph unicode="&#x17e;" horiz-adv-x="983" d="M115 0v80l598 704h-584v101h737v-80l-600 -707h604v-98h-755zM190 1341h119l195 -186l194 186h119l-250 -280h-127z" />
<glyph unicode="&#x17f;" horiz-adv-x="471" d="M166 0v1053q0 195 75 293t234 98q65 0 133 -14v-101q-65 10 -116 10q-118 0 -164.5 -71.5t-46.5 -231.5v-1036h-115z" />
<glyph unicode="&#x18f;" horiz-adv-x="1697" d="M135 711q0 25 4 65h1291q-20 264 -186 412.5t-421 148.5q-206 0 -347 -87.5t-179 -239.5h-125q46 194 226.5 318t424.5 124q214 0 382 -93t262 -261.5t94 -382.5q0 -213 -91 -380t-255 -260t-373 -93q-161 0 -295.5 57t-224 155.5t-138.5 231.5t-49 285zM266 664 q14 -256 171.5 -412t410.5 -156q240 0 402.5 152.5t179.5 415.5h-1164z" />
<glyph unicode="&#x192;" horiz-adv-x="1327" d="M199 -440l14 102q55 -10 88 -10q80 0 123.5 48.5t58.5 154.5l109 755h-211l12 101h213l49 346q28 196 117.5 292.5t255.5 96.5q71 0 129 -16l-12 -101q-62 10 -115 10q-120 0 -177 -70t-79 -229l-47 -329h315l-14 -101h-315l-111 -772q-43 -293 -293 -293q-52 0 -110 15z " />
<glyph unicode="&#x1fa;" horiz-adv-x="1521" d="M72 0l641 1442h96l641 -1442h-123l-180 410h-774l-180 -410h-121zM424 522h672l-336 760zM559 1739q0 83 56.5 137.5t144.5 54.5t144.5 -54.5t56.5 -137.5t-56.5 -138t-144.5 -55t-144.5 55t-56.5 138zM643 1739q0 -51 32.5 -84t84.5 -33t84.5 33t32.5 84t-32.5 83.5 t-84.5 32.5t-84.5 -32.5t-32.5 -83.5zM702 2081l287 243l86 -104l-315 -207z" />
<glyph unicode="&#x1fb;" d="M102 442q0 193 129 325t320 132q106 0 194.5 -46.5t149.5 -127.5v160h113v-885h-113v158q-61 -79 -150 -125.5t-194 -46.5q-192 0 -320.5 131t-128.5 325zM219 442q0 -153 95.5 -253.5t242.5 -100.5q141 0 239.5 101.5t98.5 252.5t-98.5 252t-239.5 101 q-147 0 -242.5 -100t-95.5 -253zM352 1221q0 83 55.5 136.5t143.5 53.5t143.5 -53.5t55.5 -136.5q0 -82 -56 -136.5t-143 -54.5t-143 54.5t-56 136.5zM432 1221q0 -52 33 -84.5t86 -32.5t86 32.5t33 84.5t-33 85t-86 33t-86 -33t-33 -85zM494 1563l284 274l88 -94l-315 -242 z" />
<glyph unicode="&#x1fc;" horiz-adv-x="2281" d="M33 0l1071 1434h1022v-113h-856v-543h807v-110h-807v-555h864v-113h-985v395h-678l-293 -395h-145zM555 508h594v799zM1116 1614l287 244l86 -105l-315 -207z" />
<glyph unicode="&#x1fd;" horiz-adv-x="1716" d="M100 242q0 118 83 182.5t241 64.5h362q3 34 9 62q-3 116 -72.5 181t-200.5 65q-111 0 -178 -38t-78 -102h-110q14 105 110.5 172.5t255.5 67.5q132 0 217.5 -47.5t122.5 -132.5q58 86 147 134t195 48q180 0 297 -131t117 -322q0 -24 -2 -49h-723v-4q13 -143 103 -226 t221 -83q102 0 177 47.5t95 128.5h108q-28 -121 -135 -197.5t-250 -76.5q-118 0 -214 56.5t-152 154.5q-50 -90 -155.5 -149.5t-252.5 -59.5q-70 0 -129 14t-107 43t-75 79.5t-27 117.5zM211 242q0 -158 225 -158q152 0 252 70.5t107 185.5q-6 27 -9 57h-340 q-124 0 -179.5 -38t-55.5 -117zM807 1104l285 274l88 -94l-316 -242zM893 489h610q-13 141 -98 225.5t-201 84.5q-123 0 -210.5 -83t-100.5 -224v-3z" />
<glyph unicode="&#x1fe;" horiz-adv-x="1744" d="M139 717q0 151 57.5 287.5t155 234.5t233.5 155.5t287 57.5q262 0 461 -162l144 154l69 -68l-141 -151q96 -100 148.5 -230.5t52.5 -277.5q0 -202 -97.5 -371t-266 -266.5t-370.5 -97.5q-264 0 -464 161l-140 -153l-69 67l139 152q-94 100 -146.5 231t-52.5 277zM266 717 q0 -246 156 -420l829 905q-162 133 -379 133q-168 0 -307 -81t-219 -223t-80 -314zM489 231q165 -133 383 -133q168 0 307 81t219.5 223.5t80.5 314.5q0 244 -158 420zM815 1614l287 244l86 -105l-316 -207z" />
<glyph unicode="&#x1ff;" horiz-adv-x="1120" d="M102 442q0 192 133.5 324.5t325.5 132.5q157 0 281 -94l80 86l57 -57l-78 -84q119 -132 119 -308q0 -191 -134 -323.5t-325 -132.5q-157 0 -280 92l-82 -86l-58 59l78 84q-117 126 -117 307zM219 442q0 -131 74 -227l475 510q-93 70 -207 70q-145 0 -243.5 -100.5 t-98.5 -252.5zM352 158q89 -70 209 -70q143 0 241.5 101.5t98.5 252.5q0 131 -78 228zM504 1110l284 274l89 -94l-316 -241z" />
<glyph unicode="&#x218;" horiz-adv-x="1298" d="M115 342h121q17 -117 127.5 -182.5t291.5 -65.5q172 0 277.5 75t105.5 210q0 99 -67.5 163.5t-210.5 96.5l-219 49q-192 43 -291.5 134t-99.5 247q0 181 130 281t349 100q211 0 337 -88.5t148 -241.5h-119q-19 101 -113.5 160t-254.5 59q-164 0 -259.5 -67.5 t-95.5 -198.5q0 -110 78 -173.5t236 -100.5l219 -47q185 -41 270.5 -130t85.5 -237q0 -130 -67.5 -222t-179.5 -135.5t-257 -43.5q-232 0 -376 95t-166 263zM545 -430l49 340h127l-78 -340h-98z" />
<glyph unicode="&#x219;" horiz-adv-x="843" d="M70 231h108q10 -67 78.5 -107t171.5 -40q94 0 158.5 42.5t64.5 113.5q0 63 -41 96t-143 53l-109 23q-129 27 -192.5 84t-63.5 155q0 111 87.5 178.5t222.5 67.5q148 0 233 -64t98 -167h-108q-9 60 -68.5 97.5t-154.5 37.5q-86 0 -142.5 -40t-56.5 -104q0 -66 43.5 -98 t134.5 -53l111 -23q129 -25 194.5 -83.5t65.5 -157.5q0 -118 -93 -187t-241 -69q-156 0 -250 67.5t-108 177.5zM319 -426l50 336h123l-74 -336h-99z" />
<glyph unicode="&#x21a;" horiz-adv-x="1263" d="M68 1321v113h1128v-113h-504v-1321h-121v1321h-503zM518 -432l49 340h127l-78 -340h-98z" />
<glyph unicode="&#x21b;" horiz-adv-x="800" d="M66 782v103h182v278h112v-278h353v-103h-353v-491q0 -108 47 -152.5t150 -44.5q78 0 160 29v-103q-73 -32 -176 -32q-146 0 -220.5 68t-74.5 218v508h-180zM399 -426l50 336h122l-73 -336h-99z" />
<glyph unicode="&#x2c6;" horiz-adv-x="1024" d="M199 1061l250 280h126l250 -280h-118l-195 186l-195 -186h-118z" />
<glyph unicode="&#x2da;" horiz-adv-x="1024" d="M313 1221q0 83 55.5 136.5t143.5 53.5t143.5 -53.5t55.5 -136.5q0 -82 -56 -136.5t-143 -54.5t-143 54.5t-56 136.5zM393 1221q0 -52 33 -84.5t86 -32.5t86 32.5t33 84.5t-33 85t-86 33t-86 -33t-33 -85z" />
<glyph unicode="&#x2dc;" horiz-adv-x="1024" d="M195 1071q46 172 180 172q46 0 140 -44t134 -44q38 0 62 19.5t39 62.5l79 -10q-47 -174 -180 -174q-46 0 -140 44t-134 44q-71 0 -101 -82z" />
<glyph unicode="&#x1e80;" horiz-adv-x="2277" d="M90 1434h129l430 -1246l441 1246h102l434 -1248l436 1248h125l-510 -1442h-100l-438 1229l-439 -1229h-100zM825 1753l86 105l287 -244l-57 -68z" />
<glyph unicode="&#x1e81;" horiz-adv-x="1568" d="M66 885h120l273 -721l280 721h99l272 -721l279 721h114l-348 -889h-88l-281 721l-284 -721h-88zM471 1290l88 94l285 -274l-58 -61z" />
<glyph unicode="&#x1e82;" horiz-adv-x="2277" d="M90 1434h129l430 -1246l441 1246h102l434 -1248l436 1248h125l-510 -1442h-100l-438 1229l-439 -1229h-100zM1081 1614l287 244l86 -105l-315 -207z" />
<glyph unicode="&#x1e83;" horiz-adv-x="1568" d="M66 885h120l273 -721l280 721h99l272 -721l279 721h114l-348 -889h-88l-281 721l-284 -721h-88zM729 1110l285 274l88 -94l-316 -241z" />
<glyph unicode="&#x1e84;" horiz-adv-x="2277" d="M90 1434h129l430 -1246l441 1246h102l434 -1248l436 1248h125l-510 -1442h-100l-438 1229l-439 -1229h-100zM840 1630q0 37 23 60.5t61 23.5t61 -23.5t23 -60.5t-23 -60.5t-61 -23.5t-61 23.5t-23 60.5zM1270 1630q0 37 23 60.5t61 23.5t61 -23.5t23 -60.5t-23 -60.5 t-61 -23.5t-61 23.5t-23 60.5z" />
<glyph unicode="&#x1e85;" horiz-adv-x="1568" d="M66 885h120l273 -721l280 721h99l272 -721l279 721h114l-348 -889h-88l-281 721l-284 -721h-88zM508 1163q0 36 23 59t59 23q38 0 60 -23t22 -59q0 -37 -22 -59.5t-60 -22.5q-37 0 -59.5 22.5t-22.5 59.5zM901 1163q0 36 22 59t60 23q36 0 59 -23t23 -59 q0 -37 -22.5 -59.5t-59.5 -22.5q-38 0 -60 22.5t-22 59.5z" />
<glyph unicode="&#x1ef2;" horiz-adv-x="1359" d="M33 1434h135l512 -752l512 752h135l-586 -861v-573h-123v573zM365 1753l86 105l286 -244l-57 -68z" />
<glyph unicode="&#x1ef3;" horiz-adv-x="1001" d="M49 885h123l340 -664l319 664h121l-649 -1327h-123l271 546zM197 1290l88 94l284 -274l-57 -61z" />
<glyph unicode="&#x2000;" horiz-adv-x="1162" />
<glyph unicode="&#x2001;" horiz-adv-x="2324" />
<glyph unicode="&#x2002;" horiz-adv-x="1162" />
<glyph unicode="&#x2003;" horiz-adv-x="2324" />
<glyph unicode="&#x2004;" horiz-adv-x="774" />
<glyph unicode="&#x2005;" horiz-adv-x="581" />
<glyph unicode="&#x2006;" horiz-adv-x="387" />
<glyph unicode="&#x2007;" horiz-adv-x="387" />
<glyph unicode="&#x2008;" horiz-adv-x="290" />
<glyph unicode="&#x2009;" horiz-adv-x="464" />
<glyph unicode="&#x200a;" horiz-adv-x="129" />
<glyph unicode="&#x2010;" horiz-adv-x="800" d="M102 391v105h598v-105h-598z" />
<glyph unicode="&#x2011;" horiz-adv-x="800" d="M102 391v105h598v-105h-598z" />
<glyph unicode="&#x2012;" horiz-adv-x="800" d="M102 391v105h598v-105h-598z" />
<glyph unicode="&#x2013;" horiz-adv-x="962" d="M70 391v105h823v-105h-823z" />
<glyph unicode="&#x2014;" horiz-adv-x="1183" d="M43 391v105h1100v-105h-1100z" />
<glyph unicode="&#x2018;" horiz-adv-x="495" d="M145 868l150 586h102l-106 -586h-146z" />
<glyph unicode="&#x2019;" horiz-adv-x="495" d="M98 868l107 586h145l-149 -586h-103z" />
<glyph unicode="&#x201a;" horiz-adv-x="495" d="M98 -311l107 585h145l-149 -585h-103z" />
<glyph unicode="&#x201c;" horiz-adv-x="854" d="M145 868l150 586h102l-106 -586h-146zM504 868l149 586h103l-107 -586h-145z" />
<glyph unicode="&#x201d;" horiz-adv-x="854" d="M98 868l107 586h145l-149 -586h-103zM457 868l106 586h146l-150 -586h-102z" />
<glyph unicode="&#x201e;" horiz-adv-x="854" d="M98 -311l107 585h145l-149 -585h-103zM457 -311l106 585h146l-150 -585h-102z" />
<glyph unicode="&#x2026;" horiz-adv-x="1697" d="M188 84q0 41 27 67.5t68 26.5t67.5 -26.5t26.5 -67.5q0 -40 -26.5 -67t-67.5 -27t-68 27t-27 67zM756 84q0 42 26 68t68 26q41 0 67.5 -26.5t26.5 -67.5q0 -40 -26.5 -67t-67.5 -27q-42 0 -68 27t-26 67zM1321 84q0 41 26.5 67.5t67.5 26.5t67.5 -26.5t26.5 -67.5 q0 -40 -26.5 -67t-67.5 -27t-67.5 27t-26.5 67z" />
<glyph unicode="&#x202f;" horiz-adv-x="464" />
<glyph unicode="&#x2039;" horiz-adv-x="581" d="M109 467l231 364h123l-230 -364l230 -365h-123z" />
<glyph unicode="&#x203a;" horiz-adv-x="581" d="M119 102l231 365l-231 364h123l231 -364l-231 -365h-123z" />
<glyph unicode="&#x205f;" horiz-adv-x="581" />
<glyph unicode="&#x20ac;" horiz-adv-x="1327" d="M25 510v100h145q-6 53 -6 107q0 53 6 106h-145v101h165q61 234 244 381t428 147q107 0 210 -26.5t181 -73.5l-53 -101q-140 86 -338 86q-193 0 -338.5 -113.5t-201.5 -299.5h743v-101h-764q-8 -47 -8 -106q0 -60 8 -107h590v-100h-569q56 -187 202 -300.5t340 -113.5 q95 0 186 23t154 63l56 -100q-77 -47 -183 -73.5t-213 -26.5q-245 0 -428 147t-246 381h-165z" />
<glyph unicode="&#x2122;" horiz-adv-x="1476" d="M68 1354v80h501v-80h-207v-523h-88v523h-206zM705 831v603h92l233 -396l236 396h90v-603h-84v476l-211 -357h-64l-206 346v-465h-86z" />
<glyph unicode="&#x25fc;" horiz-adv-x="880" d="M0 0v881h881v-881h-881z" />
</font>
</defs>
</svg>
